<?xml version="1.0" encoding="UTF-8"?><svg id="a" xmlns="http://www.w3.org/2000/svg" viewBox="0 0 1080 1080"><defs><style>.b{fill:#fe0008;}.c{fill:#fff;}.d{opacity:.37;}</style></defs><g class="d"><path class="c" d="M502.55,188.43h-41.51l.81-.85c5.53-5.76,9.56-10.95,12-15.46-4.39,2.07-9.13,3.24-13.22,3.24-11.94,0-21.66-9.72-21.66-21.66s9.71-21.66,21.66-21.66c1.03,0,2.11,.08,3.24,.23-2.38-4.67-3.74-9.81-3.74-14.24,0-11.94,9.71-21.66,21.66-21.66s21.66,9.71,21.66,21.66c0,4.43-1.35,9.57-3.74,14.24,1.13-.15,2.21-.23,3.24-.23,11.94,0,21.66,9.71,21.66,21.66s-9.71,21.66-21.66,21.66c-4.08,0-8.83-1.17-13.22-3.24,2.44,4.51,6.47,9.7,12,15.46l.81,.85Zm-39.17-1h36.82c-5.73-6.07-9.79-11.52-12.06-16.21l-.66-1.36,1.34,.7c4.62,2.42,9.77,3.81,14.12,3.81,11.39,0,20.66-9.27,20.66-20.66s-9.27-20.66-20.66-20.66c-1.27,0-2.64,.12-4.06,.36l-1.01,.17,.49-.9c2.59-4.76,4.08-10.09,4.08-14.64,0-11.39-9.27-20.66-20.66-20.66s-20.66,9.27-20.66,20.66c0,4.55,1.49,9.89,4.08,14.64l.49,.9-1.01-.17c-1.43-.24-2.79-.36-4.06-.36-11.39,0-20.66,9.27-20.66,20.66s9.27,20.66,20.66,20.66c4.36,0,9.51-1.39,14.12-3.81l1.34-.7-.66,1.36c-2.27,4.69-6.33,10.14-12.06,16.21Z"/><path class="c" d="M368.46,188.43h-.96l-.15-.23c-10.64-16.61-23.01-31.83-36.77-45.23l-.15-.15v-.83l.15-.15c13.76-13.4,26.13-28.62,36.77-45.23l.15-.23h.96l.15,.23c10.64,16.61,23.01,31.83,36.77,45.23l.15,.15v.83l-.15,.15c-13.76,13.4-26.13,28.62-36.77,45.23l-.15,.23Zm-37.02-46.02c13.66,13.32,25.95,28.43,36.54,44.92,10.59-16.48,22.89-31.59,36.54-44.92-13.66-13.33-25.95-28.44-36.54-44.92-10.59,16.48-22.88,31.59-36.54,44.92Z"/><path class="c" d="M368.23,302.68l-29.13-27.5h0s-2.4-1.68-5.41-5.11c-2.95-3.34-5.39-7.09-7.26-11.14-2.8-6.04-4.22-12.6-4.22-19.51,0-17.87,9.2-28.97,24-28.97,9.63,0,15.77,6.53,19.23,12,1.38,2.18,2.29,4.12,2.79,5.3,.5-1.18,1.41-3.12,2.79-5.3,3.46-5.48,9.6-12,19.23-12,14.81,0,24.01,11.1,24.01,28.97,0,6.88-1.42,13.44-4.22,19.52-1.61,3.47-3.64,6.73-6.04,9.69-.4,.5-.81,.98-1.2,1.43-2.51,2.84-4.59,4.5-5.26,5.01v.25h-.31l-29,27.38Zm-22.02-91.24c-14.19,0-23,10.72-23,27.97,0,6.76,1.39,13.19,4.12,19.09,1.83,3.96,4.21,7.63,7.1,10.9,2.91,3.31,5.25,4.97,5.28,4.99l.08,.07,28.44,26.85,28.63-26.99c.51-.38,2.64-2.04,5.19-4.93,.38-.44,.78-.9,1.17-1.39,2.35-2.9,4.34-6.09,5.91-9.48,2.74-5.94,4.12-12.37,4.12-19.1,0-17.25-8.82-27.97-23.01-27.97-9.17,0-15.06,6.27-18.39,11.54-2.15,3.39-3.15,6.27-3.16,6.3l-.47,1.37-.47-1.37s-1.01-2.9-3.16-6.3c-3.32-5.26-9.21-11.54-18.39-11.54Z"/><path class="c" d="M508.72,268.15l-.34-.17c-18.61-9.18-38.4-14.23-55.74-14.23-1.63,0-3.21,.04-4.7,.13l-1.3,.08,.92-.93c10.53-10.61,20.22-22.3,28.79-34.74l.37-.53,.42,.49c14.87,17.23,26.14,33.15,33.49,47.33l.16,.32-.24,.26c-.54,.57-1.06,1.14-1.58,1.72l-.25,.28Zm-56.08-15.4c17.38,0,37.2,5.03,55.84,14.16,.36-.4,.73-.8,1.1-1.2-7.26-13.9-18.28-29.48-32.78-46.33-8.27,11.94-17.56,23.18-27.64,33.43,1.12-.04,2.28-.07,3.47-.07Z"/><path class="c" d="M482.29,416.74l-8.06-7.61-.03-.16c-1.97-10.17-5.66-11.63-9.23-13.04l-.83-.33-.2-2.72,28.66-2.11,5.61,10.94-15.93,15.03Zm-7.14-8.12l7.14,6.75,14.69-13.87-4.97-9.68-27,1.99,.08,1.1,.25,.1c3.62,1.43,7.73,3.05,9.81,13.62Z"/><path class="c" d="M276.28,416.55h-41.51l.81-.85c5.53-5.76,9.56-10.95,12-15.46-4.39,2.07-9.13,3.24-13.22,3.24-11.94,0-21.66-9.71-21.66-21.66s9.72-21.66,21.66-21.66c1.03,0,2.11,.08,3.24,.23-2.38-4.67-3.74-9.81-3.74-14.24,0-11.94,9.71-21.66,21.66-21.66s21.66,9.71,21.66,21.66c0,4.43-1.35,9.57-3.74,14.24,1.13-.15,2.22-.23,3.24-.23,11.94,0,21.66,9.72,21.66,21.66s-9.71,21.66-21.66,21.66c-4.08,0-8.83-1.17-13.22-3.24,2.44,4.51,6.47,9.7,12,15.46l.81,.85Zm-39.17-1h36.83c-5.73-6.07-9.79-11.52-12.06-16.21l-.66-1.37,1.34,.7c4.62,2.42,9.77,3.81,14.12,3.81,11.39,0,20.66-9.27,20.66-20.66s-9.27-20.66-20.66-20.66c-1.27,0-2.63,.12-4.06,.36l-1.01,.17,.49-.9c2.59-4.76,4.08-10.09,4.08-14.64,0-11.39-9.27-20.66-20.66-20.66s-20.66,9.27-20.66,20.66c0,4.55,1.49,9.89,4.08,14.64l.49,.9-1.01-.17c-1.43-.24-2.8-.36-4.06-.36-11.39,0-20.66,9.27-20.66,20.66s9.27,20.66,20.66,20.66c4.36,0,9.51-1.39,14.12-3.81l1.34-.7-.66,1.36c-2.27,4.69-6.33,10.14-12.06,16.21Z"/><path class="c" d="M354.33,406.56l1.15-1.55c1.96-2.64,3.57-5.14,4.79-7.46-3.7,2.61-7.88,3.93-12.43,3.93-14.29,0-23.16-9.3-23.16-24.26,0-5.78,1.37-11.28,4.08-16.35,1.8-3.37,4.15-6.5,6.99-9.3,1.15-1.13,2.37-2.19,3.64-3.16,.97-.73,1.59-1.12,1.67-1.17l25.96-21.22-.2,1.29c-.67,4.37-1.01,8.83-1.01,13.26,0,12.78,2.71,25.08,8.04,36.55,12.04-4.8,24.37-9.11,36.65-12.81l.44-.13,.17,.43c1.56,3.99,2.35,8.23,2.35,12.6,0,2.54-.27,4.97-.79,7.23l-.07,.28-.28,.08c-11.8,3.5-23.58,7.54-35.01,12.02l-.27,.1h0l-.07,.03c-6.9,2.69-13.93,5.65-20.88,8.79l-1.76,.8Zm8.71-12.54l-.91,2.03c-1.12,2.47-2.7,5.17-4.73,8.04,6.23-2.79,12.52-5.42,18.71-7.84-.03-.06-.06-.13-.09-.19l-.93-2.05,1.71,1.46c.14,.12,.28,.23,.42,.35,11.28-4.41,22.9-8.4,34.54-11.86,.47-2.11,.7-4.37,.7-6.72,0-4.09-.71-8.06-2.12-11.81-12.26,3.7-24.56,8.02-36.56,12.82l-.44,.17-.2-.43c-5.53-11.73-8.34-24.31-8.34-37.4,0-4.05,.28-8.13,.84-12.14l-24.02,19.62c-.14,.09-.72,.46-1.63,1.14-1.23,.94-2.42,1.98-3.54,3.08-2.77,2.73-5.06,5.78-6.81,9.06-2.63,4.92-3.96,10.26-3.96,15.87,0,14.56,8.28,23.26,22.16,23.26,5.03,0,9.58-1.69,13.51-5.03l1.69-1.44Z"/><path class="c" d="M142.2,416.55h-.96l-.15-.23c-10.64-16.61-23.01-31.83-36.77-45.23l-.15-.15v-.83l.15-.15c13.76-13.4,26.13-28.62,36.77-45.23l.15-.23h.96l.15,.23c10.65,16.62,23.02,31.83,36.77,45.23l.15,.15v.83l-.15,.15c-13.75,13.4-26.13,28.61-36.77,45.23l-.15,.23Zm-37.02-46.02c13.66,13.32,25.95,28.43,36.54,44.92,10.6-16.49,22.89-31.59,36.54-44.92-13.65-13.32-25.95-28.43-36.54-44.92-10.59,16.48-22.89,31.59-36.54,44.92Z"/><path class="c" d="M187.03,477.12H96.9l-.08-.4c-.58-2.98-.88-6.07-.88-9.19,0-17.87,9.2-28.97,24.01-28.97,9.62,0,15.77,6.52,19.23,11.99,1.38,2.18,2.29,4.12,2.79,5.31,.5-1.19,1.41-3.12,2.79-5.31,3.45-5.47,9.59-11.99,19.22-11.99,14.81,0,24.01,11.1,24.01,28.97,0,3.13-.3,6.22-.88,9.19l-.08,.4Zm-89.31-1h88.48c.52-2.78,.78-5.67,.78-8.59,0-17.25-8.82-27.97-23.01-27.97-9.18,0-15.06,6.27-18.38,11.53-2.16,3.4-3.15,6.28-3.16,6.3l-.47,1.38-.47-1.38s-1.01-2.9-3.16-6.31c-3.33-5.26-9.22-11.53-18.39-11.53-14.19,0-23.01,10.72-23.01,27.97,0,2.91,.26,5.8,.78,8.59Z"/><path class="c" d="M384.85,530.61h-23.67l-4.05-9.46,.18-.23c1.77-2.33,3.23-4.55,4.35-6.61-1.98,.94-4,1.68-6.04,2.23l-.42,.11-17.06-39.81,.41-.21c3.07-1.59,6.4-2.4,9.89-2.4,1.03,0,2.11,.08,3.24,.23-2.38-4.67-3.74-9.81-3.74-14.24,0-2.67,.48-5.27,1.42-7.73l.53-1.38,.42,1.41c.65,2.21,1.6,4.76,2.81,7.6l28.32,66.08c.59,1.38,1.43,2.57,2.48,3.54l.94,.87Zm-23.01-1h20.55c-.77-.88-1.4-1.89-1.88-3.01l-28.32-66.08c-.97-2.26-1.77-4.36-2.39-6.24-.58,1.91-.87,3.91-.87,5.95,0,4.55,1.49,9.88,4.08,14.64l.49,.9-1.02-.17c-1.42-.24-2.78-.36-4.06-.36-3.17,0-6.2,.7-9.02,2.08l16.35,38.15c2.3-.65,4.58-1.56,6.79-2.72l1.34-.7-.66,1.36c-1.18,2.43-2.85,5.08-4.97,7.89l3.57,8.32Z"/><path class="c" d="M472.74,511.92l-.2-2.72,.78-.45c3.89-2.25,8.31-4.8,7.02-22.38l-3.18-43.07,5.98-4.88,5.52,4.51,.02,.21,3.13,42.38c1.29,17.57,6.03,19.44,10.22,21.09l.84,.33,.2,2.72-11.71,.87h0l-17.12,1.27,.1-.18c-.06,.04-.12,.08-.18,.12l-.11,.08-1.29,.1Zm.84-2.17l.08,1.1h.03c.61-.43,1.19-.87,1.72-1.32l1.76-1.52-.98,2.11c-.09,.19-.17,.37-.27,.57l13.92-1.03-.88-1.74,1.89,1.61s.04,.03,.05,.05l11.08-.82-.08-1.1-.25-.1c-4.46-1.76-9.51-3.76-10.85-21.95l-3.11-42.17-4.56-3.73-4.94,4.04,3.14,42.55c1.34,18.2-3.37,20.92-7.52,23.32l-.23,.14Z"/><path class="c" d="M506.71,530.61h-36.04l4.29-.99c8.57-1.97,17.37-3.58,26.16-4.76l.27-.04,.18,.2c1.32,1.51,2.78,3.1,4.35,4.73l.81,.85Zm-27.08-1h24.74c-1.2-1.27-2.34-2.52-3.39-3.72-7.15,.97-14.31,2.22-21.35,3.72Z"/><path class="c" d="M526.22,500.56l-24.2-46.7,9.06,7.4h.32v.23c.67,.44,2.67,1.82,5.04,4.15,2.86,2.81,5.22,5.94,7.01,9.31,2.71,5.07,4.08,10.57,4.08,16.34,0,2.83-.33,5.53-.98,8.01l-.33,1.26Zm-21.09-42.87l20.76,40.05c.42-2.03,.64-4.19,.64-6.45,0-5.61-1.33-10.95-3.96-15.87-1.75-3.28-4.04-6.33-6.83-9.07-2.48-2.44-4.53-3.8-4.99-4.1h-.03l-5.58-4.56Z"/><path class="c" d="M245.25,477.59l-.21-.47h-19.84l.79-.84c10.67-11.34,20.48-23.96,29.15-37.49l.15-.23h.96l.15,.23c4.06,6.34,8.4,12.51,12.89,18.35l.3,.4-.4,.3c-7.87,6.04-15.68,12.49-23.23,19.16-.07,.05-.1,.08-.12,.1l-.59,.49Zm-17.74-1.47h17.93c7.37-6.51,15.03-12.83,22.74-18.77-4.32-5.64-8.49-11.58-12.41-17.68-8.44,13.12-17.94,25.38-28.26,36.45Z"/><path class="c" d="M262.95,520.67l-18.74-43.48,.58-.5c.11-.1,.21-.19,.32-.29l.52-.44,18.49,43.04-.17,.23c-.17,.22-.33,.45-.49,.68l-.51,.77Z"/><path class="c" d="M311.08,211.2c-6.55,0-11.88-5.33-11.88-11.88s5.33-11.88,11.88-11.88,11.88,5.33,11.88,11.88-5.33,11.88-11.88,11.88Zm0-22.76c-6,0-10.88,4.88-10.88,10.88s4.88,10.88,10.88,10.88,10.88-4.88,10.88-10.88-4.88-10.88-10.88-10.88Z"/><path class="c" d="M424.89,211.2c-6.55,0-11.88-5.33-11.88-11.88s5.33-11.88,11.88-11.88,11.88,5.33,11.88,11.88-5.33,11.88-11.88,11.88Zm0-22.76c-6,0-10.88,4.88-10.88,10.88s4.88,10.88,10.88,10.88,10.88-4.88,10.88-10.88-4.88-10.88-10.88-10.88Z"/><path class="c" d="M197.27,325.01c-6.55,0-11.88-5.33-11.88-11.88s5.33-11.88,11.88-11.88,11.88,5.33,11.88,11.88-5.33,11.88-11.88,11.88Zm0-22.76c-6,0-10.88,4.88-10.88,10.88s4.88,10.88,10.88,10.88,10.88-4.88,10.88-10.88-4.88-10.88-10.88-10.88Z"/><path class="c" d="M311.08,325.01c-6.55,0-11.88-5.33-11.88-11.88s5.33-11.88,11.88-11.88,11.88,5.33,11.88,11.88-5.33,11.88-11.88,11.88Zm0-22.76c-6,0-10.88,4.88-10.88,10.88s4.88,10.88,10.88,10.88,10.88-4.88,10.88-10.88-4.88-10.88-10.88-10.88Z"/><path class="c" d="M197.27,438.82c-6.55,0-11.88-5.33-11.88-11.88s5.33-11.88,11.88-11.88,11.88,5.33,11.88,11.88-5.33,11.88-11.88,11.88Zm0-22.76c-6,0-10.88,4.88-10.88,10.88s4.88,10.88,10.88,10.88,10.88-4.88,10.88-10.88-4.88-10.88-10.88-10.88Z"/><path class="c" d="M302.18,434.81l-.28-.34c-1.74-2.1-2.69-4.78-2.69-7.53,0-6.55,5.33-11.88,11.88-11.88,4.85,0,9.17,2.9,11,7.38l.17,.41-.39,.22c-6.52,3.66-13.02,7.53-19.32,11.51l-.37,.23Zm8.91-18.75c-6,0-10.88,4.88-10.88,10.88,0,2.37,.78,4.68,2.19,6.55,6.06-3.82,12.31-7.55,18.59-11.07-1.77-3.88-5.61-6.35-9.9-6.35Z"/><path class="c" d="M424.89,211.2c-6.55,0-11.88-5.33-11.88-11.88s5.33-11.88,11.88-11.88,11.88,5.33,11.88,11.88-5.33,11.88-11.88,11.88Zm0-22.76c-6,0-10.88,4.88-10.88,10.88s4.88,10.88,10.88,10.88,10.88-4.88,10.88-10.88-4.88-10.88-10.88-10.88Z"/><path class="c" d="M550.59,199.82h-23.77v-.5c0-6.56,5.33-11.89,11.88-11.89s11.89,5.33,11.89,11.89v.5Zm-22.76-1h21.75c-.26-5.77-5.04-10.39-10.88-10.39s-10.61,4.62-10.87,10.39Z"/><path class="c" d="M538.7,438.82c-1.98,0-3.93-.49-5.65-1.42l-.24-.13-1.45-19.67,.22-.16c2.06-1.55,4.52-2.37,7.12-2.37,1.27,0,2.53,.2,3.74,.59l.32,.1,1.6,21.64-.3,.15c-1.67,.85-3.47,1.27-5.36,1.27Zm-4.93-2.17c2.93,1.49,6.56,1.55,9.54,.15l-1.5-20.29c-1.01-.3-2.05-.45-3.11-.45-2.29,0-4.46,.69-6.3,2.01l1.37,18.58Z"/><path class="c" d="M197.27,438.82c-6.55,0-11.88-5.33-11.88-11.88s5.33-11.88,11.88-11.88,11.88,5.33,11.88,11.88-5.33,11.88-11.88,11.88Zm0-22.76c-6,0-10.88,4.88-10.88,10.88s4.88,10.88,10.88,10.88,10.88-4.88,10.88-10.88-4.88-10.88-10.88-10.88Z"/><path class="c" d="M302.18,434.81l-.28-.34c-1.74-2.1-2.69-4.78-2.69-7.53,0-6.55,5.33-11.88,11.88-11.88,4.85,0,9.17,2.9,11,7.38l.17,.41-.39,.22c-6.52,3.66-13.02,7.53-19.32,11.51l-.37,.23Zm8.91-18.75c-6,0-10.88,4.88-10.88,10.88,0,2.37,.78,4.68,2.19,6.55,6.06-3.82,12.31-7.55,18.59-11.07-1.77-3.88-5.61-6.35-9.9-6.35Z"/><path class="c" d="M197.27,325.01c-6.55,0-11.88-5.33-11.88-11.88s5.33-11.88,11.88-11.88,11.88,5.33,11.88,11.88-5.33,11.88-11.88,11.88Zm0-22.76c-6,0-10.88,4.88-10.88,10.88s4.88,10.88,10.88,10.88,10.88-4.88,10.88-10.88-4.88-10.88-10.88-10.88Z"/><path class="c" d="M311.08,211.2c-6.55,0-11.88-5.33-11.88-11.88s5.33-11.88,11.88-11.88,11.88,5.33,11.88,11.88-5.33,11.88-11.88,11.88Zm0-22.76c-6,0-10.88,4.88-10.88,10.88s4.88,10.88,10.88,10.88,10.88-4.88,10.88-10.88-4.88-10.88-10.88-10.88Z"/><path class="c" d="M424.89,211.2c-6.55,0-11.88-5.33-11.88-11.88s5.33-11.88,11.88-11.88,11.88,5.33,11.88,11.88-5.33,11.88-11.88,11.88Zm0-22.76c-6,0-10.88,4.88-10.88,10.88s4.88,10.88,10.88,10.88,10.88-4.88,10.88-10.88-4.88-10.88-10.88-10.88Z"/><path class="c" d="M424.89,211.2c-6.55,0-11.88-5.33-11.88-11.88s5.33-11.88,11.88-11.88,11.88,5.33,11.88,11.88-5.33,11.88-11.88,11.88Zm0-22.76c-6,0-10.88,4.88-10.88,10.88s4.88,10.88,10.88,10.88,10.88-4.88,10.88-10.88-4.88-10.88-10.88-10.88Z"/><path class="c" d="M550.59,199.82h-23.77v-.5c0-6.56,5.33-11.89,11.88-11.89s11.89,5.33,11.89,11.89v.5Zm-22.76-1h21.75c-.26-5.77-5.04-10.39-10.88-10.39s-10.61,4.62-10.87,10.39Z"/><path class="c" d="M197.27,438.82c-6.55,0-11.88-5.33-11.88-11.88s5.33-11.88,11.88-11.88,11.88,5.33,11.88,11.88-5.33,11.88-11.88,11.88Zm0-22.76c-6,0-10.88,4.88-10.88,10.88s4.88,10.88,10.88,10.88,10.88-4.88,10.88-10.88-4.88-10.88-10.88-10.88Z"/><path class="c" d="M538.7,438.82c-1.98,0-3.93-.49-5.65-1.42l-.24-.13-1.45-19.67,.22-.16c2.06-1.55,4.52-2.37,7.12-2.37,1.27,0,2.53,.2,3.74,.59l.32,.1,1.6,21.64-.3,.15c-1.67,.85-3.47,1.27-5.36,1.27Zm-4.93-2.17c2.93,1.49,6.56,1.55,9.54,.15l-1.5-20.29c-1.01-.3-2.05-.45-3.11-.45-2.29,0-4.46,.69-6.3,2.01l1.37,18.58Z"/><path class="c" d="M413.3,537.79l.49-1.28c1.75-4.56,6.03-7.56,10.91-7.64l1.35-.02-1,.9c-3.03,2.7-6.57,5.18-10.54,7.38l-1.2,.67Zm9.92-7.8c-3.33,.51-6.22,2.53-7.85,5.48,2.88-1.68,5.5-3.52,7.85-5.48Z"/><path class="c" d="M424.89,552.63c-2.67,0-5.19-.86-7.28-2.5l-.64-.5,.74-.35c5.89-2.76,12.05-5.38,18.31-7.78l.76-.29-.08,.81c-.63,6.05-5.71,10.61-11.81,10.61Zm-5.99-2.8c1.77,1.18,3.82,1.8,5.99,1.8,5.3,0,9.76-3.77,10.69-8.89-5.69,2.21-11.29,4.59-16.68,7.09Z"/><path class="c" d="M527,542.84l-.06-.45c-.08-.55-.12-1.11-.12-1.64,0-6.55,5.33-11.88,11.88-11.88s11.89,5.33,11.89,11.88c0,.53-.04,1.08-.12,1.62l-.06,.45-.45-.02c-7.42-.29-15-.28-22.51,.02l-.45,.02Zm11.7-12.97c-6,0-10.88,4.88-10.88,10.88,0,.34,.02,.7,.05,1.05,7.23-.28,14.51-.28,21.67-.02,.03-.35,.05-.69,.05-1.03,0-6-4.89-10.88-10.89-10.88Z"/><path class="c" d="M709.92,188.62l-29.14-27.51c-.53-.38-2.75-2.08-5.41-5.11-2.95-3.34-5.39-7.09-7.26-11.14-2.8-6.05-4.21-12.62-4.21-19.51,0-17.87,9.2-28.97,24.01-28.97,9.62,0,15.77,6.52,19.23,12,1.38,2.18,2.29,4.12,2.79,5.3,.5-1.18,1.41-3.12,2.79-5.3,3.46-5.47,9.61-11.99,19.23-11.99,14.81,0,24.01,11.1,24.01,28.97,0,6.9-1.42,13.46-4.21,19.52-1.87,4.04-4.31,7.78-7.24,11.11-2.73,3.1-5.02,4.84-5.45,5.16l-29.12,27.48Zm-22.02-91.24c-14.19,0-23.01,10.72-23.01,27.97,0,6.75,1.39,13.17,4.12,19.09,1.83,3.96,4.22,7.63,7.1,10.89,2.87,3.26,5.19,4.93,5.29,4.99l28.52,26.91,28.6-27h.04c.73-.56,2.77-2.19,5.18-4.93,2.87-3.26,5.25-6.92,7.08-10.87,2.74-5.92,4.12-12.34,4.12-19.1,0-17.25-8.82-27.97-23.01-27.97-9.17,0-15.06,6.27-18.39,11.53-2.16,3.41-3.15,6.27-3.16,6.3l-.47,1.38-.47-1.38s-1.01-2.9-3.16-6.3c-3.33-5.26-9.22-11.53-18.39-11.53Z"/><path class="c" d="M620.28,188.43h-47.17l.81-.85c6.52-6.79,11.21-12.88,13.98-18.15-3.7,2.61-7.88,3.93-12.43,3.93-14.29,0-23.17-9.3-23.17-24.26,0-5.78,1.37-11.28,4.08-16.35,1.81-3.38,4.16-6.51,7-9.3,2.57-2.52,4.68-3.93,5.26-4.31l28.06-22.92,28.08,22.95c.51,.32,2.65,1.74,5.22,4.27,2.85,2.79,5.21,5.93,7.01,9.31,2.71,5.07,4.08,10.57,4.08,16.34,0,14.96-8.88,24.26-23.17,24.26-4.56,0-8.73-1.32-12.43-3.93,2.77,5.27,7.46,11.36,13.98,18.15l.81,.85Zm-44.83-1h42.49c-6.97-7.37-11.78-13.92-14.3-19.5l-.92-2.03,1.7,1.44c3.93,3.34,8.47,5.03,13.51,5.03,13.67,0,22.17-8.91,22.17-23.26,0-5.61-1.33-10.95-3.96-15.87-1.76-3.3-4.06-6.35-6.83-9.07-2.77-2.73-5-4.11-5.09-4.16l-27.51-22.48-27.63,22.54c-.71,.47-2.68,1.83-4.99,4.11-2.76,2.71-5.06,5.76-6.81,9.05-2.63,4.92-3.96,10.26-3.96,15.88,0,14.35,8.49,23.26,22.17,23.26,5.03,0,9.58-1.69,13.51-5.03l1.7-1.44-.92,2.03c-2.52,5.58-7.33,12.14-14.3,19.5Z"/><path class="c" d="M566.98,270.36l.66-1.36c7.91-16.34,21.22-35.07,39.56-55.67l.27-.3,.35,.2c6.82,3.84,11.05,11.07,11.05,18.89,0,4.43-1.35,9.57-3.74,14.24,1.1-.15,2.19-.22,3.24-.22,6.07,0,11.89,2.56,15.98,7.03l.85,.93-1.25-.09c-2.16-.16-4.37-.24-6.58-.24-18.23,0-39.75,5.8-59.04,15.9l-1.34,.7Zm40.69-56.07c-17.63,19.84-30.56,37.93-38.46,53.78,19.08-9.75,40.19-15.32,58.15-15.32,1.79,0,3.59,.05,5.35,.16-3.83-3.69-8.99-5.79-14.34-5.79-1.3,0-2.67,.12-4.06,.35l-1.01,.17,.49-.9c2.59-4.75,4.08-10.09,4.08-14.64,0-7.32-3.9-14.1-10.2-17.81Z"/><path class="c" d="M734.33,302.49h-28.91l-.14-.28c-2.06-4.17-4.47-8.2-7.16-11.98l-.21-.29,.21-.29c1.52-2.13,2.8-4.19,3.83-6.15-1.94,1.36-4.02,2.38-6.22,3.04l-.32,.1-.21-.26c-7.71-9.64-17.59-17.68-28.56-23.25l-.28-.14v-.31c.08-5.59,1.45-10.92,4.07-15.85,1.8-3.37,4.15-6.5,6.99-9.3,2.56-2.5,4.68-3.93,5.26-4.3l.04-.02,28.02-22.9,28.09,22.95s2.35,1.45,5.21,4.27c2.83,2.77,5.19,5.9,7.02,9.31,2.71,5.07,4.08,10.57,4.08,16.35,0,14.96-8.88,24.26-23.17,24.26-4.56,0-8.73-1.32-12.43-3.93,2.76,5.26,7.45,11.35,13.97,18.15l.81,.85Zm-28.29-1h25.95c-6.98-7.38-11.79-13.94-14.3-19.5l-.92-2.03,1.7,1.44c3.93,3.34,8.47,5.03,13.51,5.03,13.88,0,22.17-8.7,22.17-23.26,0-5.61-1.33-10.95-3.96-15.87-1.78-3.32-4.08-6.37-6.84-9.07-2.81-2.77-5.06-4.15-5.08-4.16l-.1-.08-27.42-22.4-27.62,22.54c-.71,.47-2.66,1.82-5,4.11-2.76,2.73-5.05,5.77-6.81,9.06-2.5,4.7-3.83,9.77-3.95,15.08,10.88,5.57,20.69,13.55,28.39,23.11,2.61-.83,5.05-2.21,7.26-4.08l1.7-1.45-.92,2.04c-1.13,2.5-2.7,5.17-4.66,7.95,2.58,3.65,4.9,7.54,6.9,11.55Z"/><path class="c" d="M938.03,416.74l-29.14-27.51c-.53-.38-2.75-2.08-5.41-5.11-2.95-3.34-5.39-7.09-7.26-11.14-2.8-6.05-4.21-12.62-4.21-19.51,0-17.87,9.2-28.97,24.01-28.97,9.62,0,15.77,6.52,19.23,12,1.38,2.18,2.29,4.12,2.79,5.3,.5-1.18,1.41-3.12,2.79-5.3,3.46-5.47,9.61-11.99,19.23-11.99,14.81,0,24.01,11.1,24.01,28.97,0,6.9-1.42,13.46-4.21,19.52-1.87,4.04-4.3,7.78-7.24,11.11-2.67,3.03-4.91,4.75-5.42,5.13l-.15,.13-29,27.38Zm-22.02-91.24c-14.19,0-23.01,10.72-23.01,27.97,0,6.75,1.39,13.17,4.12,19.09,1.83,3.96,4.22,7.63,7.1,10.9,2.87,3.26,5.19,4.93,5.29,4.99l28.52,26.91,28.64-27c.64-.48,2.72-2.13,5.18-4.93,2.87-3.26,5.25-6.92,7.08-10.87,2.74-5.92,4.12-12.34,4.12-19.1,0-17.25-8.82-27.97-23.01-27.97-9.17,0-15.06,6.27-18.39,11.53-2.16,3.4-3.15,6.27-3.16,6.3l-.47,1.38-.47-1.38s-1.01-2.9-3.16-6.3c-3.33-5.26-9.22-11.53-18.38-11.53Z"/><path class="c" d="M700.24,416.55h-9.72l.81-.85c.72-.75,1.4-1.48,2.05-2.19l.26-.28,6.6,3.32Zm-7.38-1h3.17l-2.16-1.08c-.33,.36-.66,.72-1.01,1.08Z"/><path class="c" d="M722.07,404.89l-1.54-.68c-16.62-7.35-33.95-13.75-51.51-19.02l-.31-.09-.04-.32c-.14-.98-.2-1.97-.2-2.95,0-5.91,2.34-11.43,6.58-15.55l.21-.21,.28,.09c10.28,3.24,20.59,6.92,30.65,10.93,5.32-11.48,8.02-23.76,8.02-36.5,0-5.17-.46-10.35-1.36-15.4l-.12-.65,.66,.06c11.14,1.08,19.54,10.35,19.54,21.56,0,4.43-1.35,9.57-3.74,14.24,1.13-.15,2.21-.23,3.24-.23,11.94,0,21.66,9.72,21.66,21.66s-9.72,21.66-21.66,21.66c-4.07,0-8.81-1.17-13.21-3.25,.56,1.04,1.21,2.12,1.93,3.23l.92,1.41Zm-52.45-20.56c16.97,5.11,33.72,11.26,49.83,18.31-.69-1.14-1.3-2.24-1.81-3.3l-.66-1.37,1.35,.7c4.63,2.42,9.77,3.81,14.12,3.81,11.39,0,20.66-9.27,20.66-20.66s-9.27-20.66-20.66-20.66c-1.26,0-2.63,.12-4.06,.36l-1.01,.17,.49-.9c2.59-4.76,4.08-10.09,4.08-14.64,0-10.47-7.68-19.17-17.98-20.49,.84,4.9,1.26,9.92,1.26,14.92,0,13.05-2.8,25.62-8.32,37.35l-.2,.43-.44-.17c-10.08-4.03-20.42-7.73-30.73-10.99-3.91,3.9-6.07,9.08-6.07,14.62,0,.83,.05,1.66,.15,2.49Z"/><path class="c" d="M848.4,416.55h-47.17l.81-.85c6.52-6.79,11.21-12.88,13.98-18.15-3.7,2.61-7.87,3.93-12.43,3.93-14.29,0-23.17-9.3-23.17-24.26,0-5.78,1.37-11.28,4.08-16.35,1.81-3.38,4.16-6.51,7-9.3,2.57-2.53,4.68-3.94,5.27-4.31h0l28.05-22.92,28.08,22.95c.52,.33,2.66,1.75,5.22,4.27,2.85,2.79,5.21,5.93,7.01,9.31,2.71,5.07,4.08,10.57,4.08,16.34,0,14.96-8.88,24.26-23.17,24.26-4.56,0-8.73-1.32-12.43-3.93,2.77,5.27,7.46,11.36,13.98,18.15l.81,.85Zm-44.83-1h42.49c-6.97-7.36-11.78-13.92-14.3-19.5l-.92-2.03,1.7,1.44c3.93,3.34,8.47,5.03,13.5,5.03,13.67,0,22.17-8.91,22.17-23.26,0-5.61-1.33-10.95-3.96-15.87-1.76-3.3-4.06-6.35-6.83-9.07-2.76-2.71-5-4.11-5.09-4.16l-.1-.08-27.41-22.4-27.62,22.54c-.61,.4-2.62,1.77-5,4.11-2.76,2.71-5.06,5.76-6.81,9.05-2.63,4.92-3.96,10.26-3.96,15.88,0,14.35,8.49,23.26,22.17,23.26,5.04,0,9.58-1.69,13.5-5.03l1.7-1.44-.92,2.03c-2.52,5.58-7.33,12.14-14.3,19.5Z"/><path class="c" d="M597.71,530.8l-3.71-3.51,1.68,.32c1.17,.22,2.35,.45,3.52,.7l.93,.2-2.41,2.29Zm-.54-1.88l.54,.5,.34-.33c-.29-.06-.59-.12-.88-.18Z"/><path class="c" d="M614.9,514.56l-28.85-5.84,.47-2.2,.74-.18c3.34-.82,7.12-1.74,9.9-14.64l10.57-49.13,.15-.11c3.56-2.59,7.54-3.9,11.84-3.9,1.64,0,3.25,.14,4.78,.41l.55,.1-.16,.54c-.35,1.19-.69,2.53-1.02,4.09l-11.02,51.19c-2.77,12.88,.3,15.19,3.02,17.23l.62,.47-.13,.6-1.46,1.37Zm-27.66-6.62l27.35,5.54,.63-.6c-2.94-2.21-6.24-4.77-3.35-18.21h0l11.02-51.19c.29-1.35,.58-2.55,.88-3.62-1.31-.2-2.67-.3-4.05-.3-4.02,0-7.76,1.21-11.1,3.59l-10.49,48.75c-2.91,13.51-7.02,14.52-10.64,15.4l-.13,.03-.13,.6Z"/><path class="c" d="M812.77,530.61h-2.25l23.41-54.49h.76l.14,.13c.11,.1,.22,.2,.34,.3l.6,.53-23,53.53Zm-.73-1h.07l22.46-52.26-.05-.04h0l-22.48,52.31Z"/><path class="c" d="M857.53,477.12h-23.22l-.14-.13c-9.3-8.22-19.07-16.14-29.05-23.54l-.3-.22,.13-.35c3.09-8.57,11.28-14.32,20.38-14.32,11.94,0,21.66,9.72,21.66,21.66,0,4.43-1.35,9.57-3.74,14.24,1.12-.15,2.21-.23,3.24-.23,3.13,0,6.14,.65,8.95,1.94l2.09,.95Zm-22.84-1h17.82c-3.12-.96-6.35-1.16-10.07-.53l-1.02,.17,.49-.9c2.59-4.76,4.08-10.09,4.08-14.64,0-11.39-9.27-20.66-20.66-20.66-8.56,0-16.27,5.33-19.31,13.31,9.84,7.32,19.49,15.14,28.67,23.25Z"/><path class="c" d="M980.25,477.12h-82.75l.33-.71c.23-.5,.48-.98,.73-1.46,1.81-3.39,4.16-6.52,6.99-9.3,1.15-1.13,2.37-2.19,3.64-3.16,.97-.73,1.59-1.12,1.67-1.17l28.02-22.9,27.94,22.84h.32v.23c.67,.43,2.64,1.79,5.04,4.15,2.85,2.78,5.21,5.91,7.01,9.31,.25,.48,.5,.96,.73,1.46l.33,.71Zm-81.17-1h79.58c-.12-.24-.24-.47-.36-.71-1.76-3.31-4.05-6.36-6.83-9.07-2.5-2.46-4.54-3.81-4.99-4.1h-.03l-.31-.25-27.27-22.29-27.45,22.43c-.14,.09-.72,.46-1.63,1.14-1.23,.94-2.42,1.98-3.54,3.08-2.76,2.71-5.05,5.76-6.81,9.06-.12,.23-.25,.47-.36,.7Z"/><path class="c" d="M697.64,511.55l-.49-.63c-4.33-5.58-8.93-11.01-13.66-16.13l-.24-.25,28.43-56.46,.47,.74c4.02,6.26,8.29,12.34,12.69,18.09l.19,.25-.14,.28-27.25,54.12Zm-13.18-17.18c4.49,4.87,8.86,10.02,13,15.31l26.4-52.42c-4.17-5.47-8.23-11.24-12.07-17.17l-27.33,54.28Z"/><path class="c" d="M744.82,489.24l.28-1.58c.31-1.74,.59-3.57,.85-5.45l.14-1,.71,.71c.48,.48,.95,.94,1.43,1.41l.85,.83v.83l-.15,.15c-1.01,.98-2,1.97-2.97,2.95l-1.13,1.14Zm1.98-5.9c-.14,1-.29,1.98-.45,2.94,.57-.57,1.14-1.13,1.72-1.7l-.54-.53c-.24-.24-.48-.47-.72-.71Z"/><path class="c" d="M653.01,211.2c-6.55,0-11.88-5.33-11.88-11.88s5.33-11.88,11.88-11.88,11.88,5.33,11.88,11.88-5.33,11.88-11.88,11.88Zm0-22.76c-6,0-10.88,4.88-10.88,10.88s4.88,10.88,10.88,10.88,10.88-4.88,10.88-10.88-4.88-10.88-10.88-10.88Z"/><path class="c" d="M766.82,211.2c-6.55,0-11.88-5.33-11.88-11.88s5.33-11.88,11.88-11.88,11.88,5.33,11.88,11.88-5.33,11.88-11.88,11.88Zm0-22.76c-6,0-10.88,4.88-10.88,10.88s4.88,10.88,10.88,10.88,10.88-4.88,10.88-10.88-4.88-10.88-10.88-10.88Z"/><path class="c" d="M766.82,325.01c-6.55,0-11.88-5.33-11.88-11.88s5.33-11.88,11.88-11.88,11.88,5.33,11.88,11.88-5.33,11.88-11.88,11.88Zm0-22.76c-6,0-10.88,4.88-10.88,10.88s4.88,10.88,10.88,10.88,10.88-4.88,10.88-10.88-4.88-10.88-10.88-10.88Z"/><path class="c" d="M880.63,325.01c-6.55,0-11.88-5.33-11.88-11.88s5.33-11.88,11.88-11.88,11.88,5.33,11.88,11.88-5.33,11.88-11.88,11.88Zm0-22.76c-6,0-10.88,4.88-10.88,10.88s4.88,10.88,10.88,10.88,10.88-4.88,10.88-10.88-4.88-10.88-10.88-10.88Z"/><path class="c" d="M776.48,433.88l-.42-.26c-6.37-3.99-12.95-7.87-19.57-11.55l-.43-.24,.23-.43c2.07-3.91,6.1-6.35,10.52-6.35,6.55,0,11.88,5.33,11.88,11.88,0,2.33-.67,4.59-1.95,6.53l-.27,.41Zm-19.06-12.44c6.34,3.53,12.64,7.25,18.75,11.06,1-1.69,1.53-3.6,1.53-5.57,0-6-4.88-10.88-10.88-10.88-3.89,0-7.45,2.05-9.4,5.39Z"/><path class="c" d="M880.63,438.82c-6.55,0-11.88-5.33-11.88-11.88s5.33-11.88,11.88-11.88,11.88,5.33,11.88,11.88-5.33,11.88-11.88,11.88Zm0-22.76c-6,0-10.88,4.88-10.88,10.88s4.88,10.88,10.88,10.88,10.88-4.88,10.88-10.88-4.88-10.88-10.88-10.88Z"/><path class="c" d="M880.63,325.01c-6.55,0-11.88-5.33-11.88-11.88s5.33-11.88,11.88-11.88,11.88,5.33,11.88,11.88-5.33,11.88-11.88,11.88Zm0-22.76c-6,0-10.88,4.88-10.88,10.88s4.88,10.88,10.88,10.88,10.88-4.88,10.88-10.88-4.88-10.88-10.88-10.88Z"/><path class="c" d="M880.63,438.82c-6.55,0-11.88-5.33-11.88-11.88s5.33-11.88,11.88-11.88,11.88,5.33,11.88,11.88-5.33,11.88-11.88,11.88Zm0-22.76c-6,0-10.88,4.88-10.88,10.88s4.88,10.88,10.88,10.88,10.88-4.88,10.88-10.88-4.88-10.88-10.88-10.88Z"/><path class="c" d="M776.48,433.88l-.42-.26c-6.37-3.99-12.95-7.87-19.57-11.55l-.43-.24,.23-.43c2.07-3.91,6.1-6.35,10.52-6.35,6.55,0,11.88,5.33,11.88,11.88,0,2.33-.67,4.59-1.95,6.53l-.27,.41Zm-19.06-12.44c6.34,3.53,12.64,7.25,18.75,11.06,1-1.69,1.53-3.6,1.53-5.57,0-6-4.88-10.88-10.88-10.88-3.89,0-7.45,2.05-9.4,5.39Z"/><path class="c" d="M653.01,211.2c-6.55,0-11.88-5.33-11.88-11.88s5.33-11.88,11.88-11.88,11.88,5.33,11.88,11.88-5.33,11.88-11.88,11.88Zm0-22.76c-6,0-10.88,4.88-10.88,10.88s4.88,10.88,10.88,10.88,10.88-4.88,10.88-10.88-4.88-10.88-10.88-10.88Z"/><path class="c" d="M653.01,211.2c-6.55,0-11.88-5.33-11.88-11.88s5.33-11.88,11.88-11.88,11.88,5.33,11.88,11.88-5.33,11.88-11.88,11.88Zm0-22.76c-6,0-10.88,4.88-10.88,10.88s4.88,10.88,10.88,10.88,10.88-4.88,10.88-10.88-4.88-10.88-10.88-10.88Z"/><path class="c" d="M766.82,211.2c-6.55,0-11.88-5.33-11.88-11.88s5.33-11.88,11.88-11.88,11.88,5.33,11.88,11.88-5.33,11.88-11.88,11.88Zm0-22.76c-6,0-10.88,4.88-10.88,10.88s4.88,10.88,10.88,10.88,10.88-4.88,10.88-10.88-4.88-10.88-10.88-10.88Z"/><path class="c" d="M653.01,211.2c-6.55,0-11.88-5.33-11.88-11.88s5.33-11.88,11.88-11.88,11.88,5.33,11.88,11.88-5.33,11.88-11.88,11.88Zm0-22.76c-6,0-10.88,4.88-10.88,10.88s4.88,10.88,10.88,10.88,10.88-4.88,10.88-10.88-4.88-10.88-10.88-10.88Z"/><path class="c" d="M880.63,438.82c-6.55,0-11.88-5.33-11.88-11.88s5.33-11.88,11.88-11.88,11.88,5.33,11.88,11.88-5.33,11.88-11.88,11.88Zm0-22.76c-6,0-10.88,4.88-10.88,10.88s4.88,10.88,10.88,10.88,10.88-4.88,10.88-10.88-4.88-10.88-10.88-10.88Z"/><path class="c" d="M254.17,643.87l-10.8-10.2h21.61l-10.81,10.2Zm-8.28-9.2l8.28,7.82,8.29-7.82h-16.57Z"/><path class="c" d="M296.61,598.71l-20.3-47.06h.76c.27,0,.55,.01,.81,.03l.3,.02,19.27,44.86-.16,.43c-.08,.21-.15,.41-.23,.61l-.45,1.11Z"/><path class="c" d="M164.53,643.68h-47.16l.81-.85c3-3.12,5.65-6.14,7.88-8.97l.15-.19h29.5l.15,.19c2.16,2.76,4.8,5.77,7.87,8.97l.81,.85Zm-44.82-1h42.49c-2.68-2.84-5.02-5.53-6.98-8.01h-28.53c-2.01,2.54-4.36,5.23-6.98,8.01Z"/><path class="c" d="M368.46,643.68h-.96l-.15-.23c-8.75-13.66-18.69-26.4-29.52-37.88l-.34-.36,.35-.34c13.19-13.02,27.63-24.75,42.91-34.87l.39-.26,.28,.37c7.32,9.55,15.38,18.62,23.95,26.98l.15,.15v.83l-.15,.15c-13.76,13.41-26.13,28.63-36.77,45.23l-.15,.23Zm-29.56-38.44c10.66,11.33,20.44,23.89,29.09,37.33,10.59-16.48,22.88-31.59,36.54-44.92-8.44-8.24-16.38-17.17-23.61-26.56-14.94,9.94-29.08,21.43-42.02,34.15Z"/><path class="c" d="M322.75,701.98l-.13-1.01c-.27-2.04-.4-4.17-.4-6.31,0-17.87,9.2-28.97,24-28.97,3.37,0,6.57,.81,9.51,2.41l.59,.32-33.56,33.56Zm23.46-35.29c-14.19,0-23,10.72-23,27.97,0,1.75,.09,3.48,.27,5.17l31.16-31.16c-2.63-1.31-5.46-1.98-8.43-1.98Z"/><path class="c" d="M162.23,757.74h-41.51l.81-.85c5.53-5.76,9.56-10.95,12-15.46-4.39,2.07-9.13,3.24-13.22,3.24-11.94,0-21.66-9.72-21.66-21.66s9.71-21.66,21.66-21.66c1.03,0,2.11,.08,3.24,.23-2.38-4.67-3.74-9.81-3.74-14.24,0-11.94,9.72-21.66,21.66-21.66s21.66,9.71,21.66,21.66c0,4.43-1.35,9.57-3.74,14.24,1.13-.15,2.21-.23,3.24-.23,11.94,0,21.66,9.71,21.66,21.66s-9.71,21.66-21.66,21.66c-4.08,0-8.83-1.17-13.22-3.24,2.44,4.51,6.47,9.7,12,15.46l.81,.85Zm-39.17-1h36.83c-5.73-6.07-9.79-11.52-12.06-16.21l-.66-1.37,1.34,.7c4.62,2.42,9.77,3.81,14.12,3.81,11.39,0,20.66-9.27,20.66-20.66s-9.27-20.66-20.66-20.66c-1.27,0-2.64,.12-4.06,.36l-1.01,.17,.49-.9c2.59-4.76,4.08-10.09,4.08-14.64,0-11.39-9.27-20.66-20.66-20.66s-20.66,9.27-20.66,20.66c0,4.55,1.49,9.89,4.08,14.64l.49,.9-1.01-.17c-1.43-.24-2.79-.36-4.06-.36-11.39,0-20.66,9.27-20.66,20.66s9.27,20.66,20.66,20.66c4.36,0,9.51-1.39,14.12-3.81l1.34-.7-.66,1.36c-2.27,4.69-6.33,10.14-12.06,16.21Z"/><path class="c" d="M278.6,757.74h-47.17l.81-.85c6.52-6.79,11.21-12.88,13.98-18.15-3.7,2.61-7.88,3.93-12.43,3.93-14.29,0-23.16-9.3-23.16-24.26,0-5.78,1.37-11.28,4.08-16.35,1.81-3.38,4.16-6.51,7-9.3,2.57-2.52,4.68-3.93,5.26-4.31l28.06-22.92,28.08,22.95h0c.51,.32,2.65,1.74,5.22,4.27,2.85,2.79,5.21,5.93,7.01,9.31,2.71,5.07,4.08,10.57,4.08,16.34,0,14.96-8.88,24.26-23.17,24.26-4.56,0-8.73-1.32-12.43-3.93,2.77,5.27,7.46,11.36,13.98,18.15l.81,.85Zm-44.83-1h42.49c-6.97-7.36-11.78-13.92-14.3-19.5l-.92-2.03,1.7,1.44c3.93,3.34,8.47,5.03,13.5,5.03,13.67,0,22.17-8.91,22.17-23.26,0-5.61-1.33-10.95-3.96-15.87-1.76-3.3-4.06-6.35-6.83-9.07-2.77-2.73-5-4.11-5.09-4.16l-.13-.11-27.38-22.37-27.63,22.54c-.71,.47-2.68,1.83-4.99,4.11-2.76,2.72-5.06,5.76-6.81,9.05-2.63,4.92-3.96,10.26-3.96,15.88,0,14.35,8.49,23.26,22.16,23.26,5.04,0,9.58-1.69,13.5-5.03l1.7-1.44-.92,2.03c-2.52,5.58-7.33,12.14-14.3,19.5Z"/><path class="c" d="M392.65,871.8h-47.17l.81-.85c6.51-6.78,11.2-12.87,13.97-18.15-3.7,2.61-7.88,3.93-12.43,3.93-14.29,0-23.16-9.3-23.16-24.26,0-5.78,1.37-11.28,4.08-16.35,1.81-3.4,4.16-6.53,6.99-9.3,1.14-1.13,2.37-2.19,3.64-3.16,.8-.6,1.35-.96,1.56-1.1l23.82-19.46,.32,.32,48.35,48.35v.19c.03,.16,.03,.33,.03,.51,0,14.96-8.87,24.26-23.16,24.26-4.56,0-8.74-1.32-12.43-3.93,2.77,5.28,7.46,11.37,13.97,18.14l.81,.85Zm-44.83-1h42.48c-6.96-7.35-11.77-13.91-14.3-19.5l-.92-2.04,1.7,1.45c3.92,3.34,8.46,5.03,13.51,5.03,13.67,0,22.16-8.91,22.16-23.26,0-.08,0-.17,0-.25l-47.76-47.76-23.2,18.95c-.2,.13-.73,.48-1.5,1.06-1.23,.94-2.42,1.98-3.54,3.08-2.76,2.71-5.05,5.75-6.81,9.06-2.63,4.92-3.96,10.26-3.96,15.88,0,14.56,8.28,23.26,22.16,23.26,5.03,0,9.58-1.69,13.51-5.03l1.7-1.44-.92,2.03c-2.53,5.59-7.34,12.15-14.3,19.5Z"/><path class="c" d="M390.34,985.86h-41.51l.81-.85c5.53-5.76,9.56-10.95,12-15.46-4.39,2.07-9.13,3.24-13.22,3.24-11.94,0-21.66-9.71-21.66-21.66s9.72-21.66,21.66-21.66c1.03,0,2.12,.08,3.24,.22-2.38-4.67-3.74-9.81-3.74-14.24,0-11.94,9.71-21.66,21.66-21.66s21.66,9.72,21.66,21.66c0,4.43-1.36,9.57-3.74,14.24,1.13-.15,2.21-.22,3.24-.22,11.94,0,21.66,9.71,21.66,21.66s-9.71,21.66-21.66,21.66c-4.09,0-8.83-1.17-13.22-3.24,2.44,4.51,6.47,9.7,12,15.46l.81,.85Zm-39.17-1h36.82c-5.73-6.07-9.79-11.52-12.06-16.21l-.66-1.36,1.34,.7c4.62,2.42,9.77,3.81,14.12,3.81,11.39,0,20.66-9.27,20.66-20.66s-9.27-20.66-20.66-20.66c-1.27,0-2.64,.12-4.06,.36l-1.01,.17,.49-.9c2.59-4.76,4.08-10.09,4.08-14.64,0-11.39-9.27-20.66-20.66-20.66s-20.66,9.27-20.66,20.66c0,4.55,1.49,9.88,4.08,14.64l.49,.9-1.01-.17c-1.42-.24-2.79-.36-4.06-.36-11.39,0-20.66,9.27-20.66,20.66s9.27,20.66,20.66,20.66c4.36,0,9.51-1.39,14.12-3.81l1.34-.7-.66,1.36c-2.27,4.69-6.33,10.14-12.06,16.21Z"/><path class="c" d="M506.71,985.86h-47.17l.81-.85c6.51-6.79,11.2-12.88,13.97-18.15-3.7,2.61-7.88,3.93-12.43,3.93-14.29,0-23.17-9.3-23.17-24.26,0-5.79,1.37-11.28,4.08-16.35,1.8-3.38,4.15-6.51,7-9.3,2.29-2.26,4.25-3.65,5.21-4.27l.08-.05,23.72-19.39,.32,.32,48.35,48.35v.19c.02,.16,.02,.33,.02,.5,0,14.96-8.87,24.26-23.16,24.26-4.57,0-8.74-1.32-12.43-3.93,2.77,5.28,7.46,11.37,13.97,18.14l.81,.85Zm-44.83-1h42.49c-6.96-7.35-11.77-13.91-14.3-19.5l-.92-2.04,1.7,1.45c3.92,3.34,8.46,5.03,13.51,5.03,13.67,0,22.16-8.91,22.16-23.26,0-.08,0-.17,0-.25l-47.76-47.76-23.26,18.98c-1.03,.68-2.86,2.01-4.99,4.11-2.77,2.72-5.07,5.77-6.82,9.06-2.63,4.92-3.96,10.26-3.96,15.88,0,14.35,8.5,23.26,22.17,23.26,5.03,0,9.58-1.69,13.51-5.03l1.7-1.44-.92,2.03c-2.52,5.58-7.33,12.13-14.3,19.5Z"/><path class="c" d="M197.27,666.44c-6.55,0-11.88-5.33-11.88-11.88s5.33-11.88,11.88-11.88,11.88,5.33,11.88,11.88-5.33,11.88-11.88,11.88Zm0-22.76c-6,0-10.88,4.88-10.88,10.88s4.88,10.88,10.88,10.88,10.88-4.88,10.88-10.88-4.88-10.88-10.88-10.88Z"/><path class="c" d="M311.08,666.44c-6.55,0-11.88-5.33-11.88-11.88s5.33-11.88,11.88-11.88,11.88,5.33,11.88,11.88-5.33,11.88-11.88,11.88Zm0-22.76c-6,0-10.88,4.88-10.88,10.88s4.88,10.88,10.88,10.88,10.88-4.88,10.88-10.88-4.88-10.88-10.88-10.88Z"/><path class="c" d="M197.27,780.26c-6.55,0-11.88-5.33-11.88-11.88s5.33-11.88,11.88-11.88,11.88,5.33,11.88,11.88-5.33,11.88-11.88,11.88Zm0-22.76c-6,0-10.88,4.88-10.88,10.88s4.88,10.88,10.88,10.88,10.88-4.88,10.88-10.88-4.88-10.88-10.88-10.88Z"/><path class="c" d="M311.08,780.26c-6.55,0-11.88-5.33-11.88-11.88s5.33-11.88,11.88-11.88,11.88,5.33,11.88,11.88-5.33,11.88-11.88,11.88Zm0-22.76c-6,0-10.88,4.88-10.88,10.88s4.88,10.88,10.88,10.88,10.88-4.88,10.88-10.88-4.88-10.88-10.88-10.88Z"/><path class="c" d="M311.08,894.07c-6.55,0-11.88-5.33-11.88-11.88s5.33-11.88,11.88-11.88,11.88,5.33,11.88,11.88-5.33,11.88-11.88,11.88Zm0-22.76c-6,0-10.88,4.88-10.88,10.88s4.88,10.88,10.88,10.88,10.88-4.88,10.88-10.88-4.88-10.88-10.88-10.88Z"/><path class="c" d="M424.89,894.07c-6.55,0-11.88-5.33-11.88-11.88s5.33-11.88,11.88-11.88,11.88,5.33,11.88,11.88-5.33,11.88-11.88,11.88Zm0-22.76c-6,0-10.88,4.88-10.88,10.88s4.88,10.88,10.88,10.88,10.88-4.88,10.88-10.88-4.88-10.88-10.88-10.88Z"/><path class="c" d="M424.89,894.07c-6.55,0-11.88-5.33-11.88-11.88s5.33-11.88,11.88-11.88,11.88,5.33,11.88,11.88-5.33,11.88-11.88,11.88Zm0-22.76c-6,0-10.88,4.88-10.88,10.88s4.88,10.88,10.88,10.88,10.88-4.88,10.88-10.88-4.88-10.88-10.88-10.88Z"/><path class="c" d="M311.08,894.07c-6.55,0-11.88-5.33-11.88-11.88s5.33-11.88,11.88-11.88,11.88,5.33,11.88,11.88-5.33,11.88-11.88,11.88Zm0-22.76c-6,0-10.88,4.88-10.88,10.88s4.88,10.88,10.88,10.88,10.88-4.88,10.88-10.88-4.88-10.88-10.88-10.88Z"/><path class="c" d="M197.27,666.44c-6.55,0-11.88-5.33-11.88-11.88s5.33-11.88,11.88-11.88,11.88,5.33,11.88,11.88-5.33,11.88-11.88,11.88Zm0-22.76c-6,0-10.88,4.88-10.88,10.88s4.88,10.88,10.88,10.88,10.88-4.88,10.88-10.88-4.88-10.88-10.88-10.88Z"/><path class="c" d="M197.27,780.26c-6.55,0-11.88-5.33-11.88-11.88s5.33-11.88,11.88-11.88,11.88,5.33,11.88,11.88-5.33,11.88-11.88,11.88Zm0-22.76c-6,0-10.88,4.88-10.88,10.88s4.88,10.88,10.88,10.88,10.88-4.88,10.88-10.88-4.88-10.88-10.88-10.88Z"/><path class="c" d="M197.27,666.44c-6.55,0-11.88-5.33-11.88-11.88s5.33-11.88,11.88-11.88,11.88,5.33,11.88,11.88-5.33,11.88-11.88,11.88Zm0-22.76c-6,0-10.88,4.88-10.88,10.88s4.88,10.88,10.88,10.88,10.88-4.88,10.88-10.88-4.88-10.88-10.88-10.88Z"/><path class="c" d="M311.08,666.44c-6.55,0-11.88-5.33-11.88-11.88s5.33-11.88,11.88-11.88,11.88,5.33,11.88,11.88-5.33,11.88-11.88,11.88Zm0-22.76c-6,0-10.88,4.88-10.88,10.88s4.88,10.88,10.88,10.88,10.88-4.88,10.88-10.88-4.88-10.88-10.88-10.88Z"/><path class="c" d="M197.27,666.44c-6.55,0-11.88-5.33-11.88-11.88s5.33-11.88,11.88-11.88,11.88,5.33,11.88,11.88-5.33,11.88-11.88,11.88Zm0-22.76c-6,0-10.88,4.88-10.88,10.88s4.88,10.88,10.88,10.88,10.88-4.88,10.88-10.88-4.88-10.88-10.88-10.88Z"/><path class="c" d="M424.89,894.07c-6.55,0-11.88-5.33-11.88-11.88s5.33-11.88,11.88-11.88,11.88,5.33,11.88,11.88-5.33,11.88-11.88,11.88Zm0-22.76c-6,0-10.88,4.88-10.88,10.88s4.88,10.88,10.88,10.88,10.88-4.88,10.88-10.88-4.88-10.88-10.88-10.88Z"/><path class="c" d="M709.92,643.87l-29.13-27.49c-.33-.24-2.62-1.95-5.42-5.12-2.95-3.34-5.39-7.09-7.26-11.14-2.8-6.04-4.22-12.6-4.22-19.51,0-11.38,3.75-20.27,10.57-25.05l.25-.18,.27,.14c26.27,13.87,50.18,31.75,71.06,53.13l.31,.31-.27,.35c-.55,.69-1.08,1.33-1.6,1.92-2.5,2.84-4.59,4.5-5.26,5.01v.25h-.31l-28.99,27.38Zm-28.3-28.09l28.3,26.71,28.3-26.72v-.04l.32-.23c.51-.38,2.65-2.04,5.19-4.93,.42-.47,.85-.99,1.29-1.54-20.66-21.09-44.29-38.75-70.23-52.49-6.39,4.62-9.9,13.15-9.9,24.05,0,6.76,1.39,13.19,4.12,19.09,1.83,3.96,4.21,7.63,7.1,10.9,2.55,2.89,4.65,4.52,5.16,4.9h.34v.29Z"/><path class="c" d="M958.29,643.68h-41.51l.81-.85c3.01-3.13,5.61-6.15,7.73-8.96l.15-.2h24.12l.15,.2c2.12,2.82,4.72,5.83,7.73,8.96l.81,.85Zm-39.17-1h36.83c-2.63-2.78-4.93-5.47-6.85-8.01h-23.12c-1.92,2.54-4.22,5.23-6.85,8.01Z"/><path class="c" d="M824.2,643.68h-.96l-.15-.23c-1.95-3.05-3.98-6.07-6.03-8.99l-.55-.79h14.42l-.55,.79c-2.05,2.92-4.08,5.94-6.03,8.99l-.15,.23Zm-5.76-9.01c1.8,2.58,3.57,5.23,5.29,7.9,1.71-2.67,3.49-5.33,5.29-7.9h-10.57Z"/><path class="c" d="M823.98,757.93l-29.13-27.5c-.44-.32-2.7-2.03-5.42-5.12-2.95-3.34-5.39-7.09-7.26-11.14-2.8-6.05-4.21-12.62-4.21-19.51,0-17.87,9.2-28.97,24.01-28.97,9.62,0,15.77,6.52,19.23,12,1.38,2.18,2.29,4.12,2.79,5.3,.5-1.18,1.41-3.12,2.79-5.3,3.46-5.47,9.61-11.99,19.23-11.99,14.81,0,24.01,11.1,24.01,28.97,0,6.9-1.42,13.46-4.21,19.52-1.87,4.04-4.3,7.78-7.24,11.11-2.66,3.02-4.85,4.71-5.45,5.16h0l-29.11,27.48Zm-22.02-91.24c-14.19,0-23.01,10.72-23.01,27.97,0,6.75,1.39,13.17,4.12,19.09,1.83,3.96,4.22,7.63,7.1,10.9,2.87,3.26,5.19,4.92,5.29,4.99l28.52,26.91,28.64-27c.64-.48,2.73-2.14,5.18-4.93,2.87-3.26,5.25-6.92,7.08-10.87,2.74-5.92,4.12-12.34,4.12-19.1,0-17.25-8.82-27.97-23.01-27.97-9.17,0-15.06,6.27-18.39,11.53-2.16,3.41-3.15,6.27-3.16,6.3l-.47,1.38-.47-1.38s-1.01-2.9-3.16-6.3c-3.33-5.26-9.22-11.53-18.39-11.53Z"/><path class="c" d="M938.27,757.74h-.96l-.15-.23c-10.64-16.61-23.01-31.83-36.77-45.23l-.15-.15v-.83l.15-.15c13.76-13.4,26.13-28.62,36.77-45.23l.15-.23h.96l.15,.23c10.64,16.61,23.01,31.83,36.77,45.23l.15,.15v.83l-.15,.15c-13.76,13.4-26.13,28.62-36.77,45.23l-.15,.23Zm-37.02-46.02c13.66,13.33,25.95,28.44,36.54,44.92,10.59-16.48,22.89-31.59,36.54-44.92-13.66-13.32-25.95-28.43-36.54-44.92-10.59,16.48-22.88,31.59-36.54,44.92Z"/><path class="c" d="M732.02,871.8h-41.51l.81-.85c5.54-5.77,9.57-10.96,12-15.46-4.4,2.07-9.14,3.25-13.22,3.25-11.94,0-21.65-9.72-21.65-21.66,0-3.21,.69-6.31,2.05-9.19l.1-.14,10.32-10.28c2.87-1.36,5.96-2.05,9.18-2.05,1.03,0,2.12,.08,3.25,.23-1.22-2.4-2.19-4.96-2.83-7.47l-.07-.28,27.2-27.19,.29,.09c8.96,2.89,14.99,11.17,14.99,20.61,0,4.43-1.35,9.57-3.74,14.24,1.12-.15,2.21-.23,3.24-.23,11.94,0,21.66,9.72,21.66,21.66s-9.72,21.66-21.66,21.66c-4.07,0-8.82-1.17-13.21-3.25,2.44,4.51,6.46,9.7,11.99,15.46l.81,.85Zm-39.17-1h36.83c-5.73-6.07-9.78-11.52-12.05-16.21l-.66-1.36,1.34,.7c4.63,2.42,9.77,3.81,14.12,3.81,11.39,0,20.66-9.27,20.66-20.66s-9.27-20.66-20.66-20.66c-1.27,0-2.63,.12-4.06,.36l-1.01,.17,.49-.9c2.59-4.76,4.08-10.09,4.08-14.64,0-8.9-5.61-16.72-14-19.56l-26.36,26.35c.7,2.66,1.78,5.36,3.13,7.85l.49,.9-1.01-.17c-1.42-.24-2.79-.36-4.07-.36-3.05,0-5.97,.64-8.68,1.92l-10.06,10.06c-1.27,2.73-1.92,5.65-1.92,8.69,0,11.39,9.26,20.66,20.65,20.66,4.35,0,9.5-1.39,14.13-3.81l1.34-.7-.66,1.36c-2.26,4.68-6.32,10.13-12.06,16.21Z"/><path class="c" d="M597.71,986.05l-29.11-27.48c-.62-.45-2.8-2.14-5.45-5.15-2.82-3.18-5.19-6.78-7.06-10.7l-.15-.32,.25-.25,37.8-37.8,.93,1.44c1.38,2.18,2.29,4.12,2.79,5.31,.5-1.18,1.41-3.13,2.79-5.31,3.46-5.47,9.61-11.99,19.23-11.99,14.8,0,24,11.1,24,28.97,0,6.91-1.42,13.47-4.22,19.51-1.87,4.05-4.3,7.79-7.24,11.12-1.23,1.4-2.5,2.67-3.76,3.79-.42,.36-1.04,.89-1.67,1.36l-29.12,27.5Zm-28.64-28.38h.03l.15,.14,28.46,26.87,28.46-26.87c.68-.5,1.28-1.01,1.68-1.36,1.24-1.09,2.47-2.33,3.67-3.69,2.87-3.26,5.26-6.92,7.08-10.88,2.74-5.91,4.12-12.33,4.12-19.09,0-17.25-8.81-27.97-23-27.97-9.17,0-15.06,6.27-18.39,11.53-2.15,3.4-3.15,6.28-3.16,6.31l-.47,1.37-.47-1.37s-1.01-2.9-3.16-6.31l-.25-.39-36.67,36.67c1.8,3.71,4.07,7.12,6.75,10.15,2.43,2.76,4.44,4.37,5.16,4.91Z"/><path class="c" d="M712,985.86h-.96l-.15-.23c-10.64-16.61-23.02-31.83-36.77-45.23l-.15-.15v-.83l.15-.15c13.76-13.4,26.13-28.62,36.77-45.23l.15-.23h.96l.15,.23c10.64,16.61,23.01,31.83,36.77,45.23l.15,.15v.83l-.15,.15c-13.76,13.4-26.13,28.62-36.77,45.23l-.15,.23Zm-37.02-46.02c13.65,13.32,25.95,28.43,36.54,44.92,10.59-16.48,22.88-31.59,36.54-44.92-13.66-13.33-25.95-28.44-36.54-44.92-10.6,16.49-22.89,31.6-36.54,44.92Z"/><path class="c" d="M766.82,666.44c-6.55,0-11.88-5.33-11.88-11.88s5.33-11.88,11.88-11.88,11.88,5.33,11.88,11.88-5.33,11.88-11.88,11.88Zm0-22.76c-6,0-10.88,4.88-10.88,10.88s4.88,10.88,10.88,10.88,10.88-4.88,10.88-10.88-4.88-10.88-10.88-10.88Z"/><path class="c" d="M880.63,666.44c-6.55,0-11.88-5.33-11.88-11.88s5.33-11.88,11.88-11.88,11.88,5.33,11.88,11.88-5.33,11.88-11.88,11.88Zm0-22.76c-6,0-10.88,4.88-10.88,10.88s4.88,10.88,10.88,10.88,10.88-4.88,10.88-10.88-4.88-10.88-10.88-10.88Z"/><path class="c" d="M766.82,780.26c-6.55,0-11.88-5.33-11.88-11.88s5.33-11.88,11.88-11.88,11.88,5.33,11.88,11.88-5.33,11.88-11.88,11.88Zm0-22.76c-6,0-10.88,4.88-10.88,10.88s4.88,10.88,10.88,10.88,10.88-4.88,10.88-10.88-4.88-10.88-10.88-10.88Z"/><path class="c" d="M880.63,780.26c-6.55,0-11.88-5.33-11.88-11.88s5.33-11.88,11.88-11.88,11.88,5.33,11.88,11.88-5.33,11.88-11.88,11.88Zm0-22.76c-6,0-10.88,4.88-10.88,10.88s4.88,10.88,10.88,10.88,10.88-4.88,10.88-10.88-4.88-10.88-10.88-10.88Z"/><path class="c" d="M653.01,894.07c-6.55,0-11.88-5.33-11.88-11.88s5.33-11.88,11.88-11.88,11.88,5.33,11.88,11.88-5.33,11.88-11.88,11.88Zm0-22.76c-6,0-10.88,4.88-10.88,10.88s4.88,10.88,10.88,10.88,10.88-4.88,10.88-10.88-4.88-10.88-10.88-10.88Z"/><path class="c" d="M766.82,894.07c-6.55,0-11.88-5.33-11.88-11.88s5.33-11.88,11.88-11.88,11.88,5.33,11.88,11.88-5.33,11.88-11.88,11.88Zm0-22.76c-6,0-10.88,4.88-10.88,10.88s4.88,10.88,10.88,10.88,10.88-4.88,10.88-10.88-4.88-10.88-10.88-10.88Z"/><path class="c" d="M880.63,666.44c-6.55,0-11.88-5.33-11.88-11.88s5.33-11.88,11.88-11.88,11.88,5.33,11.88,11.88-5.33,11.88-11.88,11.88Zm0-22.76c-6,0-10.88,4.88-10.88,10.88s4.88,10.88,10.88,10.88,10.88-4.88,10.88-10.88-4.88-10.88-10.88-10.88Z"/><path class="c" d="M880.63,780.26c-6.55,0-11.88-5.33-11.88-11.88s5.33-11.88,11.88-11.88,11.88,5.33,11.88,11.88-5.33,11.88-11.88,11.88Zm0-22.76c-6,0-10.88,4.88-10.88,10.88s4.88,10.88,10.88,10.88,10.88-4.88,10.88-10.88-4.88-10.88-10.88-10.88Z"/><path class="c" d="M653.01,894.07c-6.55,0-11.88-5.33-11.88-11.88s5.33-11.88,11.88-11.88,11.88,5.33,11.88,11.88-5.33,11.88-11.88,11.88Zm0-22.76c-6,0-10.88,4.88-10.88,10.88s4.88,10.88,10.88,10.88,10.88-4.88,10.88-10.88-4.88-10.88-10.88-10.88Z"/><path class="c" d="M766.82,894.07c-6.55,0-11.88-5.33-11.88-11.88s5.33-11.88,11.88-11.88,11.88,5.33,11.88,11.88-5.33,11.88-11.88,11.88Zm0-22.76c-6,0-10.88,4.88-10.88,10.88s4.88,10.88,10.88,10.88,10.88-4.88,10.88-10.88-4.88-10.88-10.88-10.88Z"/><path class="c" d="M653.01,552.63c-6.48,0-11.69-5.06-11.87-11.53l-.02-.74,.7,.26c6.44,2.41,12.9,5.1,19.17,7.99l.68,.31-.54,.51c-2.2,2.06-5.08,3.19-8.11,3.19Zm-10.82-10.8c.53,5.55,5.15,9.8,10.82,9.8,2.52,0,4.93-.86,6.86-2.43-5.8-2.65-11.74-5.13-17.68-7.37Z"/><path class="c" d="M766.82,666.44c-6.55,0-11.88-5.33-11.88-11.88s5.33-11.88,11.88-11.88,11.88,5.33,11.88,11.88-5.33,11.88-11.88,11.88Zm0-22.76c-6,0-10.88,4.88-10.88,10.88s4.88,10.88,10.88,10.88,10.88-4.88,10.88-10.88-4.88-10.88-10.88-10.88Z"/><path class="c" d="M880.63,666.44c-6.55,0-11.88-5.33-11.88-11.88s5.33-11.88,11.88-11.88,11.88,5.33,11.88,11.88-5.33,11.88-11.88,11.88Zm0-22.76c-6,0-10.88,4.88-10.88,10.88s4.88,10.88,10.88,10.88,10.88-4.88,10.88-10.88-4.88-10.88-10.88-10.88Z"/><path class="c" d="M880.63,666.44c-6.55,0-11.88-5.33-11.88-11.88s5.33-11.88,11.88-11.88,11.88,5.33,11.88,11.88-5.33,11.88-11.88,11.88Zm0-22.76c-6,0-10.88,4.88-10.88,10.88s4.88,10.88,10.88,10.88,10.88-4.88,10.88-10.88-4.88-10.88-10.88-10.88Z"/><path class="c" d="M653.01,552.63c-6.48,0-11.69-5.06-11.87-11.53l-.02-.74,.7,.26c6.44,2.41,12.9,5.1,19.17,7.99l.68,.31-.54,.51c-2.2,2.06-5.08,3.19-8.11,3.19Zm-10.82-10.8c.53,5.55,5.15,9.8,10.82,9.8,2.52,0,4.93-.86,6.86-2.43-5.8-2.65-11.74-5.13-17.68-7.37Z"/><path class="c" d="M653.01,894.07c-6.55,0-11.88-5.33-11.88-11.88s5.33-11.88,11.88-11.88,11.88,5.33,11.88,11.88-5.33,11.88-11.88,11.88Zm0-22.76c-6,0-10.88,4.88-10.88,10.88s4.88,10.88,10.88,10.88,10.88-4.88,10.88-10.88-4.88-10.88-10.88-10.88Z"/></g><g><path class="c" d="M403.62,268.3c-.4,.5-.8,.97-1.19,1.41-2.9,3.29-5.25,4.99-5.39,5.09,0,0-.01,0-.01,0l-14.5,13.68c5.85-7.85,12.98-14.68,21.09-20.19Z"/><path class="c" d="M384.25,290.31l-3.72-3.31c6.04-8.1,13.34-15.09,21.69-20.76l13.68-9.3-10.33,12.93c-.43,.53-.85,1.04-1.27,1.51-1.97,2.23-3.71,3.78-4.76,4.65v1.28h-1.51l-13.78,13.01Z"/></g><path class="b" d="M922.8,116.25c-18.13,0-29.67,12.26-36.01,22.08-4.23,6.56-6.14,12.02-6.14,12.02,0,0-1.91-5.46-6.14-12.02-6.33-9.82-17.88-22.08-36.01-22.08-30.23,0-45,23.2-45,53.44,0,14.43,3.4,26.5,7.98,36.23,4.16,8.83,9.29,15.73,13.74,20.68,5.47,6.09,9.92,9.27,10.28,9.52,.01,0,.02,.01,.02,.01l55.13,51.03,55.14-51.03s0,0,.01,0c.27-.2,4.77-3.38,10.32-9.56,4.45-4.95,9.56-11.83,13.71-20.64,4.59-9.73,7.98-21.81,7.98-36.24,0-30.24-14.77-53.44-45-53.44Z"/><path class="c" d="M925.25,862.44c-2.82,0-5.75,.27-8.74,.77,5.48-10.06,8.73-21.44,8.73-31.37,0-24.63-19.97-44.6-44.6-44.6s-44.6,19.97-44.6,44.6c0,9.93,3.25,21.31,8.73,31.37-2.99-.5-5.92-.77-8.74-.77-24.63,0-44.6,19.97-44.6,44.6s19.97,44.6,44.6,44.6c9.56,0,20.48-3.02,30.26-8.15-4.33,8.93-12.45,20.61-26.93,35.69h82.54c-14.48-15.07-22.6-26.75-26.93-35.69,9.78,5.13,20.7,8.15,30.26,8.15,24.63,0,44.6-19.97,44.6-44.6s-19.97-44.6-44.6-44.6Z"/><path class="c" d="M277.08,199.59c0-11.81-3.15-21.7-7.4-29.67-3.86-7.23-8.61-12.87-12.75-16.93-5.07-4.99-9.2-7.59-9.54-7.79-.01,0-.02-.01-.02-.01l-51.13-41.78-51.13,41.78s0,0-.01,0c-.25,.16-4.42,2.77-9.57,7.83-4.13,4.06-8.87,9.69-12.72,16.9-4.25,7.97-7.4,17.85-7.4,29.67,0,24.76,13.69,43.75,41.74,43.75,10.97,0,19.34-4.28,25.47-9.48-4.12,9.12-12.33,21.27-27.65,37.21h82.54c-15.32-15.95-23.52-28.1-27.65-37.21,6.12,5.2,14.49,9.48,25.47,9.48,28.04,0,41.74-19,41.74-43.75Z"/><path class="b" d="M278.35,882.78c-31.02-28.74-58.15-60.64-81.64-95.53h-.91c-23.49,34.89-50.63,66.8-81.64,95.53v.86c31.02,28.74,58.15,60.64,81.64,95.53h.91c23.49-34.89,50.63-66.8,81.64-95.53v-.86Z"/><path class="c" d="M540.4,757.61l-.83-.08c-.3-.03-.58-.03-.9-.04-.12,0-.23,0-.34,0l-.81,.06,.31-.75c.43-1.03,.65-1.62,.65-1.62l.47-1.26,.47,1.27s.22,.6,.66,1.65l.32,.77Zm252.98-181.9h-2.25l42.79-99.59h.76l.14,.13c.11,.1,.22,.2,.34,.3l.6,.53-42.38,98.63Zm-.73-1h.07l41.84-97.36-.05-.04h0l-41.85,97.41Zm-511.46-15.97h-1.84l-35.15-81.55,.58-.5c.11-.1,.21-.19,.32-.29l.52-.44,33,76.79h0l2.57,6Zm103.28-13.14c-9.83,0-18.33-3.41-22.02-12l-28.06-65.45c-6.94-16.19-12.03-16.42-16.53-16.63l-.9-.04-1.07-2.51,36.08-15.46,1.07,2.51-.59,.68c-1.72,1.98-3.48,4-3.48,8.27,0,1.97,.38,4.42,1.32,7.57,.65,2.21,1.6,4.76,2.81,7.6l28.32,66.08c.59,1.38,1.43,2.57,2.48,3.54,4.61,4.26,13.74,4.38,23.27,.3,9.2-3.95,17.04-11.32,17.05-19.05,0-1.52-.3-3.04-.95-4.56l-27.66-64.52c-6.94-16.19-12.03-16.42-16.53-16.63l-.9-.04-1.08-2.51,27.95-11.97,1.07,2.51-.59,.68c-1.66,1.91-3.45,3.97-3.46,8.3,0,3.35,1.07,8.07,4.1,15.13l28.06,65.45c1.02,2.37,1.52,4.8,1.52,7.25,0,6.61-3.65,13.4-10.72,19.67-3.03,2.7-6.57,5.18-10.54,7.38-2.03,1.14-4.21,2.22-6.5,3.2-7.56,3.24-15.93,5.27-23.52,5.27Zm-66.83-95.09h.27c4.79,.23,10.21,.48,17.4,17.25l28.06,65.45c6.26,14.6,27.31,13.45,44.22,6.21,2.26-.97,4.41-2.03,6.41-3.16,3.91-2.17,7.39-4.61,10.36-7.26,6.84-6.07,10.38-12.61,10.38-18.95,0-2.32-.47-4.6-1.43-6.83l-28.06-65.45c-3.1-7.22-4.2-12.09-4.2-15.59h0c0-4.62,1.93-6.84,3.72-8.9l.18-.2-.43-1.01-26.11,11.19,.44,1.01h.27c4.79,.23,10.21,.48,17.4,17.25l27.66,64.52c.71,1.65,1.03,3.3,1.03,4.94,0,8.17-8.11,15.89-17.66,19.99-9.89,4.24-19.45,4.05-24.35-.48-1.15-1.07-2.07-2.37-2.72-3.88l-28.32-66.08c-1.23-2.87-2.19-5.46-2.85-7.71-.96-3.23-1.35-5.79-1.35-7.86,0-4.64,1.94-6.88,3.72-8.92l.18-.21-.43-1.01-34.24,14.68,.43,1.01Zm373.43,95.08l-35.19-17.72,1.22-2.43h.89c4.5,.08,9.61,.17,17.54-15.56l39.34-78.13-.88-.44c-12.73-6.42-30.45,2.84-49.88,26.08l-.25,.3-3.4-1.71,29.07-44.8,8.82,4.44,66.73,33.62-.16,.42-18.54,49.6-3.4-1.71,.09-.39c.78-3.21,1.46-6.4,2.01-9.49,.31-1.74,.59-3.57,.85-5.45,.61-4.5,.91-8.68,.91-12.52,0-14.37-4.24-24-12.49-28.15l-1.16-.59-39.36,78.13c-3.78,7.5-5.05,12.34-5.05,15.75,0,3.74,1.53,5.74,2.97,7.61l.54,.71-1.23,2.42Zm-33.85-18.16l33.41,16.82,.49-.98-.16-.21c-1.54-2.01-3.2-4.17-3.19-8.17,0-3.56,1.31-8.57,5.18-16.24l4.01-7.96c-4.13-5.3-8.49-10.46-12.98-15.35l-7.55,14.99c-8.21,16.29-13.65,16.19-18.44,16.12h-.27l-.5,.98Zm27.23-33.04c4.49,4.87,8.86,10.02,13,15.31l35.3-70.08,2.06,1.03c8.61,4.33,13.03,14.28,13.04,29.07,0,3.88-.3,8.1-.92,12.64-.26,1.89-.54,3.74-.85,5.49-.54,2.99-1.19,6.07-1.93,9.16l1.7,.85,17.99-48.14-73.95-37.26-27.97,43.12,1.7,.85c19.95-23.75,37.53-32.75,50.84-26.03l1.78,.89-4.05,8.03-27.72,55.06Zm-68.44,20.41l-29.97-6.07,.47-2.2,.74-.18c3.34-.82,7.12-1.74,9.9-14.64l11.01-51.19c.77-3.59,1.09-6.36,1.09-8.53,0-5.63-2.15-7.24-4.11-8.71l-.61-.46,.48-2.2,29.97,6.07-.49,2.21-.75,.19c-3.06,.75-6.23,1.53-8.85,10.53-.35,1.19-.69,2.53-1.02,4.1l-11.02,51.19c-.77,3.58-1.09,6.35-1.09,8.52,0,5.62,2.15,7.24,4.11,8.71l.62,.47-.47,2.2Zm-28.78-6.85l28.01,5.67,.13-.61-.11-.08c-2.15-1.62-4.51-3.39-4.51-9.46,0-2.26,.33-5.12,1.12-8.78l11.02-51.19c.34-1.59,.68-2.95,1.04-4.17,2.78-9.56,6.39-10.44,9.58-11.22l.14-.04,.13-.61-28.01-5.67-.13,.62,.1,.07c2.16,1.62,4.52,3.39,4.52,9.46,0,2.26-.33,5.12-1.12,8.79l-.48,2.25-10.53,48.94c-2.91,13.51-7.02,14.52-10.64,15.4l-.13,.03-.13,.6Zm-114.51,3.98l-.2-2.72,.78-.45c3.42-1.98,7.25-4.19,7.25-16.63,0-1.71-.07-3.62-.23-5.75l-5.12-69.34c-.24-3.15-.57-5.79-1.01-8.06-1.97-10.17-5.66-11.63-9.23-13.04l-.83-.33-.2-2.72,28.66-2.11,42.96,83.75-4.55-61.61c-1.3-17.57-6.05-19.44-10.23-21.1l-.83-.33-.2-2.72,30.31-2.23,.21,2.72-.77,.45c-3.43,1.98-7.26,4.18-7.25,16.6,0,1.72,.07,3.63,.23,5.77l5.12,69.34c1.29,17.57,6.04,19.44,10.22,21.1l.83,.33,.2,2.72-28.95,2.14-4.29-8.29-38.25-73.82,4.43,59.95c1.29,17.57,6.03,19.44,10.22,21.09l.84,.33,.2,2.72-30.32,2.24Zm.84-2.17l.08,1.1,28.32-2.1-.08-1.1-.25-.1c-4.46-1.76-9.51-3.76-10.85-21.95l-4.79-64.81,44.48,85.86,27.29-2.02-.08-1.1-.25-.1c-4.46-1.76-9.51-3.76-10.85-21.95l-5.12-69.34c-.16-2.17-.24-4.12-.23-5.87,0-12.97,4.09-15.33,7.75-17.44l.23-.13-.09-1.1-28.33,2.09,.08,1.1,.25,.1c4.46,1.76,9.52,3.76,10.86,21.95l4.91,66.53-44.9-87.55-27,1.99,.08,1.1,.25,.1c3.64,1.44,7.77,3.07,9.84,13.78,.45,2.31,.79,4.99,1.03,8.18l5.12,69.34c.16,2.15,.23,4.08,.23,5.83,0,13.01-4.09,15.37-7.75,17.49l-.23,.14Zm147.92-92.24l-.68-.13-.1-.25c-2.71-6.77-6.15-13.15-10.23-18.97l-.12-.18,.11-.57,.18-.11c6.04-3.8,11.68-8.34,16.79-13.51l.19-.19,.69,.13,.1,.25c2.7,6.75,6.14,13.13,10.23,18.98l.13,.18-.12,.56-.18,.11c-6.04,3.79-11.69,8.34-16.8,13.51l-.19,.19Zm-9.95-19.59c3.9,5.62,7.22,11.76,9.87,18.26,4.95-4.94,10.39-9.31,16.19-12.99-3.91-5.65-7.23-11.79-9.87-18.27-4.95,4.94-10.39,9.31-16.19,13Zm-234.98-.75l-.22-.42c-.12-.24-.23-.47-.33-.69l-.93-2.05,1.71,1.46c.2,.17,.42,.35,.64,.52l.81,.63-.99,.25c-.09,.02-.17,.06-.25,.1l-.43,.2Zm136.44-126.82l-1.33-.69c-1.1-.57-2.19-1.13-3.3-1.68l-.59-.29,.44-.49c.52-.58,1.06-1.17,1.6-1.74l.48-.51,.33,.62c.61,1.15,1.17,2.27,1.73,3.43l.65,1.35Zm-3.6-2.97c.46,.23,.92,.46,1.38,.7-.24-.47-.48-.94-.72-1.42-.22,.24-.44,.48-.66,.72Z"/><path class="c" d="M940.79,1008.38H139.21c-37.27,0-67.59-30.32-67.59-67.59V139.21c0-37.27,30.32-67.59,67.59-67.59H940.79c37.27,0,67.59,30.32,67.59,67.59V940.79c0,37.27-30.32,67.59-67.59,67.59ZM76.62,636.67v304.12c0,34.51,28.08,62.59,62.59,62.59H940.79c34.51,0,62.59-28.08,62.59-62.59v-304.12h-235.66c-.84,0-1.62-.42-2.09-1.12-.03-.05-.07-.11-.1-.16-.24-.16-.45-.36-.62-.6-.02-.02-.04-.05-.06-.07-6.55-8.37-13.59-16.43-20.95-23.96-20.66-21.16-44.32-38.85-70.32-52.58-4.58-2.41-9.24-4.71-13.85-6.83-6.21-2.86-12.6-5.52-18.97-7.91-13.66-5.11-27.82-9.2-42.09-12.17-.04,0-.07-.01-.11-.02-1.15-.25-2.3-.47-3.45-.69-30.89-6.02-62.38-6.93-93.6-2.72-8.69,1.17-17.4,2.75-25.88,4.71-13.1,3-26.06,6.96-38.53,11.76-6.19,2.38-12.29,4.97-18.12,7.7-12.6,5.87-24.9,12.76-36.57,20.5-15.12,10.02-29.4,21.63-42.46,34.51-8.91,8.8-17.34,18.28-25.05,28.19-.04,.05-.07,.09-.11,.14-.12,.15-.26,.28-.41,.39-.47,.6-1.19,.95-1.96,.95H76.62Zm688.42-1.75h0Zm-.24-.31h0Zm6.72-2.94h231.48v-152.55h-165.93l-65.55,152.55Zm-694.77,0h231.87l-14.33-33.25s-.04-.09-.05-.13l-33.49-77.66s-.04-.09-.05-.13l-17.83-41.38H76.75v152.55Zm171.7-154.21l65.06,151.43c7.14-8.91,14.84-17.45,22.93-25.44,13.29-13.11,27.82-24.92,43.21-35.12,11.88-7.87,24.4-14.89,37.22-20.86,5.93-2.78,12.14-5.42,18.44-7.84,12.69-4.88,25.88-8.91,39.21-11.96,8.63-1.99,17.49-3.6,26.33-4.79,31.77-4.29,63.8-3.36,95.21,2.76,1.15,.22,2.31,.44,3.47,.69,.03,0,.06,0,.08,.02,14.55,3.02,28.98,7.19,42.91,12.4,6.49,2.43,12.99,5.14,19.31,8.05,4.69,2.15,9.43,4.49,14.09,6.95,26.46,13.97,50.54,31.97,71.56,53.51,6.55,6.71,12.87,13.84,18.81,21.22l23.31-54.25c.03-.07,.06-.13,.09-.19l37.28-86.78c.03-.07,.06-.13,.09-.19l4.26-9.92c-8.79-7.7-18-15.13-27.38-22.09-9.26-6.88-18.99-13.52-28.93-19.74-6.34-3.97-12.89-7.84-19.48-11.49-11.57-6.43-23.61-12.41-35.79-17.78-.05-.02-.1-.05-.15-.07-16.5-7.29-33.71-13.64-51.14-18.87-12.67-3.8-25.67-7.08-38.63-9.73-21.54-4.42-43.63-7.26-65.64-8.44-12.67-.68-25.44-.82-37.96-.43-27.82,.86-55.69,4.33-82.84,10.34-10.28,2.28-20.54,4.93-30.48,7.9-11.75,3.48-23.48,7.51-34.85,11.96-.06,.02-.12,.05-.19,.07-.05,.02-.12,.05-.16,.07-6.87,2.68-13.86,5.62-20.78,8.75-11.61,5.25-23.08,11.04-34.08,17.22-6.5,3.64-12.97,7.49-19.23,11.45-11.37,7.17-22.54,14.96-33.2,23.16-7.43,5.7-14.81,11.77-21.96,18.04Zm586.99-3.34h167.93V139.21c0-34.51-28.08-62.59-62.59-62.59H139.21c-34.51,0-62.59,28.08-62.59,62.59V474.12H244.69c7.38-6.5,15.01-12.77,22.68-18.66,10.78-8.29,22.08-16.17,33.58-23.42,6.33-4,12.88-7.9,19.45-11.59,11.12-6.25,22.72-12.11,34.46-17.42,6.97-3.15,14.02-6.12,20.96-8.83,.12-.05,.29-.13,.5-.19,11.47-4.49,23.3-8.55,35.15-12.06,10.05-2.99,20.42-5.68,30.82-7.98,27.45-6.07,55.63-9.59,83.76-10.46,12.65-.4,25.57-.25,38.38,.43,22.26,1.2,44.6,4.07,66.38,8.54,13.11,2.68,26.25,5.99,39.07,9.83,17.65,5.3,35.08,11.73,51.79,19.12,.08,.03,.16,.07,.24,.11,12.27,5.41,24.39,11.44,36.05,17.91,6.66,3.7,13.29,7.61,19.7,11.63,10.05,6.28,19.89,13,29.25,19.96,9.79,7.26,19.38,15.02,28.53,23.08Zm-457.7-75.32h0Zm0,0h0Zm162.24,562.76c-.64,0-1.28-.24-1.77-.73l-237.52-237.52c-.98-.98-.98-2.56,0-3.54l172.36-172.36c.33-.33,.76-.57,1.22-.67,17.33-3.89,35.18-6.22,53.04-6.92,7.59-.3,15.24-.31,22.74-.02,18.96,.71,37.9,3.26,56.29,7.57,.45,.11,.87,.34,1.2,.67l171.73,171.73c.98,.98,.98,2.56,0,3.54l-59.73,59.74h0l-46.83,46.82-130.96,130.96c-.49,.49-1.13,.73-1.77,.73Zm-233.99-240.02l233.99,233.98,149.24-149.24,84.74-84.74-169.46-169.46c-17.86-4.15-36.24-6.6-54.64-7.28-7.38-.29-14.9-.28-22.36,.02-17.32,.68-34.62,2.91-51.44,6.64l-170.08,170.08Zm67.58-341.26c-.94,0-1.84-.53-2.26-1.43-5.66-12-8.53-24.87-8.53-38.26,0-4.58,.35-9.2,1.05-13.72h0c2.19-14.37,7.96-28.15,16.68-39.88,.09-.12,.18-.23,.29-.33l14.5-13.68,.04-.03c.07-.07,.15-.13,.23-.19,.09-.06,2.25-1.63,4.97-4.71,.37-.41,.74-.85,1.11-1.32,.16-.2,.34-.37,.55-.51,13.49-9.17,29.25-14.48,45.56-15.35,1.53-.09,3.17-.13,4.86-.13,16.69,0,35.57,4.55,53.54,12.85-7.25-13.13-17.76-27.7-31.31-43.4-5.35-6.19-11.23-12.64-17.5-19.15-.7-.72-.89-1.79-.5-2.71,.39-.92,1.3-1.52,2.3-1.52h161.67c1,0,1.91,.6,2.3,1.52,.39,.92,.2,1.99-.5,2.71-4.64,4.83-9.08,9.62-13.2,14.26-15.69,17.63-27.64,33.84-35.63,48.3,17.84-8.22,37-12.86,53.55-12.86,2.28,0,4.57,.08,6.8,.25,11.88,.9,23.27,4.08,33.84,9.45,11.35,5.76,21.56,14.07,29.54,24.05,1.01,1.24,2.03,2.59,3.02,3.99,2.79,3.91,5.28,8.08,7.41,12.39,3.71,7.51,6.35,15.51,7.83,23.77,.94,5.23,1.41,10.59,1.41,15.93,0,13.34-2.86,26.2-8.51,38.2-.56,1.2-1.96,1.75-3.19,1.26-10.13-4.05-20.52-7.76-30.87-11.03-18.65-5.91-37.85-10.61-57.08-13.97-12.09-2.14-24.47-3.79-36.8-4.9-17.71-1.62-35.7-2.19-53.47-1.67-30.25,.86-60.45,4.8-89.75,11.71-8.62,2.02-17.43,4.38-26.17,7.01-12.35,3.72-24.75,8.05-36.84,12.9-.3,.12-.62,.18-.93,.18Zm10.81-90.12c-8.16,11.03-13.56,23.98-15.61,37.47h0c-.66,4.27-.99,8.63-.99,12.96,0,11.85,2.38,23.27,7.08,33.99,11.53-4.54,23.3-8.63,35.04-12.16,8.84-2.66,17.75-5.05,26.47-7.09,29.62-6.99,60.16-10.98,90.75-11.85,17.98-.52,36.17,.05,54.07,1.69,12.47,1.13,24.99,2.8,37.22,4.96,19.44,3.4,38.86,8.16,57.72,14.13,9.72,3.07,19.46,6.52,29,10.27,4.69-10.72,7.06-22.12,7.06-33.94,0-5.05-.45-10.11-1.33-15.05-1.4-7.8-3.88-15.35-7.39-22.44-2.01-4.08-4.36-8.02-6.99-11.71-.94-1.32-1.9-2.59-2.85-3.76-7.54-9.43-17.19-17.28-27.91-22.72-9.98-5.08-20.73-8.08-31.95-8.93-2.1-.15-4.27-.23-6.43-.23-17.92,0-39.1,5.71-58.11,15.67-.95,.5-2.12,.33-2.9-.42-.78-.75-.98-1.91-.51-2.89,7.99-16.51,21.4-35.39,39.86-56.13,2.95-3.32,6.07-6.73,9.31-10.17h-150.01c4.83,5.13,9.41,10.2,13.65,15.12,14.97,17.34,26.33,33.4,33.76,47.71,.61,1.16,1.19,2.3,1.75,3.48,.47,.97,.26,2.13-.51,2.88-.77,.75-1.94,.92-2.89,.43-1.09-.56-2.17-1.12-3.27-1.66-18.33-9.04-37.81-14.02-54.85-14.02-1.59,0-3.14,.04-4.59,.13-15.29,.81-30.05,5.75-42.72,14.29-.35,.42-.69,.82-1.03,1.21-2.74,3.1-5.03,4.89-5.66,5.36l-14.24,13.43Z"/><path class="c" d="M276.66,544.89H71.75v-19.83h196.37l8.54,19.83Zm-199.91-5h192.31l-4.23-9.83H76.75v9.83Z"/><path class="c" d="M372.33,380.98l-1-2.13c-5.66-12-8.53-24.87-8.53-38.26,0-4.59,.35-9.2,1.05-13.72,2.19-14.36,7.96-28.15,16.67-39.87l.29-.33,13.73-12.95v-.21l.91-.65,.59-.56h.14c.84-.67,2.47-2.09,4.38-4.25,.37-.41,.74-.85,1.11-1.32l.24-.29,.31-.21c13.49-9.17,29.25-14.48,45.56-15.35,1.53-.09,3.17-.13,4.86-.13,16.69,0,35.57,4.55,53.54,12.85-7.25-13.13-17.76-27.7-31.31-43.4-5.35-6.19-11.23-12.64-17.5-19.15l-4.07-4.23h173.42l-4.07,4.23c-4.64,4.83-9.08,9.62-13.2,14.26-15.69,17.63-27.64,33.84-35.63,48.3,17.84-8.22,37-12.86,53.55-12.86,2.28,0,4.57,.08,6.8,.25,11.88,.9,23.27,4.08,33.84,9.45,11.35,5.76,21.56,14.07,29.54,24.05,1.01,1.24,2.03,2.59,3.02,3.99,2.79,3.91,5.28,8.08,7.41,12.39,3.71,7.51,6.35,15.51,7.83,23.77,.93,5.23,1.41,10.59,1.41,15.93,0,13.34-2.86,26.2-8.51,38.2l-1,2.13-2.19-.87c-10.13-4.05-20.52-7.76-30.87-11.03-18.65-5.91-37.85-10.61-57.08-13.97-12.09-2.14-24.47-3.79-36.8-4.9-17.71-1.62-35.7-2.19-53.47-1.67-30.25,.86-60.45,4.8-89.75,11.71-8.62,2.02-17.43,4.38-26.17,7.01-12.35,3.72-24.75,8.05-36.84,12.9l-2.19,.88Zm12.07-90.82c-8.16,11.03-13.56,23.98-15.61,37.47-.66,4.27-.99,8.63-.99,12.96,0,11.85,2.38,23.27,7.08,33.99,11.53-4.54,23.3-8.63,35.04-12.16,8.84-2.66,17.75-5.05,26.47-7.09,29.62-6.99,60.16-10.98,90.75-11.85,17.97-.52,36.16,.05,54.07,1.69,12.47,1.13,24.99,2.8,37.22,4.96,19.44,3.4,38.86,8.16,57.72,14.13,9.72,3.07,19.46,6.52,29,10.27,4.69-10.72,7.06-22.12,7.06-33.94,0-5.05-.45-10.11-1.33-15.05-1.4-7.8-3.88-15.35-7.39-22.44-2.01-4.08-4.36-8.02-6.99-11.71-.94-1.32-1.9-2.59-2.85-3.76-7.54-9.43-17.19-17.28-27.91-22.72-9.98-5.08-20.73-8.08-31.95-8.93-2.1-.15-4.27-.23-6.43-.23-17.92,0-39.1,5.71-58.11,15.67l-6.71,3.52,3.3-6.82c7.99-16.51,21.4-35.39,39.86-56.13,2.95-3.32,6.07-6.73,9.31-10.17h-150.01c4.83,5.13,9.41,10.2,13.65,15.12,14.97,17.34,26.33,33.4,33.76,47.71,.61,1.16,1.19,2.3,1.75,3.48l3.26,6.76-6.66-3.45c-1.09-.56-2.17-1.12-3.27-1.66-18.33-9.04-37.81-14.02-54.85-14.02-1.59,0-3.14,.04-4.59,.13-15.29,.81-30.05,5.75-42.72,14.29-.35,.42-.69,.83-1.03,1.21-1.97,2.23-3.71,3.78-4.76,4.65v1.28h-1.51l-13.62,12.86Z"/><path class="c" d="M1005.5,516.14h-185.99c-.84,0-1.63-.42-2.09-1.13-.46-.7-.54-1.59-.21-2.36l5.63-13.08c.39-.92,1.3-1.51,2.3-1.51h180.36c1.38,0,2.5,1.12,2.5,2.5v13.08c0,1.38-1.12,2.5-2.5,2.5Zm-182.19-5h179.69v-8.08h-176.21l-3.48,8.08Z"/><path class="c" d="M1005.5,530.06h-191.97c-.84,0-1.62-.42-2.09-1.12-.46-.7-.54-1.59-.21-2.36l5.98-13.92c.39-.92,1.3-1.51,2.3-1.51h185.99c1.38,0,2.5,1.12,2.5,2.5v13.92c0,1.38-1.12,2.5-2.5,2.5Zm-188.18-5h185.68v-8.92h-181.84l-3.83,8.92Z"/><path class="c" d="M1005.5,560.74h-205.15c-.84,0-1.62-.42-2.09-1.12-.46-.7-.54-1.59-.21-2.36l6.81-15.85c.39-.92,1.3-1.51,2.3-1.51h198.34c1.38,0,2.5,1.12,2.5,2.5v15.85c0,1.38-1.12,2.5-2.5,2.5Zm-201.36-5h198.86v-10.85h-194.19l-4.66,10.85Z"/><path class="c" d="M1005.5,577.71h-212.44c-.84,0-1.62-.42-2.09-1.12-.46-.7-.54-1.59-.21-2.36l7.29-16.97c.39-.92,1.3-1.51,2.3-1.51h205.15c1.38,0,2.5,1.12,2.5,2.5v16.97c0,1.38-1.12,2.5-2.5,2.5Zm-208.65-5h206.15v-11.97h-201l-5.14,11.97Z"/><g><path class="c" d="M835.17,477.21l-4.74,11.03-5.29,12.32-5.63,13.08-5.98,13.92-1.09,2.55-5.28,12.28-6.81,15.85-7.29,16.97-7.83,18.21-8.42,19.6-9.09,21.15h-.9v-1c.05,.05,.08,.09,.11,.14l8.72-20.29,8.42-19.6,7.82-18.21h.01l7.29-16.97,6.81-15.85,5.28-12.28,1.09-2.55,5.98-13.92,5.62-13.08,5.29-12.32h0l4.99-11.62h.24c.22,.2,.45,.39,.67,.59Z"/><path class="c" d="M767.72,636.67h-.9c-1.38,0-2.5-1.12-2.5-2.5v-1c0-.66,.26-1.27,.69-1.73l24.58-57.22c.03-.07,.06-.13,.09-.19l37.28-86.78c.03-.07,.06-.13,.09-.19l4.91-11.43c.39-.92,1.3-1.51,2.3-1.51h.24c.62,0,1.22,.23,1.68,.65l.3,.27c.12,.11,.24,.21,.36,.32,.79,.72,1.04,1.86,.62,2.84l-67.45,156.96c-.39,.92-1.3,1.51-2.3,1.51Z"/></g><path class="c" d="M1005.5,636.67h-237.78c-.84,0-1.62-.42-2.09-1.12s-.54-1.59-.21-2.36l9.09-21.15c.39-.92,1.3-1.51,2.3-1.51h228.69c1.38,0,2.5,1.12,2.5,2.5v21.15c0,1.38-1.12,2.5-2.5,2.5Zm-233.98-5h231.48v-16.15h-224.54l-6.94,16.15Z"/><path class="c" d="M1005.5,615.52h-228.69c-.84,0-1.62-.42-2.09-1.12-.46-.7-.54-1.59-.21-2.36l8.42-19.6c.39-.92,1.3-1.51,2.3-1.51h220.27c1.38,0,2.5,1.12,2.5,2.5v19.6c0,1.38-1.12,2.5-2.5,2.5Zm-224.9-5h222.4v-14.6h-216.12l-6.27,14.6Z"/><g><path class="c" d="M245.63,476.62c-.07,.05-.13,.11-.19,.16l-.07-.16h.26Z"/><path class="c" d="M245.44,479.28c-.19,0-.38-.02-.58-.07-.76-.18-1.4-.71-1.71-1.43l-.07-.16c-.34-.77-.27-1.67,.2-2.37,.46-.71,1.25-1.13,2.09-1.13h.26c1.09,0,2.05,.7,2.38,1.74,.32,1.01-.03,2.1-.86,2.74l-.12,.1c-.45,.38-1.02,.58-1.6,.58Zm1.64-.62h0Zm0,0h0Zm.1-.08h0Z"/></g><path class="c" d="M254.83,503.06H74.25c-1.38,0-2.5-1.12-2.5-2.5v-12.32c0-1.38,1.12-2.5,2.5-2.5H249.52c1,0,1.9,.59,2.3,1.51l5.31,12.32c.33,.77,.25,1.66-.21,2.36-.46,.7-1.25,1.13-2.09,1.13Zm-178.08-5H251.03l-3.16-7.32H76.75v7.32Z"/><path class="c" d="M260.47,516.14H74.25c-1.38,0-2.5-1.12-2.5-2.5v-13.08c0-1.38,1.12-2.5,2.5-2.5H254.83c1,0,1.9,.59,2.3,1.51l5.64,13.08c.33,.77,.25,1.66-.21,2.36-.46,.7-1.25,1.13-2.09,1.13Zm-183.72-5h179.92l-3.48-8.08H76.75v8.08Z"/><path class="c" d="M266.47,530.06H74.25c-1.38,0-2.5-1.12-2.5-2.5v-13.92c0-1.38,1.12-2.5,2.5-2.5h186.22c1,0,1.9,.59,2.3,1.51l2.58,5.99s.04,.09,.05,.13l3.37,7.8c.33,.77,.26,1.66-.21,2.36-.46,.7-1.25,1.13-2.09,1.13Zm-189.72-5h185.92l-1.91-4.43s-.04-.09-.05-.13l-1.88-4.36H76.75v8.92Z"/><path class="c" d="M279.69,560.74H74.25c-1.38,0-2.5-1.12-2.5-2.5v-15.85c0-1.38,1.12-2.5,2.5-2.5h198.61c1,0,1.9,.59,2.3,1.51l6.83,15.85c.33,.77,.25,1.66-.21,2.36-.46,.7-1.25,1.12-2.09,1.12Zm-202.94-5h199.14l-4.68-10.85H76.75v10.85Z"/><path class="c" d="M287.01,577.71H74.25c-1.38,0-2.5-1.12-2.5-2.5v-16.97c0-1.38,1.12-2.5,2.5-2.5h205.44c1,0,1.9,.59,2.3,1.51l7.32,16.97c.33,.77,.25,1.66-.21,2.36-.46,.7-1.25,1.13-2.09,1.13Zm-210.26-5h206.46l-5.16-11.97H76.75v11.97Z"/><path class="c" d="M294.86,595.92H74.25c-1.38,0-2.5-1.12-2.5-2.5v-18.21c0-1.38,1.12-2.5,2.5-2.5h212.76c1,0,1.9,.59,2.3,1.51l7.85,18.21c.33,.77,.25,1.66-.21,2.36-.46,.7-1.25,1.13-2.09,1.13Zm-218.11-5h214.31l-5.69-13.21H76.75v13.21Z"/><g><path class="c" d="M312.93,633.66v.51h-.51l-9.11-21.15-6.72-15.59h0l-1.73-4.01-7.85-18.21-7.32-16.97-2.62-6.09-4.21-9.76-6.39-14.83-3.42-7.92h0l-2.58-6-5.64-13.08-5.31-12.32-4.7-10.91c.21-.18,.41-.37,.62-.55l4.92,11.46,5.29,12.32,5.62,13.08,2.28,5.29,3.7,8.63,6.38,14.83,4.21,9.79,2.6,6.06,7.29,16.97,7.82,18.21,1.36,3.16,7.06,16.44,8.9,20.71s.04-.05,.06-.07Z"/><path class="c" d="M312.93,636.67h-.51c-1,0-1.9-.59-2.3-1.51l-15.83-36.74s-.04-.09-.05-.13l-33.49-77.66s-.04-.09-.05-.13l-18.18-42.18c-.43-1-.16-2.17,.67-2.89l.26-.23c.12-.11,.24-.22,.36-.32,.61-.52,1.42-.71,2.19-.54,.77,.18,1.42,.72,1.73,1.45l67.16,156.32c.34,.43,.53,.97,.53,1.54v.51c0,1.38-1.12,2.5-2.5,2.5Z"/></g><g><g><path class="c" d="M312.87,633.73c-.11,.14-.23,.29-.34,.44-.02,.03-.05,.06-.07,.09l-.04-.09-9.11-21.15-6.72-15.59h0l-1.73-4.01-7.85-18.21-7.32-16.97-2.62-6.09-4.21-9.76-6.39-14.83-3.42-7.92h0l-2.58-6-5.64-13.08-5.31-12.32-4.7-10.91c.21-.18,.41-.37,.62-.55l4.92,11.46,5.29,12.32,5.62,13.08,2.28,5.29,3.7,8.63,6.38,14.83,4.21,9.79,2.6,6.06,7.29,16.97,7.82,18.21,1.36,3.16,7.06,16.44,8.9,20.71Z"/><path class="c" d="M312.46,636.76c-.06,0-.13,0-.19,0-.92-.07-1.72-.64-2.09-1.48,0,0-.05-.11-.05-.11l-15.83-36.74s-.04-.09-.05-.13l-33.49-77.66s-.04-.09-.05-.13l-18.18-42.18c-.43-1-.16-2.17,.67-2.89l.26-.23c.12-.11,.24-.22,.36-.32,.6-.52,1.42-.72,2.19-.54,.77,.18,1.42,.72,1.73,1.45l67.43,156.95c.36,.84,.24,1.81-.33,2.52l-.08,.11c-.07,.09-.14,.18-.21,.28h0s-.05,.07-.08,.1c-.47,.63-1.21,1-2,1Z"/></g><path class="c" d="M312.87,636.23c-.08,0-.16,0-.25-.01-.91-.09-1.69-.66-2.05-1.5l-67.43-156.95c-.44-1.02-.15-2.2,.7-2.91,.06-.06,.13-.11,.2-.17,7.58-6.7,15.43-13.17,23.33-19.23,10.78-8.29,22.08-16.17,33.58-23.42,6.33-4,12.88-7.9,19.45-11.59,11.12-6.25,22.72-12.11,34.46-17.42,6.97-3.15,14.02-6.12,20.95-8.82,.12-.06,.3-.13,.51-.2,11.47-4.49,23.3-8.55,35.15-12.06,10.05-2.99,20.42-5.68,30.82-7.98,27.45-6.07,55.63-9.59,83.76-10.46,12.65-.4,25.57-.25,38.38,.43,22.26,1.2,44.6,4.07,66.38,8.54,13.11,2.68,26.25,5.99,39.07,9.83,17.65,5.3,35.08,11.73,51.79,19.12,.08,.03,.16,.07,.24,.11,12.27,5.41,24.39,11.44,36.05,17.91,6.66,3.7,13.29,7.61,19.7,11.63,10.05,6.28,19.89,13,29.25,19.96,10.04,7.45,19.88,15.43,29.24,23.7,.78,.69,1.05,1.79,.68,2.76-.14,.37-.37,.7-.65,.96l-4.62,10.76c-.03,.07-.06,.13-.09,.19l-37.28,86.78c-.03,.06-.06,.13-.09,.19l-24.88,57.91c-.37,.86-1.19,1.44-2.12,1.51-.86,.06-1.69-.33-2.19-1.02-.02-.02-.04-.05-.06-.07-6.55-8.37-13.59-16.43-20.95-23.96-20.66-21.16-44.32-38.85-70.32-52.58-4.58-2.41-9.24-4.71-13.85-6.83-6.21-2.86-12.6-5.52-18.97-7.91-13.66-5.11-27.82-9.2-42.09-12.17-.04,0-.07-.01-.11-.02-1.15-.25-2.3-.47-3.45-.69-30.89-6.02-62.38-6.93-93.6-2.72-8.69,1.17-17.4,2.75-25.88,4.71-13.1,3-26.06,6.96-38.53,11.76-6.19,2.38-12.29,4.97-18.12,7.7-12.6,5.87-24.9,12.76-36.57,20.5-15.12,10.02-29.4,21.63-42.46,34.51-8.91,8.8-17.34,18.28-25.05,28.19-.04,.05-.07,.09-.11,.14-.47,.57-1.18,.9-1.92,.9Zm451.92-1.62h0ZM248.45,477.46l65.06,151.43c7.14-8.91,14.84-17.45,22.93-25.44,13.29-13.11,27.82-24.92,43.21-35.12,11.88-7.87,24.4-14.89,37.22-20.86,5.93-2.78,12.14-5.42,18.44-7.84,12.69-4.88,25.88-8.91,39.21-11.96,8.63-1.99,17.49-3.6,26.33-4.79,31.77-4.29,63.8-3.36,95.21,2.76,1.15,.22,2.31,.44,3.47,.69,.03,0,.06,0,.08,.02,14.55,3.02,28.98,7.19,42.91,12.4,6.49,2.43,12.99,5.14,19.31,8.05,4.69,2.15,9.43,4.49,14.09,6.95,26.46,13.97,50.53,31.97,71.56,53.51,6.55,6.71,12.87,13.84,18.81,21.22l23.31-54.25c.03-.07,.06-.13,.09-.19l37.28-86.78c.03-.07,.06-.13,.09-.19l4.26-9.92c-8.79-7.7-18-15.13-27.38-22.09h0c-9.25-6.88-18.99-13.52-28.92-19.74-6.34-3.97-12.89-7.84-19.48-11.49-11.57-6.43-23.61-12.41-35.79-17.78-.05-.02-.1-.05-.15-.07-16.5-7.29-33.71-13.64-51.14-18.87-12.67-3.8-25.67-7.08-38.63-9.73-21.54-4.42-43.63-7.26-65.64-8.44-12.67-.68-25.45-.82-37.96-.43-27.82,.86-55.69,4.33-82.84,10.34-10.28,2.28-20.54,4.93-30.48,7.9-11.75,3.48-23.48,7.51-34.85,11.96-.06,.02-.12,.05-.19,.06-.05,.02-.12,.05-.16,.07-6.87,2.68-13.86,5.62-20.78,8.75-11.61,5.25-23.08,11.04-34.08,17.22-6.5,3.64-12.97,7.49-19.23,11.45-11.37,7.17-22.54,14.96-33.2,23.16-7.43,5.7-14.81,11.77-21.96,18.04Zm129.29-78.66h0Zm6.75,148.78c-10.58,0-19.81-3.74-23.87-13.19l-28.06-65.45c-6.45-15.04-10.68-15.23-14.78-15.42l-.6-.03c-.95-.05-1.8-.64-2.17-1.52l-.75-1.76c-.54-1.27,.05-2.73,1.32-3.28l35.16-15.07c.61-.26,1.3-.27,1.92-.02,.62,.25,1.11,.73,1.37,1.34l.75,1.76c.37,.88,.22,1.89-.4,2.61l-.39,.46c-2.36,2.71-4.4,5.06-1.76,13.95,.63,2.14,1.55,4.62,2.73,7.38l28.32,66.08c.48,1.11,1.16,2.08,2,2.86,4.03,3.73,12.32,3.7,21.13-.07,10.09-4.33,18.5-12.93,15.05-20.99l-27.66-64.52c-6.45-15.04-10.68-15.23-14.78-15.42l-.6-.03c-.95-.05-1.79-.63-2.17-1.51l-.76-1.76c-.26-.61-.27-1.3-.03-1.92,.25-.62,.73-1.11,1.34-1.37l27.03-11.58c.61-.26,1.3-.27,1.92-.02,.62,.25,1.11,.73,1.37,1.34l.75,1.76c.37,.88,.22,1.89-.4,2.61l-.39,.45c-2.69,3.1-5.48,6.3,.97,21.33l28.06,65.45c4.12,9.62,.67,19.99-9.72,29.21-3.14,2.8-6.8,5.37-10.9,7.64-2.08,1.17-4.33,2.28-6.69,3.29-7.79,3.34-16.41,5.41-24.29,5.41Zm-61.64-98.33c4.54,1.4,9.06,5.46,14.31,17.71l28.06,65.45c5.47,12.74,25.06,12.24,41.6,5.16,2.19-.94,4.28-1.97,6.22-3.06,3.79-2.1,7.15-4.46,10.01-7.01h0c5.01-4.45,12.77-13.41,8.44-23.5l-28.06-65.45c-5.25-12.24-5.07-18.32-2.96-22.57l-16.4,7.03c4.54,1.4,9.06,5.46,14.31,17.71l27.66,64.52c2.27,5.29,1.3,11.14-2.73,16.48-3.37,4.45-8.67,8.39-14.94,11.08-8.45,3.62-19.85,5.3-26.49-.85-1.36-1.26-2.44-2.79-3.2-4.55l-28.32-66.09c-1.28-2.98-2.23-5.57-2.93-7.93-2.15-7.24-1.67-11.45-.07-14.63l-24.5,10.5Zm368.01,98.16c-.38,0-.76-.09-1.12-.27l-34.3-17.27c-1.23-.62-1.73-2.12-1.11-3.36l.86-1.71c.42-.84,1.29-1.38,2.23-1.38h.62c4.11,.07,8.36,.14,15.72-14.46l38.43-76.32c-11.76-5.06-28.23,4.13-46.53,26.01-.75,.89-2,1.15-3.04,.63l-2.55-1.28c-.63-.32-1.1-.89-1.29-1.58-.19-.69-.07-1.42,.32-2.02l28.52-43.96c.7-1.07,2.08-1.45,3.22-.87l8.42,4.24,66.33,33.42c1.14,.57,1.66,1.91,1.22,3.11l-18.34,49.08c-.25,.67-.77,1.19-1.43,1.45-.66,.26-1.4,.23-2.04-.09l-2.55-1.28c-1.04-.52-1.58-1.69-1.31-2.82,.77-3.17,1.44-6.32,1.99-9.37,.3-1.7,.58-3.51,.83-5.36,1.89-14,1.67-31.88-9.88-38.29l-38.45,76.34c-7.36,14.62-4.78,17.98-2.28,21.24l.36,.47c.58,.76,.67,1.79,.24,2.64l-.86,1.7c-.44,.87-1.32,1.37-2.23,1.37Zm-28.01-19.41l23.97,12.07c-1.84-4.37-1.64-10.45,4.35-22.34l39.58-78.58c.62-1.23,2.12-1.73,3.36-1.11l1.61,.81c8.17,4.11,17.08,15.04,13.2,43.76-.1,.71-.2,1.42-.3,2.12l12.72-34.04-70.75-35.64-19.76,30.46c17.08-17.22,32.34-23.06,44.53-16.91l1.33,.67c.59,.3,1.04,.82,1.25,1.45,.21,.63,.16,1.32-.14,1.91l-39.57,78.58c-5.99,11.9-10.76,15.67-15.38,16.79Zm-47.2-11.3c-.17,0-.33-.02-.5-.05l-28.99-5.87c-.65-.13-1.23-.52-1.59-1.08-.37-.56-.49-1.24-.35-1.89l.3-1.4c.2-.93,.91-1.67,1.84-1.9l.45-.11c3.04-.74,5.9-1.44,8.42-13.12l11.01-51.19c2.51-11.64,.19-13.38-2.27-15.22l-.37-.28c-.78-.59-1.14-1.58-.93-2.53l.31-1.41c.29-1.33,1.6-2.19,2.94-1.91l28.99,5.87c.66,.13,1.23,.52,1.6,1.09,.37,.56,.49,1.25,.35,1.9l-.31,1.41c-.2,.93-.91,1.66-1.83,1.89l-.46,.11c-2.74,.67-5.11,1.25-7.41,9.15-.34,1.15-.66,2.44-.99,3.96l-11.02,51.19c-2.5,11.62-.19,13.37,2.27,15.21l.38,.28c.77,.59,1.13,1.57,.93,2.52l-.3,1.4c-.25,1.17-1.29,1.98-2.44,1.98Zm-22.6-9.63l17.29,3.5c-1.71-2.98-2.29-7.6-.41-16.32l11.02-51.19c.35-1.63,.7-3.05,1.08-4.31,1.68-5.76,3.73-8.74,5.99-10.43l-17.32-3.51c1.71,2.98,2.29,7.61,.41,16.32l-.48,2.24-10.53,48.94c-1.87,8.67-4.28,12.67-7.05,14.75Zm-119.84,6.81c-.6,0-1.18-.21-1.63-.61-.5-.43-.81-1.05-.86-1.71l-.14-1.91c-.07-.95,.41-1.86,1.23-2.34l.52-.3c3.55-2.05,7.22-4.18,6.02-20.5l-5.12-69.34c-.23-3.07-.55-5.63-.98-7.83-1.76-9.09-4.65-10.24-8-11.56l-.55-.22c-.89-.36-1.49-1.19-1.56-2.14l-.14-1.91c-.1-1.38,.93-2.57,2.31-2.68l27.83-2.05c.99-.08,1.95,.46,2.41,1.35l38.31,74.68-3.82-51.78c-1.21-16.32-5.16-17.88-8.98-19.39l-.55-.22c-.89-.36-1.49-1.18-1.56-2.14l-.14-1.91c-.1-1.38,.93-2.58,2.31-2.68l29.32-2.16c1.36-.11,2.57,.92,2.68,2.3l.15,1.91c.08,.96-.4,1.87-1.23,2.35l-.51,.3c-3.56,2.05-7.23,4.17-6.03,20.49l5.12,69.34c1.2,16.31,5.15,17.88,8.97,19.38l.55,.22c.89,.36,1.49,1.19,1.56,2.14l.14,1.91c.1,1.38-.93,2.57-2.31,2.68l-28.12,2.08c-1.02,.06-1.95-.46-2.41-1.34l-37.89-73.15,3.71,50.21c1.2,16.32,5.14,17.87,8.96,19.38l.56,.22c.89,.36,1.49,1.19,1.56,2.14l.14,1.91c.1,1.38-.93,2.57-2.31,2.68l-29.32,2.17c-.06,0-.13,0-.19,0Zm-2.74-118.47c2.88,2.09,5.25,5.6,6.68,12.99,.47,2.39,.81,5.14,1.06,8.41l5.12,69.34c.98,13.29-1.17,18.98-4.55,22.31l17.8-1.32c-3.83-2.8-6.79-8.11-7.77-21.4l-4.61-62.38c-.09-1.18,.67-2.27,1.81-2.59s2.35,.2,2.9,1.26l42.75,82.52,20.71-1.53c-3.83-2.8-6.79-8.11-7.77-21.4l-5.12-69.34c-.98-13.29,1.16-18.98,4.54-22.31l-17.8,1.31c3.83,2.8,6.79,8.11,7.78,21.4l4.73,64.07c.09,1.19-.67,2.27-1.82,2.59-1.15,.32-2.36-.21-2.9-1.27l-43.17-84.18-20.38,1.5Zm150.87,24.05c-.16,0-.32-.02-.49-.05l-.15-.03c-.83-.16-1.52-.74-1.84-1.52-2.65-6.63-6.02-12.87-10.01-18.56-.39-.56-.54-1.26-.4-1.93l.03-.15c.14-.67,.54-1.26,1.12-1.62,5.91-3.72,11.43-8.16,16.43-13.22,.58-.59,1.43-.85,2.24-.7l.16,.03c.84,.16,1.54,.74,1.86,1.53,2.64,6.61,6.01,12.85,10.01,18.57,.4,.57,.54,1.28,.39,1.96l-.03,.14c-.14,.66-.54,1.23-1.11,1.59-5.91,3.71-11.44,8.16-16.44,13.22-.47,.48-1.12,.74-1.78,.74Zm-6.99-20.98c2.96,4.47,5.56,9.23,7.77,14.23,3.97-3.73,8.22-7.11,12.69-10.09-2.96-4.48-5.57-9.25-7.77-14.23-3.97,3.73-8.22,7.12-12.69,10.1Z"/><g><path class="c" d="M424.71,529.37c-3.05,2.72-6.61,5.19-10.45,7.32-2.08,1.17-4.25,2.23-6.46,3.18-17.78,7.62-38.67,8-44.88-6.47l-1.41-3.29-3.81-8.89-2.22-5.17-16.71-38.98-3.91-9.12c-7.36-17.17-12.71-16.71-17.55-16.96l-.75-1.76,35.16-15.07,.75,1.76c-2.62,3.05-5.84,6.02-2.65,16.75,.65,2.2,1.58,4.73,2.83,7.65l28.32,66.08c.64,1.48,1.52,2.71,2.6,3.71,5.22,4.83,15.01,4.16,23.81,.39,11.16-4.79,20.53-14.55,16.36-24.27l-27.66-64.52c-7.36-17.17-12.71-16.71-17.55-16.96l-.76-1.76,27.03-11.58,.75,1.76c-3.16,3.68-7.18,7.24,.18,24.4l28.06,65.45c4.02,9.38-.58,18.81-9.08,26.35Z"/><path class="c" d="M384.49,547.58c-10.58,0-19.81-3.74-23.87-13.19l-28.06-65.45c-6.45-15.04-10.68-15.23-14.78-15.42l-.6-.03c-.95-.05-1.8-.64-2.17-1.52l-.75-1.76c-.54-1.27,.05-2.73,1.31-3.28l35.16-15.07c.61-.26,1.3-.27,1.92-.02,.62,.25,1.11,.73,1.37,1.34l.75,1.76c.37,.88,.22,1.89-.4,2.61l-.39,.46c-2.36,2.71-4.4,5.06-1.76,13.95,.63,2.14,1.55,4.62,2.73,7.38l28.32,66.08c.48,1.11,1.16,2.08,2,2.86,4.03,3.73,12.32,3.7,21.13-.07,10.09-4.33,18.5-12.93,15.05-20.99l-27.66-64.52c-6.45-15.04-10.68-15.23-14.78-15.42l-.6-.03c-.95-.05-1.79-.63-2.17-1.51l-.76-1.76c-.26-.61-.27-1.3-.03-1.92,.25-.62,.73-1.11,1.34-1.37l27.03-11.58c.61-.26,1.3-.27,1.92-.02,.62,.25,1.11,.73,1.37,1.34l.75,1.76c.37,.88,.22,1.89-.4,2.61l-.39,.45c-2.69,3.1-5.48,6.3,.97,21.33l28.06,65.45c4.12,9.62,.67,19.99-9.71,29.2h0c-3.14,2.8-6.81,5.37-10.9,7.64-2.08,1.17-4.33,2.28-6.69,3.29-7.79,3.34-16.41,5.41-24.29,5.41Zm-61.56-98.36c4.11,1.29,8.84,5.19,14.22,17.75l28.06,65.45c5.47,12.74,25.06,12.24,41.6,5.16,2.19-.94,4.28-1.97,6.22-3.06,3.79-2.1,7.15-4.46,10.01-7.01h0c5.01-4.45,12.77-13.41,8.44-23.5l-28.06-65.45c-5.38-12.55-4.95-18.67-3.05-22.53l-16.23,6.95c4.11,1.29,8.84,5.19,14.23,17.75l27.66,64.52c2.27,5.29,1.3,11.14-2.73,16.48-3.37,4.45-8.67,8.39-14.94,11.08-8.45,3.62-19.85,5.3-26.49-.85-1.36-1.26-2.44-2.79-3.2-4.55l-28.32-66.09c-1.28-2.98-2.23-5.57-2.93-7.93-2.15-7.24-1.67-11.45-.07-14.63l-24.42,10.46Z"/></g><g><path class="c" d="M558.32,505.09l-28.12,2.08-4.14-8-22.49-43.4-16.88-32.59,1.48,20,3.13,42.38c1.37,18.63,6.58,19.93,11.08,21.74l.14,1.91-11.77,.87h-.13l-15.54,1.16-1.22,.09-.66,.05-.14-1.91c4.18-2.45,9.14-4.51,7.77-23.14l-3.16-42.81-1.96-26.53c-.24-3.18-.58-5.86-1.02-8.12-2.12-10.96-6.34-12.12-10.07-13.62l-.14-1.91,27.83-2.05,5.29,10.31,38.64,75.34-2.95-39.98-1.41-19.13-.37-4.96c-1.38-18.62-6.59-19.93-11.09-21.74l-.14-1.91,29.32-2.16,.15,1.91c-4.19,2.45-9.15,4.51-7.77,23.13l.3,4.03,1.55,20.97,3.27,44.34c1.37,18.62,6.58,19.93,11.08,21.74l.14,1.91Z"/><path class="c" d="M473.2,513.88c-.6,0-1.18-.21-1.63-.61-.5-.43-.81-1.05-.86-1.71l-.14-1.91c-.07-.95,.41-1.86,1.23-2.34l.52-.3c3.55-2.05,7.22-4.18,6.02-20.5l-5.12-69.34c-.23-3.07-.55-5.63-.98-7.83-1.76-9.09-4.65-10.24-8-11.56l-.55-.22c-.89-.36-1.49-1.19-1.56-2.14l-.14-1.91c-.1-1.38,.93-2.57,2.31-2.68l27.83-2.05c.99-.07,1.95,.46,2.41,1.35l38.3,74.68-3.82-51.78c-1.21-16.32-5.16-17.88-8.98-19.39l-.55-.22c-.89-.36-1.49-1.18-1.56-2.14l-.14-1.91c-.1-1.38,.93-2.58,2.31-2.68l29.32-2.16c1.39-.11,2.57,.93,2.68,2.3l.15,1.91c.08,.96-.4,1.87-1.23,2.35l-.51,.3c-3.56,2.05-7.23,4.17-6.03,20.49l5.12,69.34c1.2,16.31,5.15,17.88,8.97,19.38l.55,.22c.89,.36,1.49,1.19,1.56,2.14l.14,1.91c.1,1.38-.93,2.57-2.31,2.68l-28.12,2.08c-1.02,.06-1.95-.46-2.41-1.34l-37.89-73.15,3.71,50.21c1.2,16.32,5.14,17.87,8.96,19.38l.56,.22c.89,.36,1.49,1.19,1.56,2.14l.14,1.91c.1,1.38-.93,2.57-2.31,2.68l-29.32,2.17c-.06,0-.13,0-.19,0Zm-2.74-118.47c2.88,2.09,5.25,5.6,6.68,12.99,.47,2.39,.81,5.14,1.06,8.41l5.12,69.34c1,13.62-1.4,19.27-4.45,22.31l17.61-1.3c-3.47-2.56-6.67-7.78-7.67-21.41l-4.61-62.38c-.09-1.18,.67-2.27,1.81-2.59,1.14-.33,2.35,.2,2.9,1.26l42.75,82.52,20.62-1.53c-3.47-2.56-6.68-7.78-7.68-21.41l-5.12-69.34c-1.01-13.62,1.4-19.26,4.45-22.3l-17.62,1.3c3.47,2.56,6.68,7.79,7.68,21.4l4.73,64.07c.09,1.19-.67,2.27-1.82,2.59-1.15,.32-2.36-.21-2.9-1.27l-43.17-84.18-20.38,1.5Z"/></g><g><path class="c" d="M638.25,403.24l-.03,.14c-6.16,3.87-11.78,8.41-16.89,13.58l-.15-.03c-2.7-6.75-6.11-13.12-10.28-19.07l.03-.15c6.15-3.87,11.77-8.41,16.88-13.58l.16,.03c2.7,6.76,6.11,13.12,10.28,19.08Z"/><path class="c" d="M621.33,419.46c-.16,0-.32-.02-.49-.05l-.15-.03c-.83-.16-1.52-.74-1.84-1.52-2.65-6.63-6.02-12.87-10.01-18.56-.39-.56-.54-1.26-.4-1.93l.03-.15c.14-.67,.54-1.26,1.12-1.62,5.91-3.72,11.43-8.16,16.43-13.22,.58-.59,1.43-.85,2.24-.7l.16,.03c.84,.16,1.54,.74,1.86,1.53,2.64,6.61,6.01,12.85,10.01,18.57,.4,.57,.54,1.28,.39,1.96l-.03,.14c-.14,.66-.54,1.23-1.11,1.59-5.91,3.71-11.44,8.16-16.44,13.22-.47,.48-1.12,.74-1.78,.74Zm-6.99-20.98c2.96,4.47,5.56,9.23,7.77,14.23,3.97-3.73,8.22-7.11,12.69-10.09-2.96-4.48-5.57-9.25-7.77-14.23-3.97,3.73-8.22,7.12-12.69,10.1Z"/></g><g><path class="c" d="M634.39,427.06l-.31,1.41c-3.22,.81-6.83,1.26-9.66,10.99-.36,1.22-.7,2.59-1.03,4.13l-11.02,51.19c-2.96,13.75,.63,15.77,3.57,18.01l-.03,.14-.27,1.27-.89-.18-28.1-5.69,.3-1.4c3.63-.91,7.74-1.38,10.7-15.13l10.53-48.94,.48-2.25c2.96-13.75-.62-15.77-3.57-18.01l.31-1.41,28.99,5.87Z"/><path class="c" d="M615.64,516.7c-.17,0-.33-.02-.5-.05l-28.99-5.87c-.65-.13-1.23-.52-1.59-1.08-.37-.56-.49-1.24-.35-1.89l.3-1.4c.2-.93,.91-1.67,1.84-1.9l.45-.11c3.04-.74,5.9-1.44,8.42-13.12l11.01-51.18c2.51-11.64,.19-13.38-2.27-15.22l-.37-.28c-.78-.59-1.14-1.58-.93-2.53l.31-1.41c.29-1.33,1.61-2.18,2.94-1.91l28.99,5.87c.66,.13,1.23,.52,1.6,1.09,.37,.56,.49,1.25,.35,1.9l-.31,1.41c-.2,.93-.91,1.66-1.83,1.89l-.46,.11c-2.74,.67-5.11,1.25-7.41,9.15-.34,1.15-.66,2.44-.99,3.96l-11.02,51.19c-2.5,11.62-.19,13.37,2.27,15.21l.38,.28c.77,.59,1.13,1.57,.93,2.52l-.3,1.4c-.25,1.17-1.29,1.98-2.44,1.98Zm-22.6-9.63l17.29,3.5c-1.71-2.98-2.29-7.6-.41-16.32l11.02-51.19c.35-1.63,.7-3.05,1.08-4.31,1.68-5.76,3.73-8.74,5.99-10.43l-17.32-3.51c1.71,2.99,2.29,7.61,.41,16.32l-.48,2.24-10.53,48.94c-1.87,8.67-4.28,12.67-7.05,14.75Z"/></g><g><path class="c" d="M764.46,449.47l-18.34,49.08-2.55-1.28c.8-3.29,1.47-6.47,2.02-9.52,.33-1.87,.61-3.7,.85-5.47,2.87-21.25-.98-35.72-11.85-41.19l-1.61-.81-8.53,16.93-26.9,53.41-4.15,8.24c-8.4,16.68-4.61,20.48-1.68,24.35l-.86,1.7-34.3-17.27,.86-1.71c4.85,.05,10.17,.83,18.57-15.84l7.87-15.63,27.88-55.37,3.82-7.58-1.33-.67c-13.27-6.69-31.07,2.99-50.49,26.21l-2.55-1.28,28.52-43.96,4.04,2.04,4.38,2.2,66.33,33.42Z"/><path class="c" d="M690.86,547.41c-.38,0-.76-.09-1.12-.27l-34.3-17.27c-1.23-.62-1.73-2.12-1.11-3.36l.86-1.71c.42-.84,1.29-1.38,2.23-1.38h.62c4.11,.07,8.36,.14,15.72-14.46l38.43-76.32c-11.76-5.06-28.23,4.13-46.53,26.01-.75,.89-2,1.15-3.04,.63l-2.55-1.28c-.63-.32-1.1-.89-1.29-1.58-.19-.69-.07-1.42,.32-2.02l28.52-43.96c.7-1.07,2.08-1.45,3.22-.87l8.42,4.24,66.33,33.42c1.14,.57,1.66,1.91,1.22,3.11l-18.34,49.08c-.25,.67-.77,1.19-1.43,1.45-.66,.26-1.4,.23-2.04-.09l-2.55-1.28c-1.04-.52-1.58-1.69-1.31-2.82,.77-3.17,1.44-6.32,1.99-9.37,.3-1.7,.58-3.51,.83-5.36,1.89-14,1.67-31.88-9.88-38.29l-38.45,76.34c-7.36,14.62-4.78,17.98-2.28,21.24l.36,.47c.58,.76,.67,1.79,.24,2.64l-.86,1.7c-.44,.87-1.32,1.37-2.23,1.37Zm-27.93-19.36l23.81,11.99c-1.65-3.98-1.71-10.11,4.43-22.3l39.58-78.58c.62-1.23,2.12-1.73,3.36-1.11l1.61,.81c8.17,4.11,17.08,15.04,13.2,43.76-.1,.71-.2,1.42-.3,2.12l12.72-34.04-70.75-35.64-19.75,30.44c21.21-21.4,35.74-21.32,44.52-16.89l1.33,.67c.59,.3,1.04,.82,1.25,1.45s.16,1.32-.14,1.91l-39.57,78.58c-6.15,12.2-11.11,15.8-15.3,16.83Z"/></g><g><path class="c" d="M835.17,477.21l-4.74,11.03-5.29,12.32-5.63,13.08-5.98,13.92-1.09,2.55-5.28,12.28-6.81,15.85-7.29,16.97-7.83,18.21-8.42,19.6-9.09,21.15-.04,.09s-.05-.06-.07-.09c-.22-.29-.45-.58-.68-.86l8.72-20.29,8.42-19.6,7.82-18.21h.01l7.29-16.97,6.81-15.85,5.28-12.28,1.09-2.55,5.98-13.92,5.62-13.08,5.29-12.32h0l4.99-11.62h.24c.22,.2,.45,.39,.67,.59Z"/><path class="c" d="M767.68,636.76c-.78,0-1.51-.36-1.99-.98-.03-.04-.06-.08-.09-.11-.2-.26-.4-.52-.61-.77-.59-.72-.73-1.71-.36-2.57l24.96-58.1c.03-.07,.06-.13,.09-.19l37.28-86.78c.03-.07,.06-.13,.09-.19l4.91-11.43c.39-.92,1.3-1.51,2.3-1.51h.24c.62,0,1.22,.23,1.68,.65l.3,.27c.12,.11,.24,.21,.36,.32,.79,.72,1.04,1.86,.62,2.84l-67.45,156.96s-.05,.11-.05,.12c-.37,.83-1.16,1.4-2.06,1.48-.08,0-.15,0-.22,0Z"/></g></g><path class="c" d="M1005.5,490.74h-175.07c-.84,0-1.62-.42-2.09-1.12-.46-.7-.54-1.59-.21-2.36l4.11-9.56c-.29-.61-.33-1.32-.07-1.98,.37-.96,1.3-1.6,2.33-1.6h171c1.38,0,2.5,1.12,2.5,2.5v11.62c0,1.38-1.12,2.5-2.5,2.5Zm-171.27-5h168.77v-6.62h-165.93l-2.84,6.62Z"/><path class="c" d="M1005.5,503.06h-180.36c-.84,0-1.62-.42-2.09-1.12-.46-.7-.54-1.59-.21-2.36l5.29-12.32c.39-.92,1.3-1.51,2.3-1.51h175.07c1.38,0,2.5,1.12,2.5,2.5v12.32c0,1.38-1.12,2.5-2.5,2.5Zm-176.57-5h174.07v-7.32h-170.92l-3.14,7.32Z"/><path class="c" d="M1005.5,595.92h-220.27c-.84,0-1.62-.42-2.09-1.12s-.54-1.59-.21-2.36l7.83-18.21c.39-.92,1.3-1.51,2.3-1.51h212.44c1.38,0,2.5,1.12,2.5,2.5v18.21c0,1.38-1.12,2.5-2.5,2.5Zm-216.47-5h213.97v-13.21h-208.29l-5.68,13.21Z"/><path class="c" d="M767.72,636.67h-1.16c-.84,0-1.62-.42-2.09-1.12s-.54-1.59-.21-2.36l.38-.89,1.92,.85v-1.48h1.16v1.99l1.5,.66-.36,.83-1.14-.49v2.01Z"/><rect class="c" x="829.27" y="485.74" width="1.16" height="5"/><rect class="c" x="823.97" y="498.06" width="1.17" height="5"/><rect class="c" x="818.35" y="511.14" width="1.16" height="5"/><rect class="c" x="812.37" y="525.06" width="1.16" height="5"/><path class="c" d="M1005.5,544.89h-198.34c-.84,0-1.62-.42-2.09-1.12s-.54-1.59-.21-2.36l6.37-14.82c.39-.92,1.3-1.52,2.3-1.52h191.97c1.38,0,2.5,1.12,2.5,2.5v14.83c0,1.38-1.12,2.5-2.5,2.5Zm-194.54-5h192.04v-9.83h-187.82l-4.22,9.83Z"/><polygon class="c" points="807.16 544.89 806 544.89 805.99 539.89 807.16 539.89 807.16 544.89"/><rect class="c" x="799.19" y="555.74" width="1.16" height="5"/><rect class="c" x="791.9" y="572.71" width="1.16" height="5"/><rect class="c" x="784.07" y="590.92" width="1.16" height="5"/><rect class="c" x="775.65" y="610.52" width="1.16" height="5"/><g><path class="c" d="M312.42,636.67H74.25c-1.38,0-2.5-1.12-2.5-2.5v-21.15c0-1.38,1.12-2.5,2.5-2.5h229.06c1,0,1.9,.59,2.3,1.51l9.11,21.15c.33,.77,.25,1.66-.21,2.36-.46,.7-1.25,1.13-2.09,1.13Zm-235.67-5h231.87l-6.96-16.15H76.75v16.15Z"/><path class="c" d="M313.06,636.67h-.64v-2.22l-1.65,.72-.2-.46,1.85-.79v-2.25h.64v1.98l2.11-.9,.18,.42c.33,.77,.26,1.66-.2,2.37s-1.25,1.13-2.09,1.13Z"/><rect class="c" x="74.12" y="631.67" width=".13" height="5"/><path class="c" d="M249.52,490.74H74.25c-1.38,0-2.5-1.12-2.5-2.5v-11.62c0-1.38,1.12-2.5,2.5-2.5H245.37c.99,0,1.89,.59,2.29,1.5l.07,.16c.29,.65,.27,1.38,0,2l4.08,9.48c.33,.77,.25,1.66-.21,2.36-.46,.7-1.25,1.13-2.09,1.13Zm-172.77-5H245.72l-2.85-6.62H76.75v6.62Z"/><rect class="c" x="74.12" y="474.12" width=".13" height="5"/><rect class="c" x="74.12" y="485.74" width=".13" height="5"/><rect class="c" x="249.52" y="485.74" width=".84" height="5"/><rect class="c" x="74.12" y="498.06" width=".13" height="5"/><rect class="c" x="254.83" y="498.06" width=".82" height="5"/><rect class="c" x="74.12" y="511.14" width=".13" height="5"/><rect class="c" x="260.47" y="511.14" width=".8" height="5"/><rect class="c" x="74.12" y="525.06" width=".13" height="5"/><rect class="c" x="266.47" y="525.06" width=".78" height="5"/><rect class="c" x="74.12" y="539.89" width=".13" height="5"/><rect class="c" x="272.86" y="539.89" width=".77" height="5"/><rect class="c" x="74.12" y="555.74" width=".13" height="5"/><rect class="c" x="279.69" y="555.74" width=".75" height="5"/><rect class="c" x="74.12" y="572.71" width=".13" height="5"/><rect class="c" x="287.01" y="572.71" width=".72" height="5"/><rect class="c" x="74.12" y="590.92" width=".13" height="5"/><rect class="c" x="294.86" y="590.92" width=".69" height="5"/><rect class="c" x="74.12" y="610.52" width=".13" height="5"/><path class="c" d="M303.31,615.52H74.25c-1.38,0-2.5-1.12-2.5-2.5v-19.6c0-1.38,1.12-2.5,2.5-2.5h220.61c1,0,1.9,.59,2.29,1.51l1.73,4s.04,.09,.05,.14l6.67,15.47c.33,.77,.25,1.66-.21,2.36-.46,.7-1.25,1.13-2.09,1.13Zm-226.56-5h222.76l-5.22-12.1s-.04-.09-.05-.13l-1.03-2.37H76.75v14.6Z"/><rect class="c" x="303.31" y="610.52" width=".66" height="5"/></g><g><path class="c" d="M538.95,755.36s-.22,.59-.66,1.64c.14-.01,.27-.01,.41-.01,.31,0,.61,.01,.92,.04-.45-1.07-.67-1.67-.67-1.67Z"/><path class="c" d="M543.55,759.93l-4.17-.41c-.26-.03-.52-.03-.77-.03-.05,0-.09,0-.14,0l-4.05,.28,1.57-3.74c.41-.97,.61-1.52,.62-1.55l2.36-6.31,2.33,6.31s.22,.59,.63,1.57l1.62,3.86Z"/></g><path class="c" d="M540,962.59l-241.06-241.05,174.64-174.64,.71-.16c17.33-3.89,35.18-6.22,53.04-6.92,7.59-.3,15.24-.31,22.74-.02,18.96,.71,37.9,3.26,56.29,7.57l.69,.16,.5,.5,173.5,173.5-241.05,241.05Zm-233.99-241.05l233.99,233.98,149.24-149.24,84.74-84.74-169.46-169.46c-17.86-4.15-36.24-6.6-54.64-7.28-7.38-.28-14.9-.28-22.36,.02-17.32,.68-34.62,2.91-51.44,6.64l-170.08,170.08Zm300.76,132.47h-133.82l5.08-4.39c19.38-16.76,32.69-31.57,39.56-44.04,.02-.06,.04-.14,.06-.22l.2-.73,.58-.5c1.21-1.04,4.03-3.47,6.74-6.14,1.34-1.32,2.52-2.56,3.52-3.71,5.44-6.26,7.98-11.55,8.01-11.6l2.27-4.78,2.25,4.78s2.55,5.33,7.99,11.59c3.73,4.3,7.96,8.06,12.55,11.17l.48,.33,.29,.51c1.88,3.31,4.25,6.84,7.04,10.49,7.54,9.88,18.35,20.93,32.13,32.86l5.08,4.39Zm-120.49-5h107.16c-11.69-10.49-21.04-20.3-27.85-29.21-2.78-3.65-5.17-7.19-7.12-10.55-4.77-3.29-9.16-7.22-13.05-11.7-2.92-3.36-5.05-6.44-6.48-8.73-1.43,2.29-3.57,5.37-6.49,8.73-1.09,1.25-2.36,2.59-3.78,3.99-2.44,2.41-4.95,4.61-6.39,5.85l-.03,.14-.2,.29c-6.52,11.91-18.54,25.74-35.76,41.18Zm110.14-46.6c-4.28,0-8.52-.47-12.58-1.4-9.06-2.07-17.52-6.47-25.12-13.09-4.24-3.7-8.22-8.1-11.82-13.08-.58-.8-1.13-1.58-1.66-2.37-2.8-4.16-4.88-8-6.3-10.91-1.43,2.92-3.51,6.77-6.3,10.91-.66,.99-1.3,1.9-1.96,2.79-3.14,4.32-6.62,8.22-10.32,11.59-5.92,5.42-12.46,9.5-19.42,12.1-6.16,2.29-12.71,3.46-19.47,3.46-15.85,0-29.24-4.31-39.82-12.8-4.1-3.28-7.75-7.21-10.86-11.67-4.08-5.83-7.26-12.62-9.47-20.19-2.46-8.41-3.71-17.71-3.71-27.65,0-17.11,3.75-33.41,11.14-48.45,4.93-10.02,11.37-19.29,19.12-27.57,6.53-6.98,12.05-11.14,14.23-12.68l.57-.6h.13l76.13-67.51,76.71,68.03c1.11,.76,7.07,4.98,14.32,12.72,7.76,8.27,14.21,17.56,19.16,27.62,7.38,15.05,11.13,31.35,11.13,48.44v.89c0,9.59-1.2,18.6-3.58,26.77-2.21,7.58-5.43,14.39-9.57,20.23-1.23,1.75-2.59,3.46-4.03,5.06v.07l-.69,.7c-8.17,8.96-18.72,14.75-31.38,17.22-4.58,.91-9.5,1.37-14.6,1.37Zm-57.72-47.92c.39,0,.77,.01,1.16,.05l1.47,.14,.58,1.36c1.1,2.57,3.53,7.76,7.48,13.63,.49,.73,1,1.47,1.55,2.22,3.38,4.69,7.1,8.8,11.05,12.25,6.98,6.07,14.7,10.11,22.95,11.99,3.7,.85,7.56,1.28,11.46,1.28,4.78,0,9.36-.43,13.63-1.27,11.27-2.2,20.69-7.26,28.04-15.03h0l.67-.73c1.54-1.65,2.98-3.43,4.27-5.27,3.83-5.39,6.81-11.7,8.86-18.74,2.24-7.72,3.38-16.25,3.38-25.37v-.89c0-16.33-3.57-31.88-10.61-46.24-4.73-9.6-10.89-18.49-18.32-26.4-6.55-6.99-12.02-10.98-13.31-11.88l-1.38-.45v-.7l-72.69-64.46-74.2,65.82h-.18c-2.28,1.65-7.21,5.49-13.04,11.71-7.42,7.92-13.57,16.78-18.28,26.36-7.05,14.34-10.62,29.9-10.62,46.25,0,9.46,1.18,18.29,3.51,26.25,2.05,7.04,5,13.34,8.77,18.73,2.84,4.07,6.16,7.65,9.88,10.63,9.66,7.76,22.01,11.7,36.69,11.7,6.16,0,12.12-1.06,17.72-3.14,6.36-2.38,12.34-6.12,17.79-11.11,3.46-3.15,6.7-6.8,9.66-10.86,.62-.84,1.22-1.7,1.85-2.63,3.94-5.85,6.39-11.07,7.5-13.66l.6-1.4,1.52-.11c.2-.01,.38-.02,.58-.02Z"/><path class="c" d="M606.77,854.01h-133.82l5.08-4.39c19.38-16.76,32.69-31.57,39.56-44.04,.02-.06,.04-.14,.06-.22l.2-.73,.58-.5c1.21-1.04,4.03-3.46,6.74-6.14,1.34-1.32,2.52-2.56,3.52-3.71,5.44-6.26,7.98-11.55,8.01-11.6l2.27-4.78,2.25,4.78s2.55,5.33,7.99,11.59c3.73,4.3,7.96,8.06,12.55,11.17l.48,.33,.29,.51c1.88,3.31,4.25,6.84,7.04,10.49,7.54,9.88,18.35,20.93,32.13,32.86l5.08,4.39Zm-120.49-5h107.16c-11.69-10.49-21.04-20.3-27.85-29.21-2.78-3.65-5.17-7.19-7.12-10.55-4.77-3.29-9.16-7.22-13.05-11.7-2.92-3.36-5.05-6.44-6.48-8.73-1.43,2.29-3.57,5.37-6.49,8.73-1.09,1.25-2.36,2.59-3.78,3.99-2.44,2.41-4.95,4.61-6.39,5.85l-.03,.14-.2,.29c-6.52,11.91-18.54,25.74-35.76,41.18Z"/><path class="c" d="M596.42,802.41c-4.28,0-8.52-.47-12.58-1.4-9.06-2.07-17.52-6.47-25.12-13.09-4.24-3.7-8.22-8.1-11.82-13.08-.58-.8-1.13-1.58-1.66-2.37-2.8-4.16-4.88-8-6.3-10.91-1.43,2.92-3.52,6.77-6.3,10.91-.66,.99-1.3,1.9-1.96,2.79-3.14,4.32-6.62,8.22-10.32,11.59-5.92,5.42-12.46,9.5-19.42,12.1-6.16,2.29-12.71,3.46-19.47,3.46-15.85,0-29.24-4.31-39.82-12.8-4.1-3.28-7.75-7.21-10.86-11.67-4.08-5.83-7.26-12.62-9.47-20.19-2.46-8.41-3.71-17.71-3.71-27.65,0-17.11,3.75-33.41,11.14-48.45,4.93-10.02,11.37-19.29,19.12-27.57,6.53-6.98,12.05-11.14,14.23-12.68l.57-.6h.13l76.13-67.51,76.71,68.03c1.11,.76,7.07,4.98,14.32,12.72,7.76,8.27,14.21,17.56,19.16,27.62,7.38,15.05,11.13,31.35,11.13,48.44v.89c0,9.59-1.2,18.6-3.58,26.77-2.21,7.58-5.43,14.39-9.57,20.23-1.23,1.75-2.59,3.46-4.03,5.06v.07l-.69,.7c-8.17,8.96-18.72,14.75-31.38,17.22-4.58,.91-9.5,1.37-14.6,1.37Zm-57.46-54.23l2.33,6.31s.22,.59,.63,1.57c1.09,2.56,3.52,7.75,7.47,13.61,.49,.73,1,1.47,1.55,2.22,3.38,4.69,7.1,8.8,11.05,12.25,6.98,6.07,14.7,10.11,22.95,11.99,3.7,.85,7.56,1.28,11.46,1.28,4.78,0,9.36-.43,13.63-1.27,11.27-2.2,20.69-7.26,28.04-15.03h0l.67-.73c1.54-1.65,2.98-3.43,4.27-5.27,3.83-5.39,6.81-11.7,8.86-18.74,2.24-7.72,3.38-16.25,3.38-25.37v-.89c0-16.33-3.57-31.88-10.61-46.24-4.73-9.6-10.89-18.49-18.32-26.4-6.55-6.99-12.02-10.98-13.31-11.88l-1.38-.45v-.7l-72.69-64.46-74.2,65.82h-.18c-2.28,1.65-7.21,5.49-13.04,11.71-7.42,7.92-13.57,16.78-18.28,26.36-7.05,14.34-10.62,29.9-10.62,46.25,0,9.46,1.18,18.29,3.51,26.25,2.05,7.04,5,13.34,8.77,18.73,2.84,4.07,6.16,7.65,9.88,10.63,9.66,7.76,22.01,11.7,36.69,11.7,6.16,0,12.12-1.06,17.72-3.14,6.36-2.38,12.34-6.12,17.79-11.11,3.46-3.15,6.7-6.8,9.66-10.86,.62-.84,1.22-1.7,1.85-2.63,3.94-5.85,6.39-11.07,7.5-13.66,.4-.95,.6-1.5,.61-1.53l2.36-6.31Z"/><g><path class="c" d="M433.79,503.02l-28.06-65.45c-7.36-17.16-3.34-20.72-.18-24.4l-.75-1.76-27.03,11.58,.76,1.76c4.84,.25,10.19-.21,17.55,16.96l27.66,64.52c4.17,9.72-5.2,19.48-16.36,24.27-8.8,3.77-18.59,4.44-23.81-.39-1.08-1-1.96-2.23-2.6-3.71l-28.32-66.08c-1.25-2.92-2.18-5.45-2.83-7.65-3.19-10.73,.03-13.7,2.65-16.75l-.75-1.76-35.16,15.07,.75,1.76c4.84,.25,10.19-.21,17.55,16.96l3.91,9.12,16.71,38.98,2.22,5.17,3.81,8.89,1.41,3.29c6.21,14.47,27.1,14.09,44.88,6.47,2.21-.95,4.38-2.01,6.46-3.18,3.84-2.13,7.4-4.6,10.45-7.32,8.5-7.54,13.1-16.97,9.08-26.35Z"/><path class="c" d="M558.18,503.18c-4.5-1.81-9.71-3.12-11.08-21.74l-3.27-44.34-1.55-20.97-.3-4.03c-1.38-18.62,3.58-20.68,7.77-23.13l-.15-1.91-29.32,2.16,.14,1.91c4.5,1.81,9.71,3.12,11.09,21.74l.37,4.96,1.41,19.13,2.95,39.98-38.64-75.34-5.29-10.31-27.83,2.05,.14,1.91c3.73,1.5,7.95,2.66,10.07,13.62,.44,2.26,.78,4.94,1.02,8.12l1.96,26.53,3.16,42.81c1.37,18.63-3.59,20.69-7.77,23.14l.14,1.91,.66-.05,1.22-.09,15.54-1.15h.13l11.77-.88-.14-1.91c-4.5-1.81-9.71-3.11-11.08-21.74l-3.13-42.38-1.48-20,16.88,32.59,22.49,43.4,4.14,8,28.12-2.08-.14-1.91Z"/><path class="c" d="M605.4,421.19l-.31,1.41c2.95,2.24,6.53,4.26,3.57,18.01l-.48,2.25-10.53,48.94c-2.96,13.75-7.07,14.22-10.7,15.13l-.3,1.4,28.1,5.69,.89,.18,.27-1.27,.03-.14c-2.94-2.24-6.53-4.26-3.57-18.01l11.02-51.19c.33-1.54,.67-2.91,1.03-4.13,2.83-9.73,6.44-10.18,9.66-10.99l.31-1.41-28.99-5.87Z"/><path class="c" d="M698.13,416.05l-4.38-2.2-4.04-2.04-28.52,43.96,2.55,1.28c19.42-23.22,37.22-32.9,50.49-26.21l1.33,.67-3.82,7.58-27.88,55.37-7.87,15.63c-8.4,16.67-13.72,15.89-18.57,15.84l-.86,1.71,34.3,17.27,.86-1.7c-2.93-3.87-6.72-7.67,1.68-24.35l4.15-8.24,26.9-53.41,8.53-16.93,1.61,.81c10.87,5.47,14.72,19.94,11.85,41.19-.24,1.77-.52,3.6-.85,5.47-.55,3.05-1.22,6.23-2.02,9.52l2.55,1.28,18.34-49.08-66.33-33.42Z"/></g><path class="b" d="M638.25,403.24l-.03,.14c-6.16,3.87-11.78,8.41-16.89,13.58l-.15-.03c-2.7-6.75-6.11-13.12-10.28-19.07l.03-.15c6.15-3.87,11.77-8.41,16.88-13.58l.16,.03c2.7,6.76,6.11,13.12,10.28,19.08Z"/></svg>