<svg id="Layer_1" data-name="Layer 1" xmlns="http://www.w3.org/2000/svg" viewBox="0 0 1190.55115 841.88983"><defs><style>.cls-1{fill:#020304;}</style></defs><path class="cls-1" d="M550.92536,391.18935c-1.42153-2.41645-15.75393-27.75643-3.4142-54.62722,8.64819-18.83218,28.8216-34.98546,53.18086-33.36223,20.68521,1.37837,38.16509,15.16052,45.831,33.36223,11.97372,28.43014-5.96584,53.46713-6.8284,54.62722,6.09155-1.10434,24.98338-3.72313,44.38462,6.8284,5.6854,3.092,26.31038,14.30916,30.72781,37.55621,5.35568,28.18467-17.88049,48.95932-20.48521,51.213-21.20409,18.34664-47.13216,14.35553-51.213,13.65681-28.50589-4.88093-42.41419-27.41124-44.38461-30.72781,0,0-3.4142,27.31361,23.8994,68.284H564.58216s27.31361-30.72781,23.89941-68.284c-3.83967,5.74542-14.532,20.0626-34.142,27.31361-5.92283,2.19-31.55859,11.66911-54.62722-3.41421-19.87052-12.99226-23.4929-34.8301-23.89941-37.55621-4.8386-32.44835,22.66313-53.7048,23.89941-54.62722C521.84161,384.92015,547.10655,390.30829,550.92536,391.18935Z"/></svg>