<svg id="Layer_1" data-name="Layer 1" xmlns="http://www.w3.org/2000/svg" viewBox="0 0 1190.55115 841.88983"><defs><style>.cls-1{fill:#e51d2a;}</style></defs><path class="cls-1" d="M595.56079,352.39566c9.64109-19.5733,28.35984-32.6683,48.93665-33.5629,28.81077-1.25251,46.51917,22.05435,50.07518,26.7345,2.60644,3.43046,11.98664,16.09951,13.65681,34.142,4.00049,43.2164-39.52969,81.651-78.52663,116.08284-13.74237,12.13371-25.82493,21.302-34.142,27.31361-42.06419-30.56745-70.56281-60.33283-88.76923-81.94083-12.73822-15.11811-21.30659-27.2737-23.89941-44.38461-3.26979-21.5784,2.62225-53.29,27.31361-68.284,17.54823-10.65636,36.06286-7.68915,40.97041-6.82841C579.091,326.5641,593.26609,348.68212,595.56079,352.39566Z"/></svg>