<svg id="Layer_1" data-name="Layer 1" xmlns="http://www.w3.org/2000/svg" viewBox="0 0 841.88983 1190.55115"><defs><style>.cls-1{fill:#e51d2a;}.cls-2{fill:#020304;}.cls-3{fill:#dcd204;}.cls-4{fill:#0b3754;}.cls-5{fill:#e8ecec;}.cls-6{fill:#2facb5;}.cls-7{fill:#fcf3e7;}.cls-8{fill:#09090a;}.cls-9{fill:#151516;}.cls-10{fill:#b53e8f;}.cls-11{fill:#dcd219;}</style></defs><path class="cls-1" d="M173.02164,101.81657c6.8507-13.90825,20.15171-23.21318,34.773-23.84886,20.47212-.89,33.05521,15.67121,35.582,18.99679a48.13881,48.13881,0,0,1,9.70414,24.26035c2.84264,30.70836-28.08868,58.01888-55.79881,82.48521-9.76495,8.62187-18.35047,15.13659-24.26036,19.40828a353.72335,353.72335,0,0,1-63.07692-58.22485C100.8933,154.151,94.80486,145.51356,92.96247,133.355c-2.32342-15.333,1.8633-37.86638,19.40829-48.52071,12.46928-7.57211,25.62525-5.46369,29.11242-4.85207C161.31864,83.46138,171.39109,99.17783,173.02164,101.81657Z"/><path class="cls-2" d="M695.51277,63.32544a116.63253,116.63253,0,0,1-16.98225,21.83432c-9.48933,9.55045-14.37308,11.02844-29.11243,24.26036-8.6533,7.7683-12.98,11.65249-16.98225,16.98225-5.13433,6.83736-14.27228,19.00626-14.55621,36.39053-.078,4.7784-.32032,21.20441,12.13018,33.9645a41.13039,41.13039,0,0,0,24.26035,12.13017c20.65044,2.39924,34.86812-12.86625,36.39054-14.55621,0,0,4.85207,16.98225-16.98225,43.66864h46.09467s-21.83432-29.11243-19.40828-43.66864c12.93144,12.50451,30.74282,17.26774,46.09467,12.13018,21.6724-7.25271,30.48355-31.57326,29.11243-48.52071-1.72843-21.36389-20.10989-36.84912-33.9645-48.52071-10.11956-8.525-17.40348-11.84121-29.11242-24.26036A146.34359,146.34359,0,0,1,695.51277,63.32544Z"/><path class="cls-2" d="M141.48318,1027.68047c-1.0101-1.71706-11.1943-19.72294-2.426-38.81656,6.14516-13.38163,20.47981-24.85969,37.78882-23.70627,14.69833.97943,27.11905,10.77264,32.56621,23.70627,8.50818,20.20166-4.23916,37.99224-4.85208,38.81656a48.59984,48.59984,0,0,1,31.53847,4.85207c4.03988,2.19712,18.69542,10.16769,21.83432,26.68639,3.80559,20.02724-12.70537,34.78912-14.55622,36.39054-15.067,13.03661-33.49079,10.20063-36.39053,9.70414-20.25549-3.46825-30.13833-19.47766-31.53846-21.83432,0,0-2.426,19.40828,16.98225,48.52071H151.18732s19.40829-21.83432,16.98225-48.52071a50.77126,50.77126,0,0,1-24.26035,19.40828c-4.2086,1.55618-22.42465,8.29175-38.81657-2.426-14.11943-9.23194-16.6934-24.7493-16.98225-26.68639-3.43817-23.05689,16.10378-38.16112,16.98225-38.81657C120.81709,1023.22576,138.76964,1027.05442,141.48318,1027.68047Z"/><polygon class="cls-1" points="654.862 1050.811 717.939 953.769 776.164 1050.811 717.939 1143 654.862 1050.811"/><path class="cls-3" d="M312.59564,469.65085s-22.75018,0-18.20015,18.20015c0,0-27.30022,0-18.20015,27.30023,0,0-27.30022-4.55-13.65011,18.20014,0,0,9.10008,13.65012-4.55,22.75019s18.20014,4.55,9.10007,18.20015-4.55,18.20015,0,27.30022-13.65011,18.20015,4.55,22.75019,27.30022,13.65011,22.75018,22.75018,4.55,9.10008,13.65012,9.10008-4.55,18.20015,9.10007,18.20015,18.20015,9.10007,27.30022,4.55,4.55,22.75019,27.30023,4.55,113.75092,13.65011,127.401-4.55,9.10007,4.55,18.20014,0,13.65012-13.65011,9.10008-22.75018,27.30022,13.65011,22.75018-13.65011,36.4003,0,27.30023-31.85026,18.20015-13.65012,0-40.95034,22.75018-13.65011-4.55-45.50037c0,0,9.10007-18.20015-9.10007-18.20015,0,0,9.10007-22.75018-13.65012-18.20015,0,0,18.20015-27.30022-22.75018-22.75018S312.59564,469.65085,312.59564,469.65085Z"/><path class="cls-4" d="M371.74613,642.55227H471.84694v81.90067c3.63373-5.84793,13.21063-19.37057,30.79579-25.8932,22.7095-8.42343,49.54358-1.74889,69.305,16.79312a78.223,78.223,0,0,1,28.89193,39.61787c9.51845,30.30924-3.54486,55.671-6.14174,60.48295H248.89512c-2.92014-4.91218-16.47764-28.88957-9.10007-59.15048.56764-2.32862,9.192-35.3393,41.38051-51.53784,28.204-14.19332,63.42447-9.90544,90.57057,10.5875Z"/><path class="cls-5" d="M257.9952,801.80357s-18.20015-68.25056,45.50037-86.45071C303.49557,715.35286,257.9952,769.95331,257.9952,801.80357Z"/><path class="cls-5" d="M328.52077,722.17792s36.4003,31.85026,0,86.4507a207.039,207.039,0,0,0,0-86.4507Z"/><path class="cls-5" d="M314.87066,722.17792s-40.95033,45.50037-31.85026,81.90067a202.54369,202.54369,0,0,0,31.85026-81.90067Z"/><path class="cls-5" d="M583.37832,802.71157s16.78537-68.25055-41.96342-86.4507C541.4149,716.26087,583.37832,770.86131,583.37832,802.71157Z"/><path class="cls-5" d="M518.335,723.08592s-33.57074,31.85026,0,86.45071a224.11933,224.11933,0,0,1,0-86.45071Z"/><path class="cls-5" d="M530.924,723.08592s37.76708,45.50037,29.3744,81.90067a210.16368,210.16368,0,0,1-20.98172-45.50037A216.82768,216.82768,0,0,1,530.924,723.08592Z"/><path class="cls-6" d="M471.847,699.29388l13.94818,15.0673q-8.07415,5.47932-16.55221,11.823c-6.35552,4.77423-12.30924,9.52656-17.8712,14.19385q-4.55-9.10008-9.10005-18.20014Z"/><path class="cls-6" d="M356.40875,713.34005q4.93506-7.44938,9.87024-14.89862,17.699,11.25541,35.39785,22.5107l-10.46579,14.69048Q373.80991,724.49131,356.40875,713.34005Z"/><path class="cls-4" d="M321.69572,474.20089H526.44739l27.30022-31.85026,4.55-22.75018q-11.375,2.27508-22.75019,4.55,2.2751-11.375,4.55-22.75018-11.375,4.55-22.75019,9.10007V387.75019q-9.10014,6.825-18.20014,13.65011-2.2751-11.375-4.55-22.75019-9.10014,6.82506-18.20015,13.65011-2.27509-11.375-4.55-22.75018l-18.20015,18.20015q-4.55-11.375-9.10007-22.75019-6.82506,11.375-13.65011,22.75019Q424.07155,376.37517,417.2465,365q-6.82506,11.375-13.65011,22.75019-4.55-11.375-9.10008-22.75019-6.82506,11.375-13.65011,22.75019Q374.02114,378.65,367.19609,369.55q-4.55,11.375-9.10008,22.75018-9.10014-6.825-18.20014-13.65011-2.2751,11.375-4.55,22.75019-11.375-4.55-22.75019-9.10008-2.27508,13.65012-4.55,27.30023-11.375-4.55-22.75019-9.10008v27.30022Z"/><path class="cls-7" d="M324.10459,474.20089h202.3428c31.85026,145.60119-77.35063,159.2513-77.35063,159.2513V647.1023q-13.65012,9.10016-27.30023,18.20015L394.49631,647.1023V633.45219c-118.301-13.65011-72.80059-159.2513-72.80059-159.2513h2.40887Z"/><circle class="cls-8" cx="372.60762" cy="514.227" r="9.10007"/><path class="cls-9" d="M372.60742,491.83008c-8.5083,0-13.1499-1.45459-13.1499-2.20166s4.6416-2.20166,13.1499-2.20166c8.50879,0,13.15039,1.45459,13.15039,2.20166S381.11621,491.83008,372.60742,491.83008Z"/><path d="M372.60764,487.92679c7.12463,0,11.35913,1.02948,12.45806,1.70157-1.09893.67212-5.33343,1.7016-12.45806,1.7016s-11.35917-1.02948-12.4581-1.7016c1.09893-.67209,5.33343-1.70157,12.4581-1.70157m0-1c-7.53876,0-13.65012,1.20953-13.65012,2.70157s6.11136,2.7016,13.65012,2.7016,13.65008-1.20957,13.65008-2.7016-6.11136-2.70157-13.65008-2.70157Z"/><circle class="cls-8" cx="469.01991" cy="513.72934" r="9.10007"/><path class="cls-9" d="M469.01953,491.33252c-8.50781,0-13.14941-1.45459-13.14941-2.20166s4.6416-2.20166,13.14941-2.20166c8.50879,0,13.15039,1.45459,13.15039,2.20166S477.52832,491.33252,469.01953,491.33252Z"/><path d="M469.01993,487.42911c7.12463,0,11.35913,1.02948,12.45807,1.7016-1.09891.67209-5.33341,1.70157-12.45807,1.70157s-11.35919-1.02948-12.4581-1.70157c1.09894-.67212,5.33343-1.7016,12.4581-1.7016m0-1c-7.53876,0-13.65012,1.20956-13.65012,2.7016s6.11136,2.70157,13.65012,2.70157S482.67,490.62274,482.67,489.13071s-6.11136-2.7016-13.65008-2.7016Z"/><path class="cls-9" d="M421.79639,575.36279c-10.80469,0-17.7002-1.8374-17.7002-3.102s6.89551-3.10205,17.7002-3.10205c10.80517,0,17.70068,1.8374,17.70068,3.10205S432.60156,575.36279,421.79639,575.36279Z"/><path d="M421.79654,569.65875c10.2308,0,16.34961,1.6236,17.15713,2.60211-.80749.97852-6.92623,2.60212-17.15713,2.60212s-16.34967-1.6236-17.15717-2.60212c.80753-.97851,6.92633-2.60211,17.15717-2.60211m0-1c-10.05167,0-18.20017,1.61273-18.20017,3.60211,0,1.98945,8.1485,3.60212,18.20017,3.60212s18.20013-1.61267,18.20013-3.60212c0-1.98938-8.14846-3.60211-18.20013-3.60211Z"/><path class="cls-5" d="M351.271,822.27873s31.85026,18.20015,36.4003,27.30023,13.65011-18.20015,22.75018-9.10008,9.10008,22.75019,27.30022,4.55c0,0,4.55-9.10007,9.10008,0,0,0,18.20015,9.10007,18.20015-9.10007,0,0,27.30022,9.10007,27.30022-13.65012L446.82174,726.728s-36.4003-40.95033-59.15048,13.65012Z"/><ellipse class="cls-10" cx="421.79653" cy="733.55301" rx="16.80014" ry="27.30022"/><path class="cls-11" d="M421.79639,761.85352c-9.81494,0-17.79981-12.69532-17.79981-28.30079,0-15.60449,7.98487-28.2998,17.79981-28.2998s17.80029,12.69531,17.80029,28.2998C439.59668,749.1582,431.61133,761.85352,421.79639,761.85352Zm0-54.60059c-8.71192,0-15.79981,11.79785-15.79981,26.2998s7.08789,26.30079,15.79981,26.30079c8.7124,0,15.80029-11.79883,15.80029-26.30079S430.50879,707.25293,421.79639,707.25293Z"/></svg>