<svg id="Layer_1" data-name="Layer 1" xmlns="http://www.w3.org/2000/svg" viewBox="0 0 841.88983 1190.55115"><defs><style>.cls-1{fill:#e51d2a;}.cls-2{fill:#020304;}.cls-3{fill:#fcf3e7;}.cls-4{fill:#0b3754;}.cls-5{fill:#c2212e;}.cls-6{fill:#020202;}.cls-7{fill:#156b9a;}.cls-8{fill:#dcd204;}</style></defs><path class="cls-1" d="M173.02164,101.81657c6.8507-13.90825,20.15171-23.21318,34.773-23.84886,20.47212-.89,33.05521,15.67121,35.582,18.99679a48.13881,48.13881,0,0,1,9.70414,24.26035c2.84264,30.70836-28.08868,58.01888-55.79881,82.48521-9.76495,8.62187-18.35047,15.13659-24.26036,19.40828a353.72335,353.72335,0,0,1-63.07692-58.22485C100.8933,154.151,94.80486,145.51356,92.96247,133.355c-2.32342-15.333,1.8633-37.86638,19.40829-48.52071,12.46928-7.57211,25.62525-5.46369,29.11242-4.85207C161.31864,83.46138,171.39109,99.17783,173.02164,101.81657Z"/><path class="cls-2" d="M695.51277,63.32544a116.63253,116.63253,0,0,1-16.98225,21.83432c-9.48933,9.55045-14.37308,11.02844-29.11243,24.26036-8.6533,7.7683-12.98,11.65249-16.98225,16.98225-5.13433,6.83736-14.27228,19.00626-14.55621,36.39053-.078,4.7784-.32032,21.20441,12.13018,33.9645a41.13039,41.13039,0,0,0,24.26035,12.13017c20.65044,2.39924,34.86812-12.86625,36.39054-14.55621,0,0,4.85207,16.98225-16.98225,43.66864h46.09467s-21.83432-29.11243-19.40828-43.66864c12.93144,12.50451,30.74282,17.26774,46.09467,12.13018,21.6724-7.25271,30.48355-31.57326,29.11243-48.52071-1.72843-21.36389-20.10989-36.84912-33.9645-48.52071-10.11956-8.525-17.40348-11.84121-29.11242-24.26036A146.34359,146.34359,0,0,1,695.51277,63.32544Z"/><path class="cls-2" d="M141.48318,1027.68047c-1.0101-1.71706-11.1943-19.72294-2.426-38.81656,6.14516-13.38163,20.47981-24.85969,37.78882-23.70627,14.69833.97943,27.11905,10.77264,32.56621,23.70627,8.50818,20.20166-4.23916,37.99224-4.85208,38.81656a48.59984,48.59984,0,0,1,31.53847,4.85207c4.03988,2.19712,18.69542,10.16769,21.83432,26.68639,3.80559,20.02724-12.70537,34.78912-14.55622,36.39054-15.067,13.03661-33.49079,10.20063-36.39053,9.70414-20.25549-3.46825-30.13833-19.47766-31.53846-21.83432,0,0-2.426,19.40828,16.98225,48.52071H151.18732s19.40829-21.83432,16.98225-48.52071a50.77126,50.77126,0,0,1-24.26035,19.40828c-4.2086,1.55618-22.42465,8.29175-38.81657-2.426-14.11943-9.23194-16.6934-24.7493-16.98225-26.68639-3.43817-23.05689,16.10378-38.16112,16.98225-38.81657C120.81709,1023.22576,138.76964,1027.05442,141.48318,1027.68047Z"/><polygon class="cls-1" points="654.862 1050.811 717.939 953.769 776.164 1050.811 717.939 1143 654.862 1050.811"/><path class="cls-3" d="M347.37569,645.03189S379.05519,810.333,462.83464,730.0443c0,0,41.71623-50.43251,43.54838-149.14C506.383,580.90427,333.15024,479.73083,347.37569,645.03189Z"/><path class="cls-4" d="M336.53105,538.48767h172.3428l-.65871-17.892H337.16551Z"/><path d="M337.16546,538.04972s3.49081,76.79783,10.47243,108.21513c0,0-10.47243-104.72432,73.307-59.34378,0,0,83.77945-55.853,76.79783,59.34378,0,0,6.98162,0,10.47243-108.21513Z"/><path d="M497.74316,646.76465l-.499-.53027c2.21191-36.49317-4.45605-59.47364-19.81836-68.30323-22.34668-12.84424-55.86767,9.18213-56.20361,9.40576l-.51563.02344c-23.10791-12.51611-41.11425-14.68017-53.51513-6.43213-23.70948,15.771-19.10547,64.79346-19.05616,65.28662l-.98584.15821c-6.91064-31.09961-10.44824-107.53223-10.48339-108.3003l.49951-.523H508.21484l.5.51612C505.30664,643.71484,498.50684,646.76465,497.74316,646.76465Zm-.14941-.9707ZM461.14844,572.9248a33.22769,33.22769,0,0,1,16.77636,4.13965c15.47754,8.896,22.34278,31.61328,20.41407,67.541,1.85058-4.19629,6.66211-22.95313,9.35937-106.05567H337.68945c.30274,6.34375,3.36719,68.28614,9.09522,100.792-.32324-14.335,1.14111-46.79834,19.85156-59.24512,12.686-8.44141,30.94922-6.33887,54.28565,6.24316C423.34473,584.78857,442.50684,572.9248,461.14844,572.9248Z"/><ellipse class="cls-5" cx="424.43573" cy="665.46431" rx="13.96324" ry="19.19946"/><path class="cls-6" d="M438.399,642.774s10.47243-24.43568,38.39892-13.96324C476.79789,628.8108,452.36221,632.30161,438.399,642.774Z"/><path d="M438.69922,643.1748l-.75977-.59765c.10645-.248,10.98243-24.75488,39.03418-14.23438l-.10547.96289C476.625,629.33984,452.39746,632.90039,438.69922,643.1748Zm24.7959-16.499c-14.16211,0-21.36621,10.27149-23.74024,14.52149,11.69336-7.89747,29.251-11.53125,35.04395-12.56153A36.01255,36.01255,0,0,0,463.49512,626.67578Z"/><path class="cls-6" d="M370.65905,631.84289s22.63375-13.94588,39.43347,10.69818C410.09252,642.54107,388.10535,631.32266,370.65905,631.84289Z"/><path d="M409.86523,642.98633c-.21923-.11231-22.09375-11.17285-39.19091-10.64356l-.27735-.92578c.23-.14258,23.23535-13.91113,40.1084,10.84278ZM372.67578,631.334c14.10693.27735,30.55225,7.418,35.88281,9.91211C394.90137,622.83887,378.10791,628.72559,372.67578,631.334Z"/><path d="M361.60156,636.292a.519.519,0,0,1-.10888-.01172.50089.50089,0,0,1-.37989-.59668c.16016-.71972,4.042-17.70507,14.73633-23.76074a16.47936,16.47936,0,0,1,13.83692-1.041c.53857.13379,14.14062,3.59472,21.14013,10.59375a.49995.49995,0,1,1-.707.707c-6.80176-6.80078-20.57422-10.30664-20.7124-10.34082a15.54643,15.54643,0,0,0-13.06494.95117c-10.311,5.83887-14.21436,22.93555-14.25244,23.10742A.50011.50011,0,0,1,361.60156,636.292Z"/><path d="M487.26953,636.292a.50012.50012,0,0,1-.48828-.39551c-2.80762-13.10351-8.40723-21.28125-16.64355-24.30761-16.44141-6.04395-38.19825,10.46875-38.416,10.63672a.5.5,0,0,1-.60938-.793c.90625-.69727,22.4043-17.01856,39.36719-10.78321,8.58106,3.15137,14.39551,11.5752,17.28028,25.03809a.50091.50091,0,0,1-.38477.59375A.55182.55182,0,0,1,487.26953,636.292Z"/><path d="M425.82031,719.05566c-29.46582,0-53.92871-40.69921-54.17676-41.11816a.5.5,0,0,1,.86036-.50977c.24511.41309,24.42529,40.62793,53.30957,40.62793.51757,0,1.03027-.01269,1.5498-.03808,17.01563-.85547,32.32031-15.67188,45.49024-44.03711a.49982.49982,0,0,1,.90625.42187c-13.33789,28.7295-28.93164,43.73926-46.34766,44.61329C426.88184,719.043,426.34766,719.05566,425.82031,719.05566Z"/><path d="M365.09131,681.67285a.49413.49413,0,0,1-.22315-.05273.50013.50013,0,0,1-.22363-.6709c3.58789-7.17578,13.97022-7.25781,14.41065-7.25781a.5.5,0,0,1,0,1c-.10157,0-10.20655.08593-13.51612,6.70507A.50093.50093,0,0,1,365.09131,681.67285Z"/><path d="M480.28906,678.18262a.50132.50132,0,0,1-.44726-.27637c-3.31055-6.62012-13.415-6.70605-13.5166-6.70605a.5.5,0,0,1,0-1c.44043,0,10.82324.082,14.41113,7.25878a.5.5,0,0,1-.44727.72364Z"/><path class="cls-5" d="M466.32545,456.11834s73.307-47.22861,139.63243,29.56922c0,0-76.79784-27.92648-97.7427,34.90811H444.66189Z"/><path class="cls-5" d="M400.5159,471.29552s-87.78611-76.369-164.58395,21.37366c0,0,87.27027-41.88973,101.23351,27.92649h55.7503Z"/><path class="cls-4" d="M382.0838,458.85845s-3.02861-56.95034-69.354-77.89521c0,0,75.47681-27.105,109.3,45.79128l-1.08489,41.479-10.47244,17.454Z"/><circle class="cls-5" cx="300.51195" cy="379.21784" r="12.21784"/><circle class="cls-7" cx="227.20493" cy="497.9054" r="12.21784"/><circle class="cls-5" cx="544.86869" cy="379.21784" r="12.21784"/><circle class="cls-7" cx="614.6849" cy="490.92378" r="12.21784"/><path class="cls-8" d="M355.05195,674.19133s-35.34054,20.94487-45.813,52.36216c0,0,35.56989-28.65272,61.42007-14.32636Z"/><path class="cls-5" d="M372.07357,712.59025s-24.43568,31.4173-17.45406,69.81621c0,0,23.756-38.31355,41.54991-38.35623C396.16942,744.05023,375.56438,726.55349,372.07357,712.59025Z"/><path class="cls-4" d="M398.10781,745.35877l26.32792,57.99256,23.10006-60.90393S424.14206,760.67324,398.10781,745.35877Z"/><path class="cls-5" d="M448.8714,744.00755s31.4173,10.47243,41.88973,38.39891c0,0,5.09473-41.2945-14.90669-73.00941l-26.983,34.6105"/><path class="cls-8" d="M476.79789,705.60863s34.9081,0,55.853,17.45405c0,0-13.10166-40.16312-41.45894-49.75345Z"/><circle class="cls-5" cx="303.87618" cy="731.96024" r="10.61758"/><circle class="cls-7" cx="353.07169" cy="791.61281" r="10.61758"/><circle class="cls-5" cx="536.29929" cy="731.74636" r="10.61758"/><circle class="cls-7" cx="490.94593" cy="791.61281" r="10.61758"/><circle class="cls-5" cx="425.63708" cy="813.38242" r="10.61758"/><path class="cls-8" d="M388.60358,520.59567s18.37809-164.0681,144.04728-143.12324c0,0-112.52731,45.38054-45.79123,143.12324Z"/></svg>