<svg id="Layer_1" data-name="Layer 1" xmlns="http://www.w3.org/2000/svg" viewBox="0 0 841.88983 1190.55115"><defs><style>.cls-1{fill:#e51d2a;}.cls-2{fill:#020304;}.cls-3{fill:#96191d;}.cls-4{fill:#093854;}.cls-5{fill:#68c3cc;}.cls-6{fill:#d4d9dc;}.cls-7{fill:#e8e2dd;}.cls-8{fill:#dcd204;}.cls-9{fill:#802176;}.cls-10{fill:#fcf3e7;}.cls-11{fill:#a9adaf;}.cls-12{fill:#1c1b1b;}.cls-13{fill:#908f90;}</style></defs><path class="cls-1" d="M173.02164,101.81657c6.8507-13.90825,20.15171-23.21318,34.773-23.84886,20.47212-.89,33.05521,15.67121,35.582,18.99679a48.13881,48.13881,0,0,1,9.70414,24.26035c2.84264,30.70836-28.08868,58.01888-55.79881,82.48521-9.76495,8.62187-18.35047,15.13659-24.26036,19.40828a353.72335,353.72335,0,0,1-63.07692-58.22485C100.8933,154.151,94.80486,145.51356,92.96247,133.355c-2.32342-15.333,1.8633-37.86638,19.40829-48.52071,12.46928-7.57211,25.62525-5.46369,29.11242-4.85207C161.31864,83.46138,171.39109,99.17783,173.02164,101.81657Z"/><path class="cls-2" d="M695.51277,63.32544a116.63253,116.63253,0,0,1-16.98225,21.83432c-9.48933,9.55045-14.37308,11.02844-29.11243,24.26036-8.6533,7.7683-12.98,11.65249-16.98225,16.98225-5.13433,6.83736-14.27228,19.00626-14.55621,36.39053-.078,4.7784-.32032,21.20441,12.13018,33.9645a41.13039,41.13039,0,0,0,24.26035,12.13017c20.65044,2.39924,34.86812-12.86625,36.39054-14.55621,0,0,4.85207,16.98225-16.98225,43.66864h46.09467s-21.83432-29.11243-19.40828-43.66864c12.93144,12.50451,30.74282,17.26774,46.09467,12.13018,21.6724-7.25271,30.48355-31.57326,29.11243-48.52071-1.72843-21.36389-20.10989-36.84912-33.9645-48.52071-10.11956-8.525-17.40348-11.84121-29.11242-24.26036A146.34359,146.34359,0,0,1,695.51277,63.32544Z"/><path class="cls-2" d="M141.48318,1027.68047c-1.0101-1.71706-11.1943-19.72294-2.426-38.81656,6.14516-13.38163,20.47981-24.85969,37.78882-23.70627,14.69833.97943,27.11905,10.77264,32.56621,23.70627,8.50818,20.20166-4.23916,37.99224-4.85208,38.81656a48.59984,48.59984,0,0,1,31.53847,4.85207c4.03988,2.19712,18.69542,10.16769,21.83432,26.68639,3.80559,20.02724-12.70537,34.78912-14.55622,36.39054-15.067,13.03661-33.49079,10.20063-36.39053,9.70414-20.25549-3.46825-30.13833-19.47766-31.53846-21.83432,0,0-2.426,19.40828,16.98225,48.52071H151.18732s19.40829-21.83432,16.98225-48.52071a50.77126,50.77126,0,0,1-24.26035,19.40828c-4.2086,1.55618-22.42465,8.29175-38.81657-2.426-14.11943-9.23194-16.6934-24.7493-16.98225-26.68639-3.43817-23.05689,16.10378-38.16112,16.98225-38.81657C120.81709,1023.22576,138.76964,1027.05442,141.48318,1027.68047Z"/><polygon class="cls-1" points="654.862 1050.811 717.939 953.769 776.164 1050.811 717.939 1143 654.862 1050.811"/><path class="cls-3" d="M277.54977,621.68684s-63.00948,13.57594-63.00948,192.71439h416.4969s0-192.57383-85.09076-188.09537S277.54977,621.68684,277.54977,621.68684Z"/><path class="cls-4" d="M388.20593,815h74.477V766.12448c-8.209-.13186-13.26511-2.578-16.29184-4.65481-11.74819-8.06107-13.04443-24.36449-23.27406-25.60146a7.81687,7.81687,0,0,0-2.3274,0c-6.87291,1.09236-8.39906,11.22238-13.96444,18.61925a30.35058,30.35058,0,0,1-12.77061,9.58865,47.81893,47.81893,0,0,1-5.84863,2.04837Z"/><rect class="cls-5" x="430.26345" y="742.83487" width="1.99947" height="86.1457" transform="translate(-452.47934 635.44834) rotate(-51.58232)"/><rect class="cls-5" x="403.49026" y="779.61009" width="2.00043" height="45.17826" transform="translate(-485.6895 680.89077) rotate(-55.4814)"/><rect class="cls-5" x="373.96049" y="776.76143" width="77.36662" height="2.00057" transform="translate(-434.34852 537.36163) rotate(-46.20626)"/><rect class="cls-5" x="408.68603" y="787.23444" width="61.44581" height="2.00084" transform="translate(-453.83617 659.75297) rotate(-52.67698)"/><path class="cls-6" d="M388.8098,767.44636v46.95488H370.49263a97.12037,97.12037,0,0,0-.90594-48.27676Q379.19821,766.78541,388.8098,767.44636Z"/><path class="cls-6" d="M461.54369,766.9133v47.48793H483.936s-7.57895-41.90707-5.68825-50.32857Z"/><path class="cls-7" d="M425.028,738.26739s8.95693,44.78461,62.69846,22.39231S595.2095,733.78893,622.08027,724.832c9.88274-7.83157,13.37689-20.89849,8.95692-31.34923-5.33922-12.62492-21.35442-19.36817-35.82769-13.43539,0,0-89.56922,40.30615-111.96153,58.22,0,0-53.74154,22.39231-44.78461-35.82769V603.91355H407.11413V711.39662s-2.06894,24.82589-17.45545,30.8881c-9.04931,3.56536-17.8589-1.37519-31.80763-8.49579-38.07375-19.4361-78.20551-34.62334-116.44-53.74154l-8.95692-4.47846a27.13676,27.13676,0,0,0-11.28281,49.55487L366.808,765.13816s44.78461,13.43538,49.26307-22.39231C416.07105,742.74585,420.54951,729.31047,425.028,738.26739Z"/><path class="cls-8" d="M402.63567,666.612c1.82839-11.31178,12.02875-19.02574,22.3923-17.91385,8.92577.95759,16.48071,8.30213,17.91385,17.91385,0,0,28.079-13.1086,34.19255-19.98969,6.52061-7.33927,20.25667-1.27528,21.02941,1.93.50405,2.09088-3.56959,4.32143-10.43735,9.10276a217.46718,217.46718,0,0,0-22.3923,17.91384c-.72628.68486-6.01766,5.51129-13.43539,4.47846a16.11828,16.11828,0,0,1-8.95692-4.47846c3.59091,18.91223-9.45578,33.9106-20.96354,34.33086-10.85174.39621-24.10508-12.0334-23.82107-29.8524,0,0-40.372-10.16893-49.29615-34.19446-1.41893-3.82025-.752-5.332-.33048-5.9075a1.73865,1.73865,0,0,1,.16155-.19626c1.73519-1.74305,10.85611,4.24407,18.11585,8.949,15.68664,10.16633,18.90963,11.90125,22.3923,13.43539A76.20541,76.20541,0,0,0,402.63567,666.612Z"/><ellipse class="cls-9" cx="422.78874" cy="680.04739" rx="15.67461" ry="22.39231"/><path class="cls-8" d="M322.02336,447.1674H523.55412V393.42587c7.44124-5.26146,8.26837-14.04706,4.69031-17.90565-3.19949-3.45035-10.39143-3.468-13.64723-.0082-3.64531,3.8739-2.88924,12.6744,4.47846,17.91385l-22.39231,22.3923-22.3923-17.91384v-8.95692c.20993-.14447,4.90023-3.4891,4.47846-8.95693a9.94923,9.94923,0,0,0-8.95692-8.95692,9.40336,9.40336,0,0,0-8.95693,4.47846c-2.27585,4.15011-.63279,10.238,4.47847,13.43539v8.95692l-22.39231,17.91384L425.028,397.90433v-8.95692c5.03691-3.51165,6.628-9.48913,4.47846-13.43539-2.39066-4.38887-8.43483-4.47846-8.95692-4.47846s-6.56626.08959-8.95692,4.47846c-2.14957,3.94626-.55844,9.92374,4.47846,13.43539v8.95692l-17.91384,17.91384L375.7649,397.90433v-8.95692c.20993-.14447,4.90023-3.4891,4.47846-8.95693a9.94923,9.94923,0,0,0-8.95692-8.95692,9.40334,9.40334,0,0,0-8.95692,4.47846c-2.27586,4.15011-.6328,10.238,4.47846,13.43539v8.95692l-17.91385,17.91384q-8.95679-6.71769-17.91384-13.43538V388.94741c1.80406-5.52421-.28811-11.14914-4.47847-13.43539a9.63311,9.63311,0,0,0-8.95692,0c-4.59272,2.42483-7.16215,8.84007-4.47846,13.43539,2.6282,4.50019,8.70435,4.483,8.95692,4.47846Z"/><path class="cls-6" d="M322.02336,447.1674a499.77855,499.77855,0,0,1-22.3923,62.69846c-7.20835,16.49957-11.61109,23.89173-13.43539,26.87077-12.23076,19.97342-19.6873,20.901-22.3923,31.34923-5.1733,19.9821,3.22463,43.62987,17.91384,58.22,24.91882,24.75085,64.71437,20.22906,85.09077,17.91384,31.45446-3.574,32.72414-13.15172,58.2353-12.74533,32.04079.5104,35.49312,15.70523,67.16161,17.22379,8.18364.39246,49.452,1.36775,71.65538-26.87076,8.4988-10.8089,16.4818-28.79457,13.43539-44.78462a49.1103,49.1103,0,0,0-4.47846-13.43538c-3.93068-7.07516-8.20824-9.29881-13.43539-17.91385a61.42511,61.42511,0,0,1-4.47846-8.95692Q539.22888,491.952,523.55412,447.1674Z"/><path class="cls-10" d="M326.50182,545.69355c9.76493,10.4254,31.01849,13.514,42.87121,6.13124,3.95282-2.46215,8.96895-7.39935,17.91385-8.95693a23.20043,23.20043,0,0,1,8.95692,0c7.42265,1.59585,11.86038,6.87056,13.43538,8.95693a16.74328,16.74328,0,0,0,8.07813,3.53884c6.63541.85263,10.95616-3.923,18.79264-8.01731,6.18713-3.23256,12.80806-6.69192,19.82725-6.13123,12.6334,1.00919,14.73705,14.09674,31.34923,17.91385a27.26077,27.26077,0,0,0,13.43539,0,25.34895,25.34895,0,0,0,8.95692-4.47846,26.49827,26.49827,0,0,0,8.95692-13.43539,90.21056,90.21056,0,0,0-19.82725-87.91645H342.50226c-14.14033,21.22984-18.747,40.407-20.4789,52.08876C319.61958,521.60064,317.47629,536.05778,326.50182,545.69355Z"/><ellipse class="cls-11" cx="370.49262" cy="484.42389" rx="13.43538" ry="4.25446"/><circle class="cls-12" cx="370.49262" cy="513.75789" r="11.19615"/><path d="M370.49268,525.4541A11.69629,11.69629,0,1,1,382.189,513.75781,11.70971,11.70971,0,0,1,370.49268,525.4541Zm0-22.39258A10.69629,10.69629,0,1,0,381.189,513.75781,10.70841,10.70841,0,0,0,370.49268,503.06152Z"/><ellipse class="cls-11" cx="472.73985" cy="484.90877" rx="13.43538" ry="4.25446"/><circle class="cls-12" cx="472.73985" cy="514.77872" r="11.19615"/><path d="M472.74023,526.4751a11.69629,11.69629,0,1,1,11.69532-11.69629A11.70971,11.70971,0,0,1,472.74023,526.4751Zm0-22.39258a10.69629,10.69629,0,1,0,10.69532,10.69629A10.70809,10.70809,0,0,0,472.74023,504.08252Z"/><ellipse class="cls-9" cx="422.22667" cy="431.49279" rx="8.95692" ry="11.19615"/><ellipse class="cls-9" cx="399.33918" cy="432.94801" rx="5.29512" ry="6.6189"/><ellipse class="cls-9" cx="445.11416" cy="432.86157" rx="5.29512" ry="6.6189"/><path class="cls-13" d="M478.19629,606.83105c-11.41211.001-21.876-5.63378-27.66309-8.749a51.32034,51.32034,0,0,1-15.98242-12.86719c-2.93359-3.33838-5.05371-5.75048-9.84082-6.561-8.1123-1.37842-13.75146,3.42187-20.88037,9.49658-7.26611,6.1919-16.30908,13.89844-30.89648,16.47656-14.7251,2.60254-25.79737.3711-32.90577-6.62988a26.56378,26.56378,0,0,1-6.61816-26.4834c2.57471-7.9834,9.46728-16.52051,18.54834-16.52051.06006,0,.11963.00049.18018.001,5.874.07373,13.022,3.62207,14.69873,10.05322,1.3125,5.03223-1.08838,10.11914-3.77295,13.20166-2.64551,3.03711-5.86573,4.65479-8.62256,4.33252a9.814,9.814,0,0,1-6.377-4.15576,8.702,8.702,0,0,1-1.68115-6.86133c1.02442-4.90332,6.59033-6.78808,6.82666-6.86621a.50013.50013,0,0,1,.3125.9502c-.21386.07031-5.25244,1.77588-6.16064,6.1206a7.71875,7.71875,0,0,0,1.51416,6.07276,8.91993,8.91993,0,0,0,5.68262,3.74658c2.38574.27881,5.35888-1.24951,7.75146-3.99609,2.5166-2.89014,4.77344-7.63721,3.55908-12.293-1.55176-5.95166-8.23926-9.23633-13.74365-9.30518-.05518-.001-.11084-.001-.166-.001-9.1621,0-15.53808,9.44092-17.59765,15.82715-3.24512,10.06153.85986,20.03907,6.36816,25.46387,6.86475,6.7627,17.64063,8.89941,32.02832,6.3584,14.32129-2.53125,22.87549-9.82129,30.42334-16.25293,7.03662-5.99707,13.11573-11.17188,21.69678-9.72217,5.13574.87061,7.35449,3.394,10.42383,6.88721a50.42886,50.42886,0,0,0,15.7041,12.64551c7.60547,4.0957,23.42969,12.60937,38.53516,6.47168,9.91406-4.03028,20.002-14.32813,19.16992-25.47413-.49121-6.58252-4.92774-14.73535-12.457-17.58105-4.09571-1.54883-7.88184-1.55322-11.25293-.01318-3.8291,1.75-7.71387,5.85058-7.75879,11.06787a13.47426,13.47426,0,0,0,5.07519,10.1333c2.39356,1.96679,5.06641,2.8291,7.31055,2.35986,2.5752-.53271,5.0918-3.06641,6.12012-6.16162a10.08239,10.08239,0,0,0-.001-6.18311.5.5,0,0,1,.95215-.30566,11.09853,11.09853,0,0,1-.002,6.8042c-.96,2.88867-3.45508,6.11963-6.86622,6.82568-2.5498.52784-5.52148-.40771-8.14843-2.5664a14.495,14.495,0,0,1-5.44043-10.915c.04883-5.65674,4.22558-10.08692,8.34277-11.96826,2.48926-1.13819,6.59668-2.064,12.02246-.01319,7.91992,2.99414,12.58594,11.54395,13.10156,18.44239.876,11.74218-9.293,22.20654-19.791,26.47412A30.87364,30.87364,0,0,1,478.19629,606.83105Z"/></svg>