<svg id="Layer_1" data-name="Layer 1" xmlns="http://www.w3.org/2000/svg" viewBox="0 0 841.88983 1190.55115"><defs><style>.cls-1{fill:#e51d2a;}.cls-2{fill:#020304;}.cls-3{fill:#f3d167;}.cls-4{fill:#96191e;}.cls-5{fill:#fcf3e7;}.cls-6{fill:#10100f;}.cls-7{fill:#020202;}.cls-8{fill:#e16c69;}.cls-9{fill:#3e6db4;}</style></defs><path class="cls-1" d="M173.02164,101.81657c6.8507-13.90825,20.15171-23.21318,34.773-23.84886,20.47212-.89,33.05521,15.67121,35.582,18.99679a48.13881,48.13881,0,0,1,9.70414,24.26035c2.84264,30.70836-28.08868,58.01888-55.79881,82.48521-9.76495,8.62187-18.35047,15.13659-24.26036,19.40828a353.72335,353.72335,0,0,1-63.07692-58.22485C100.8933,154.151,94.80486,145.51356,92.96247,133.355c-2.32342-15.333,1.8633-37.86638,19.40829-48.52071,12.46928-7.57211,25.62525-5.46369,29.11242-4.85207C161.31864,83.46138,171.39109,99.17783,173.02164,101.81657Z"/><path class="cls-2" d="M695.51277,63.32544a116.63253,116.63253,0,0,1-16.98225,21.83432c-9.48933,9.55045-14.37308,11.02844-29.11243,24.26036-8.6533,7.7683-12.98,11.65249-16.98225,16.98225-5.13433,6.83736-14.27228,19.00626-14.55621,36.39053-.078,4.7784-.32032,21.20441,12.13018,33.9645a41.13039,41.13039,0,0,0,24.26035,12.13017c20.65044,2.39924,34.86812-12.86625,36.39054-14.55621,0,0,4.85207,16.98225-16.98225,43.66864h46.09467s-21.83432-29.11243-19.40828-43.66864c12.93144,12.50451,30.74282,17.26774,46.09467,12.13018,21.6724-7.25271,30.48355-31.57326,29.11243-48.52071-1.72843-21.36389-20.10989-36.84912-33.9645-48.52071-10.11956-8.525-17.40348-11.84121-29.11242-24.26036A146.34359,146.34359,0,0,1,695.51277,63.32544Z"/><path class="cls-2" d="M141.48318,1027.68047c-1.0101-1.71706-11.1943-19.72294-2.426-38.81656,6.14516-13.38163,20.47981-24.85969,37.78882-23.70627,14.69833.97943,27.11905,10.77264,32.56621,23.70627,8.50818,20.20166-4.23916,37.99224-4.85208,38.81656a48.59984,48.59984,0,0,1,31.53847,4.85207c4.03988,2.19712,18.69542,10.16769,21.83432,26.68639,3.80559,20.02724-12.70537,34.78912-14.55622,36.39054-15.067,13.03661-33.49079,10.20063-36.39053,9.70414-20.25549-3.46825-30.13833-19.47766-31.53846-21.83432,0,0-2.426,19.40828,16.98225,48.52071H151.18732s19.40829-21.83432,16.98225-48.52071a50.77126,50.77126,0,0,1-24.26035,19.40828c-4.2086,1.55618-22.42465,8.29175-38.81657-2.426-14.11943-9.23194-16.6934-24.7493-16.98225-26.68639-3.43817-23.05689,16.10378-38.16112,16.98225-38.81657C120.81709,1023.22576,138.76964,1027.05442,141.48318,1027.68047Z"/><polygon class="cls-1" points="654.862 1050.811 717.939 953.769 776.164 1050.811 717.939 1143 654.862 1050.811"/><path class="cls-3" d="M371.31993,422.28813H473.74677V392.41364l8.53556-12.80336c2.82366,2.14392,6.51968,1.97773,8.53557,0,2.589-2.53986,1.05-6.73588,0-8.53557-1.35217-2.31727-4.7528-5.56161-8.53557-4.26778-3.1094,1.06343-5.13363,4.73366-4.26778,8.53557q-8.53544,10.6694-17.07114,21.33892-4.26792-10.6694-8.53557-21.33892c4.69446-3.45312,6.23523-9.0034,4.26779-12.80336-1.46653-2.83251-5.24487-5.39321-8.53557-4.26778-4.30425,1.47213-4.27638,8.055-4.26779,8.53557a11.89578,11.89578,0,0,0,4.26779,8.53557q-6.40168,8.53563-12.80336,17.07114-4.26791-6.40168-8.53557-12.80336v-8.53557c.78016-.3342,3.68587-1.67947,4.26779-4.26778.85856-3.8191-3.74942-8.53557-8.53557-8.53557s-9.44883,4.72923-8.53557,8.53557c.6447,2.68716,3.64314,4.00717,4.26779,4.26778v8.53557L409.73,392.41364l-12.80336-12.80336V375.3425c2.58349-8.81846-.28549-15.85507-4.26778-17.07114-2.88357-.88057-6.8419,1.14066-8.53557,4.26778-2.16958,4.00561-.60016,9.78265,4.26778,12.80336v8.53557l-4.26778,8.53557-21.33892-12.80336a8.97869,8.97869,0,0,0-4.26779-8.53557c-2.4272-1.41938-6.0073-1.85374-8.53557,0-3.8497,2.82275-3.96849,10.003,0,12.80336,2.29227,1.61761,5.6382,1.55483,8.53557,0q6.40169,4.26771,12.80335,8.53557Z"/><path class="cls-4" d="M372.25808,415.96266a87.35008,87.35008,0,0,0-31.87961,19.0155c-40.728,38.57486-25.86006,103.932-24.53979,109.362a76.6496,76.6496,0,0,0-9.06905,11.7364c-3.98045,6.19187-10.73682,16.75582-12.26976,30.94145-.84891,7.85687.93514,7.18871,0,12.80333-2.68955,16.147-16.58647,16.51046-21.33894,29.87449-6.39832,17.99224,13.77914,31.42686,5.44232,52.00049-2.30009,5.676-2.273,7.26218-5.44232,12.01628-8.53555,12.80339,8.53555,29.87449,8.53555,29.87449L567.638,727.85484v-8.53555s12.80339-17.0711-4.26771-38.41005V663.83807c2.36195-2.80109,10.48016-13.11251,8.53541-25.60672-1.40785-9.04569-7.59133-16.02827-8.53541-17.0711-4.46454-4.93112-8.435-6.31519-12.80339-12.80336a37.45532,37.45532,0,0,1-4.26771-8.53558,44.39062,44.39062,0,0,0,1.06672-18.67156c-3.1693-19.71882-19.12278-30.43412-22.4058-32.54185,13.513-50.63266-6.27526-102.83035-46.9456-128.03352C429.72823,390.65159,376.5534,413.99149,372.25808,415.96266Z"/><path class="cls-5" d="M341.44544,514.46563c0-8.39634,3.907-30.10684,21.33893-46.94563,4.7179-4.55731,23.78305-22.974,42.67784-17.07114a29.0603,29.0603,0,0,1,12.80336,8.53557c1.2,1.48268,3.28263,3.57972,6.02762,3.75515,6.01277.38435,8.67779-8.86782,15.3113-12.29072,9.75516-5.03361,24.06516,4.61749,29.87449,8.53557,23.856,16.08937,31.61609,43.85771,34.14228,55.4812a1.88833,1.88833,0,0,0,.42433,1.09456c1.30685,1.59234,5.3738-.51342,8.11124-1.09456,5.794-1.23,13.52307,2.45768,17.07113,8.53557,4.51395,7.73223.41939,16.235,0,17.07114a19.747,19.747,0,0,1-8.53556,8.53557,61.73076,61.73076,0,0,0-8.53557,4.26778c-1.76218,1.059-3.361,2.14-4.80126,3.20084-.00026.00026-8.8406,2.74408-12.26988,9.60252-4.26779,8.53557-25.60671,34.14227-51.21342,34.14227v72.55234L507.889,719.31929l-76.82012,68.28456-98.159-68.28456,68.28456-46.94563V599.82132s-34.14228,0-59.749-46.94563a18.1098,18.1098,0,0,1-11.23185.79162c-9.56761-2.66776-13.06644-13.72717-14.37485-17.86276a36.68776,36.68776,0,0,1,0-21.33892,12.93256,12.93256,0,0,1,8.53556-4.26778c5.22846-.29709,10.36835,3.08479,12.80336,8.53557C337.17766,518.73342,341.44544,518.73342,341.44544,514.46563Z"/><path d="M393.88281,527.75977c-7.1875,0-13.03515-4.63868-13.03515-10.34034s5.84765-10.34033,13.03515-10.34033,13.03516,4.63867,13.03516,10.34033S401.07031,527.75977,393.88281,527.75977Zm0-15.68067c-4.35547,0-8.03515,2.4458-8.03515,5.34033s3.67968,5.34034,8.03515,5.34034,8.03516-2.44581,8.03516-5.34034S398.23828,512.0791,393.88281,512.0791Z"/><path d="M457.09375,527.75977c-7.1875,0-13.03516-4.63868-13.03516-10.34034s5.84766-10.34033,13.03516-10.34033,13.03516,4.63867,13.03516,10.34033S464.28125,527.75977,457.09375,527.75977Zm0-15.68067c-4.35547,0-8.03516,2.4458-8.03516,5.34033s3.67969,5.34034,8.03516,5.34034,8.03516-2.44581,8.03516-5.34034S461.44922,512.0791,457.09375,512.0791Z"/><path class="cls-6" d="M392.74268,497.52588c-7.62256,0-12.30323-1.75684-12.30323-3.0166s4.68067-3.0166,12.30323-3.0166c7.623,0,12.30371,1.75683,12.30371,3.0166S400.36572,497.52588,392.74268,497.52588Z"/><path d="M392.74289,491.99283c7.5867,0,11.71237,1.76471,11.80341,2.51523-.091.7529-4.21671,2.51761-11.80341,2.51761s-11.71237-1.76471-11.80341-2.51523c.091-.7529,4.21671-2.51761,11.80341-2.51761m0-1c-7.07111,0-12.80335,1.57434-12.80335,3.51642s5.73224,3.51642,12.80335,3.51642,12.80334-1.57435,12.80334-3.51642-5.73223-3.51642-12.80334-3.51642Z"/><ellipse class="cls-6" cx="456.75977" cy="494.50928" rx="12.30371" ry="3.0166"/><path d="M456.75964,491.99283c7.5867,0,11.71238,1.76471,11.80344,2.51523-.09106.7529-4.21674,2.51761-11.80344,2.51761s-11.71234-1.76471-11.8034-2.51523c.09106-.7529,4.2167-2.51761,11.8034-2.51761m0-1c-7.07107,0-12.80334,1.57434-12.80334,3.51642s5.73227,3.51642,12.80334,3.51642,12.80338-1.57435,12.80338-3.51642-5.73227-3.51642-12.80338-3.51642Z"/><path class="cls-7" d="M422.5332,571.58057c-8.50781,0-14.437-1.98536-14.437-3.76758s5.9292-3.76807,14.437-3.76807,14.4375,1.98584,14.4375,3.76807S431.041,571.58057,422.5332,571.58057Z"/><path d="M422.53336,564.54517c9.01788,0,13.93722,2.15869,13.93722,3.26776,0,1.10913-4.91934,3.26782-13.93722,3.26782s-13.93726-2.15869-13.93726-3.26782c0-1.10907,4.91937-3.26776,13.93726-3.26776m0-1c-8.24964,0-14.93726,1.91076-14.93726,4.26776s6.68762,4.26782,14.93726,4.26782,14.93722-1.91077,14.93722-4.26782-6.68762-4.26776-14.93722-4.26776Z"/><path class="cls-8" d="M413.99778,569.94683a8.57591,8.57591,0,1,0,17.07114,0Z"/><path class="cls-8" d="M328.8932,561.58878S311.571,587.018,311.571,595.55354s8.53557-4.26779,8.53557-4.26779h0l4.26778-4.26778c-1.212,4.37055-4.99193,18.47085-2.7403,19.39024,2.18078.89033,8.98-11.0064,11.27587-15.12246.35348,3.08375,2.02579,17.07114,4.26779,17.07114s3.9143-13.98739,4.26778-17.07114q8.60265,14.318,11.075,13.32889,3.78576-1.516-6.80725-38.93559Z"/><path class="cls-8" d="M498.0427,566.06145s-5.46335,30.27963-1.9869,38.07515,6.0573-7.37421,6.0573-7.37421h0l2.15954-5.636c.67313,4.48527,2.96386,18.90258,5.39473,18.82518,2.35433-.07506,3.71859-13.70957,4.139-18.40386,1.57881,2.67242,8.803,14.766,10.85066,13.85283s-2.122-14.36892-3.05513-17.32928q13.68836,9.57286,15.54353,7.66251,2.84007-2.92649-22.07511-32.78731Z"/><circle class="cls-3" cx="392.65886" cy="668.10588" r="8.53557"/><circle class="cls-9" cx="405.46221" cy="672.37366" r="8.53557"/><circle class="cls-8" cx="422.53335" cy="676.64145" r="8.53557"/><circle class="cls-9" cx="439.60449" cy="676.64145" r="8.53557"/><circle class="cls-8" cx="448.14006" cy="672.37366" r="8.53557"/><circle class="cls-8" cx="401.19443" cy="689.4448" r="8.53557"/><circle class="cls-3" cx="413.99778" cy="689.4448" r="8.53557"/><circle class="cls-9" cx="431.06892" cy="689.4448" r="8.53557"/><circle class="cls-3" cx="448.14006" cy="689.4448" r="8.53557"/><circle class="cls-9" cx="405.46221" cy="702.24815" r="8.53557"/><circle class="cls-9" cx="439.60449" cy="702.24815" r="8.53557"/><ellipse class="cls-8" cx="422.53335" cy="708.64983" rx="8.53557" ry="10.66946"/><path class="cls-8" d="M388.39107,753.46157c7.31338,6.8458,13.7945,14.10851,25.60671,21.33892,4.42277,2.70722,6.63429,4.06083,8.53557,4.26779,11.11854,1.21008,16.87786-14.23459,34.14228-29.8745,11.4345-10.3587,22.02947-15.55186,34.14227-21.33892,16.01357-7.6507,27.153-12.961,42.67785-12.80335,6.32588.06421,24.65385.25006,34.14228,12.80335,1.571,2.07828,7.43163,9.832,4.26778,17.07114-2.397,5.48438-9.20033,8.90442-17.07114,8.53557l12.80336,59.749H273.16089l12.80335-59.749c-9.05654-3.56969-14.92083-11.687-14.783-20.18.12191-7.50873,4.89165-12.60629,6.24747-13.96225a92.10834,92.10834,0,0,1,25.60671-4.26778c31.95863-.71256,55.97143,15.80492,64.01677,21.33892A206.55136,206.55136,0,0,1,388.39107,753.46157Z"/><ellipse class="cls-9" cx="281.81455" cy="779.11498" rx="36.45818" ry="7.09167" transform="translate(-545.81755 817.38633) rotate(-72.76196)"/><ellipse class="cls-9" cx="296.75723" cy="782.13275" rx="32.44654" ry="6.31134" transform="translate(-536.67553 854.14889) rotate(-74.16083)"/><ellipse class="cls-9" cx="309.90777" cy="783.30468" rx="30.46217" ry="5.92535" transform="translate(-528.24171 867.65219) rotate(-74.16083)"/><ellipse class="cls-9" cx="322.02043" cy="785.11784" rx="29.47445" ry="5.73323" transform="translate(-524.83064 839.43588) rotate(-71.36873)"/><ellipse class="cls-9" cx="335.68903" cy="786.36391" rx="28.40904" ry="5.52599" transform="translate(-516.7096 853.23615) rotate(-71.36873)"/><ellipse class="cls-9" cx="347.78795" cy="788.13415" rx="26.34545" ry="5.51934" transform="translate(-510.15347 865.90571) rotate(-71.36873)"/><ellipse class="cls-9" cx="361.35207" cy="790.07192" rx="23.89591" ry="5.00616" transform="translate(-500.31513 901.0611) rotate(-72.76196)"/><ellipse class="cls-9" cx="373.90705" cy="792.36779" rx="22.08629" ry="4.62705" transform="translate(-490.42925 935.81097) rotate(-74.16083)"/><ellipse class="cls-9" cx="383.25258" cy="793.8708" rx="19.57382" ry="4.22744" transform="translate(-468.16105 1022.36197) rotate(-79.25273)"/><ellipse class="cls-9" cx="396.43214" cy="796.10266" rx="16.98467" ry="3.64297" transform="translate(-438.61063 1102.1116) rotate(-83.65407)"/><ellipse class="cls-9" cx="409.69668" cy="798.25981" rx="14.83599" ry="3.10812" transform="translate(-428.95616 1117.21358) rotate(-83.65407)"/><ellipse class="cls-9" cx="422.95341" cy="800.28702" rx="2.65711" ry="12.68317"/><ellipse class="cls-9" cx="557.08322" cy="776.27464" rx="8.72988" ry="38.36405" transform="translate(-209.6215 206.0923) rotate(-17.69797)"/><ellipse class="cls-9" cx="544.30409" cy="780.76448" rx="6.6945" ry="33.66807" transform="translate(-196.90279 183.71132) rotate(-16.26605)"/><ellipse class="cls-9" cx="532.36241" cy="782.90744" rx="6.20938" ry="31.22832" transform="translate(-197.98104 180.45226) rotate(-16.26605)"/><ellipse class="cls-9" cx="521.68176" cy="785.34532" rx="5.84995" ry="29.46374" transform="translate(-228.48914 214.23871) rotate(-19.12299)"/><ellipse class="cls-9" cx="509.29244" cy="787.71808" rx="5.37839" ry="27.08872" transform="translate(-229.95012 210.31094) rotate(-19.12299)"/><ellipse class="cls-9" cx="498.67993" cy="789.71635" rx="5.33363" ry="24.94203" transform="translate(-231.25338 207.0235) rotate(-19.12919)"/><ellipse class="cls-9" cx="486.91091" cy="792.1167" rx="4.72856" ry="22.09576" transform="translate(-217.81999 185.58108) rotate(-17.70378)"/><ellipse class="cls-9" cx="476.453" cy="794.45536" rx="4.2083" ry="19.65077" transform="translate(-203.51275 165.31837) rotate(-16.27144)"/><ellipse class="cls-9" cx="468.05634" cy="795.42775" rx="4.37735" ry="18.54375" transform="translate(-143.76991 104.44969) rotate(-11.04929)"/><ellipse class="cls-9" cx="456.22586" cy="796.37163" rx="4.08499" ry="16.77869" transform="translate(-87.56976 57.02318) rotate(-6.52717)"/><ellipse class="cls-9" cx="444.4498" cy="798.54121" rx="3.10462" ry="14.44909" transform="translate(-87.89272 55.69861) rotate(-6.52717)"/><ellipse class="cls-9" cx="432.75082" cy="799.66268" rx="2.8612" ry="13.30752"/><circle class="cls-3" cx="339.31155" cy="559.27737" r="10.66946"/><circle class="cls-3" cx="506.61636" cy="559.70716" r="10.66946"/></svg>