<svg id="Layer_1" data-name="Layer 1" xmlns="http://www.w3.org/2000/svg" viewBox="0 0 841.88983 1190.55115"><defs><style>.cls-1{fill:#2e8767;}.cls-2{fill:#e1d8ce;}.cls-3{fill:#fcf3e7;}.cls-4{fill:#090a0a;}.cls-5{fill:#f59e56;}.cls-6{fill:#4eb272;}.cls-7{fill:#040505;}.cls-8{fill:#e5cb31;}.cls-9{fill:#e8ecec;}.cls-10{fill:#e51d2a;}.cls-11{fill:#020304;}.cls-12{fill:#aecd57;}.cls-13{fill:#060707;}</style></defs><path class="cls-1" d="M379.73273,693.04329s-67.50455,63.0215-120.1538,71.12138-40.49942,52.64925-40.49942,52.64925H654.4483s2.025-50.62428-18.22474-52.64925-99.58507-61.81626-130.79138-78.495Z"/><polygon class="cls-2" points="379.733 693.043 379.733 703.462 408.593 748.024 509.842 739.925 505.432 685.67 379.733 693.043"/><path class="cls-3" d="M352.33517,548.571s-11.75739,144.71969,59.1166,169.01934S534.975,691.7223,534.975,533.54625C534.975,533.54625,428.89164,561.799,352.33517,548.571Z"/><path d="M456.2832,568.15527l-.56445-.82519c.96289-.65967,23.7666-16.0918,38.92676-11.60156,4.79492,1.42041,8.2998,4.7163,10.417,9.79638l-.92383.38477c-1.99512-4.78809-5.28418-7.89112-9.77637-9.22217C479.66211,552.3374,456.51563,567.99707,456.2832,568.15527Z"/><ellipse class="cls-4" cx="481.31327" cy="579.8923" rx="11.13734" ry="8.09988"/><path d="M422.29883,570.17432c-.2207-.15674-22.17041-15.65381-36.25049-11.52686-4.40723,1.29395-7.627,4.4165-9.56934,9.28076l-.92871-.37109c2.062-5.16455,5.5-8.48486,10.21778-9.86914,14.54638-4.27,36.1958,11.01953,37.11181,11.67285Z"/><ellipse class="cls-4" cx="398.33164" cy="581.91727" rx="10.67329" ry="8.09988"/><ellipse cx="442.69615" cy="666.92031" rx="29.21942" ry="8.05414"/><path d="M442.69629,675.47461c-14.60938,0-29.71973-3.2002-29.71973-8.55469s15.11035-8.55371,29.71973-8.55371,29.71973,3.19922,29.71973,8.55371S457.30566,675.47461,442.69629,675.47461Zm0-16.1084c-17.17969,0-28.71973,3.90625-28.71973,7.55371,0,3.64844,11.54,7.55469,28.71973,7.55469s28.71973-3.90625,28.71973-7.55469C471.416,663.27246,459.876,659.36621,442.69629,659.36621Z"/><path class="cls-5" d="M439.80136,638.61646a27.24176,27.24176,0,0,0-9.36549-6.58116c-12.73752-5.32581-25.14133,1.43271-27.084,2.53122,0,0-8.09988,4.04994-14.1748,0,0,0,0,18.22474,18.22474,20.24971s30.37457-8.09989,38.47446-6.07492c12.59748,7.87507,27.49988,8.79183,38.47445,2.025a32.12114,32.12114,0,0,0,12.14982-14.1748,18.44117,18.44117,0,0,1-10.79288,1.096c-4.10309-.915-5.81487-3.06069-11.4818-5.146a39.04136,39.04136,0,0,0-8.09988-2.025,19.20089,19.20089,0,0,0-6.07492,0,21.04691,21.04691,0,0,0-6.07491,2.025,26.52307,26.52307,0,0,0-6.07491,4.04994,11.315,11.315,0,0,1-8.09989,2.025Z"/><path class="cls-6" d="M337,527q-37.73955-12.692-40.46-7.39612-1.87134,3.64315,12.82934,15.79859A145.63151,145.63151,0,0,0,333.669,545.52734c19.77041,6.2027,36.2301,6.67756,53.22992,6.52161,26.11636-.23968,52.14917-.4787,90.54306-6.52161a600.5061,600.5061,0,0,0,72.89892-16.19976,59.03346,59.03346,0,0,0,18.22479-12.14985c1.40882-1.38287,10.90387-10.70275,9.36017-12.93222-1.2193-1.76092-9.67065.40265-42.95092,18.94761L522.82513,399.66986s0-14.1748-32.39953-14.1748c0,0-95.17365-2.025-137.698,10.12484a22.84869,22.84869,0,0,0-10.04355,5.66693C335.22571,408.72565,335.708,419.97726,336,428c.72769,19.98953.17825,40.0141,1,60C337.36215,496.80844,337.66833,510.27463,337,527Z"/><path class="cls-7" d="M337.46567,504.37509A752.63811,752.63811,0,0,0,431,508a752.69013,752.69013,0,0,0,101.56586-9.30017Q533.783,510.84993,535,523a766.37938,766.37938,0,0,1-85.58,8.03986A766.805,766.805,0,0,1,337,527Q337.23282,515.68756,337.46567,504.37509Z"/><path class="cls-8" d="M450.41406,540.89307h-39.4497V489.29346h39.4497Zm-36.4497-3h33.4497V492.29346h-33.4497Z"/><path class="cls-9" d="M380,693c11.35431,32.00275,41.42761,51.41382,70.10489,47.93707C485.57193,736.63715,507.07178,698.76282,505,689c-.09122-.42993-.65286-2.65967,0-3,1.21671-.63428,5.81754,5.72656,10,12,10.64752,24.135,9.806,40.99762,7,52-2.53088,9.92377-8.69275,23.05743-10,38-.83868,9.58667-1,19.99988-1,20-.05789,3.737-.03366,6.84338,0,9H394a64.91613,64.91613,0,0,0,1-15,67.78983,67.78983,0,0,0-5-22c-10.57324-27.24341-15.85986-40.865-16.844-47.16284C371.77359,723.991,371.85434,710.657,380,693Z"/><path class="cls-10" d="M173.02164,101.81657c6.8507-13.90825,20.15171-23.21318,34.773-23.84886,20.47212-.89,33.05521,15.67121,35.582,18.99679a48.13881,48.13881,0,0,1,9.70414,24.26035c2.84264,30.70836-28.08868,58.01888-55.79881,82.48521-9.76495,8.62187-18.35047,15.13659-24.26036,19.40828a353.72335,353.72335,0,0,1-63.07692-58.22485C100.8933,154.151,94.80486,145.51356,92.96247,133.355c-2.32342-15.333,1.8633-37.86638,19.40829-48.52071,12.46928-7.57211,25.62525-5.46369,29.11242-4.85207C161.31864,83.46138,171.39109,99.17783,173.02164,101.81657Z"/><path class="cls-11" d="M695.51277,63.32544a116.63253,116.63253,0,0,1-16.98225,21.83432c-9.48933,9.55045-14.37308,11.02844-29.11243,24.26036-8.6533,7.7683-12.98,11.65249-16.98225,16.98225-5.13433,6.83736-14.27228,19.00626-14.55621,36.39053-.078,4.7784-.32032,21.20441,12.13018,33.9645a41.13039,41.13039,0,0,0,24.26035,12.13017c20.65044,2.39924,34.86812-12.86625,36.39054-14.55621,0,0,4.85207,16.98225-16.98225,43.66864h46.09467s-21.83432-29.11243-19.40828-43.66864c12.93144,12.50451,30.74282,17.26774,46.09467,12.13018,21.6724-7.25271,30.48355-31.57326,29.11243-48.52071-1.72843-21.36389-20.10989-36.84912-33.9645-48.52071-10.11956-8.525-17.40348-11.84121-29.11242-24.26036A146.34359,146.34359,0,0,1,695.51277,63.32544Z"/><path class="cls-11" d="M141.48318,1027.68047c-1.0101-1.71706-11.1943-19.72294-2.426-38.81656,6.14516-13.38163,20.47981-24.85969,37.78882-23.70627,14.69833.97943,27.11905,10.77264,32.56621,23.70627,8.50818,20.20166-4.23916,37.99224-4.85208,38.81656a48.59984,48.59984,0,0,1,31.53847,4.85207c4.03988,2.19712,18.69542,10.16769,21.83432,26.68639,3.80559,20.02724-12.70537,34.78912-14.55622,36.39054-15.067,13.03661-33.49079,10.20063-36.39053,9.70414-20.25549-3.46825-30.13833-19.47766-31.53846-21.83432,0,0-2.426,19.40828,16.98225,48.52071H151.18732s19.40829-21.83432,16.98225-48.52071a50.77126,50.77126,0,0,1-24.26035,19.40828c-4.2086,1.55618-22.42465,8.29175-38.81657-2.426-14.11943-9.23194-16.6934-24.7493-16.98225-26.68639-3.43817-23.05689,16.10378-38.16112,16.98225-38.81657C120.81709,1023.22576,138.76964,1027.05442,141.48318,1027.68047Z"/><polygon class="cls-10" points="654.862 1050.811 717.939 953.769 776.164 1050.811 717.939 1143 654.862 1050.811"/><polygon points="423.251 764.056 432.88 764.056 432.88 755.63 455.751 755.63 429.269 811 441.306 811 468.992 755.63 468.992 746 423.251 746 423.251 764.056"/><path class="cls-12" d="M436.94,486.71273l.71964-1.07946s-17.63119-10.70465-5.48726-39.49027l-1.12443.045S418.63414,473.98409,436.94,486.71273Z"/><path class="cls-12" d="M435.95049,427.70222a5.03068,5.03068,0,0,0-1.48426-.76462c-1.70809-.53844-2.58454.23929-4.048-.44977-.41191-.19395-.37629-.27149-1.34933-.8096,0,0-.82977-.45889-1.61919-.80959a20.1181,20.1181,0,0,0-5.12743-1.34933,19.03084,19.03084,0,0,0-3.86807-.17991,1.50346,1.50346,0,0,1-.35982,0c-1.3098-.17338-2.02337-2.21061-2.36483-3.18546a11.9204,11.9204,0,0,1-.51373-5.54018s1.52923-7.1964,9.53523-5.66717a8.37341,8.37341,0,0,1,1.7991-3.958,8.67192,8.67192,0,0,1,8.28573-2.81618,8.01112,8.01112,0,0,1,5.02762,3.176,8.21312,8.21312,0,0,1,1.07946,6.65668c-.85651,2.02125-1.6325,4.29536-2.46252,6.74662-1.20315,3.55323-2.35007,7.46627-2.12519,8.90555a5.6348,5.6348,0,0,0,.89955-2.51874,17.49453,17.49453,0,0,1,.15007-2.87795,8.43134,8.43134,0,0,1,.29971-1.08007c2.38491-7.14163,2.344-7.11992,2.60869-7.64618a7.62,7.62,0,0,0,.71964-1.889,13.82445,13.82445,0,0,0,.17992-2.15892c.30689-1.69652,3.41012-3.03427,5.98161-3.062a8.42,8.42,0,0,1,7.87146,5.221,7.99312,7.99312,0,0,1,.17991,4.76761,8.63793,8.63793,0,0,1,4.4078,2.42879,8.8946,8.8946,0,0,1,.9895,10.70465c-1.3032,1.85906-3.77314,3.34061-5.03748,2.78861a13.44294,13.44294,0,0,1-2.33883-1.52924,2.81657,2.81657,0,0,0-.35982-.26986,3.48075,3.48075,0,0,0-1.34933-.44978c-.38389-.072-.93113-.18455-1.61919-.35982a31.25807,31.25807,0,0,0-4.31784-.8096,19.14222,19.14222,0,0,0-1.979-.08995,9.84433,9.84433,0,0,0-1.34932.08995c-.33391.04692-.38947.0735-.53973.09a2.80888,2.80888,0,0,1-1.79911-.62969,4.53918,4.53918,0,0,0-3.14842-.44977,5.82347,5.82347,0,0,0,1.889.9895,6.52443,6.52443,0,0,0,3.05848.09c2.33386-.34133,4.31452.01233,8.27586.71964a7.159,7.159,0,0,1,3.26252,1.07564,15.78209,15.78209,0,0,0,1.685,1.17324c.33922.20449.592.33912.62968.35982,1.18035.649,4.00647,6.50675,1.07946,11.15442-1.93776,3.07688-5.71153,4.535-7.1964,3.958-.20449-.07945-1.70629-.71844-1.70915-.71964h0a9.65721,9.65721,0,0,1-5.12743,5.75713c-.326.14093-4.68,1.94843-7.82609-.35982a9.29246,9.29246,0,0,1-2.96852-4.58771c-.03118-.10646-.12624-.43832-.21189-.88374a12.36687,12.36687,0,0,1,.21189-4.87338,20.70994,20.70994,0,0,1,1.70915-4.94753s3.32833-6.65668,2.7886-8.63569a8.38914,8.38914,0,0,0-.44977,1.07946,10.21022,10.21022,0,0,0-.44978,3.05848c-.06037.79243-.20521.64715-1.889,4.49775a23.60251,23.60251,0,0,0-1.43928,3.77811,19.10079,19.10079,0,0,0-.44978,2.42879,8.50707,8.50707,0,0,0-.08995,2.87856,1.66131,1.66131,0,0,1,.08995.71964c-.117.6669-.82108,1.10562-1.73409,1.51819a10.07246,10.07246,0,0,1-4.113,1.18046c-7.01649.26986-8.9955-5.3973-8.45577-9.89506a9.92841,9.92841,0,0,1-5.12744-4.31784c-1.3761-2.45339-2.05174-6.30868-.08995-8.9955,2.68242-3.67382,8.59408-2.8323,10.16492-2.6087a19.54771,19.54771,0,0,1,6.74662,2.15892,8.71553,8.71553,0,0,0,5.57722,2.15892A7.33392,7.33392,0,0,0,435.95049,427.70222Z"/><path class="cls-13" d="M438.69336,453.54883a6.66894,6.66894,0,0,1-4.01465-1.22217,9.47259,9.47259,0,0,1-3.06152-4.71924c-.01465-.05029-.03418-.11816-.05567-.20068a4.46726,4.46726,0,0,1-1.51562.977,10.30515,10.30515,0,0,1-4.20606,1.20264,8.10492,8.10492,0,0,1-6.58007-2.3833A9.77883,9.77883,0,0,1,417.105,439.605a10.10287,10.10287,0,0,1-5.07568-4.35937c-1.47852-2.63623-2.0752-6.52344-.07422-9.26514a7.39788,7.39788,0,0,1,5.19385-2.80811,6.854,6.854,0,0,1-1.65528-2.936,12.20162,12.20162,0,0,1-.52588-5.65479,7.93871,7.93871,0,0,1,9.583-5.92529,8.5822,8.5822,0,0,1,1.80762-3.82812,8.90341,8.90341,0,0,1,8.52734-2.90088,8.10156,8.10156,0,0,1,5.18262,3.27832,7.76308,7.76308,0,0,1,1.31543,3.32373c1.01953-1.36866,3.60644-2.33106,5.80762-2.355.02636-.00049.05273-.00049.08007-.00049a8.72667,8.72667,0,0,1,8.0293,5.38428,8.15816,8.15816,0,0,1,.24805,4.66992,8.80827,8.80827,0,0,1,4.28613,2.44238,9.14512,9.14512,0,0,1,1.01367,11.01953c-1.09472,1.56055-3.04687,2.94776-4.51269,3.01221a9.60266,9.60266,0,0,1,1.51562,3.33642,9.73234,9.73234,0,0,1-.9541,7.584c-2.01269,3.19482-5.93262,4.66553-7.5,4.05762-.13476-.05274-1.01953-.42579-1.46875-.61719a9.82669,9.82669,0,0,1-5.17676,5.65137A11.02483,11.02483,0,0,1,438.69336,453.54883Zm-6.77832-6.82178c.07031.34131.14258.60547.18262.73975a8.95386,8.95386,0,0,0,2.876,4.45654c3.06348,2.24658,7.39551.41211,7.5791.332a9.35645,9.35645,0,0,0,4.98829-5.605l.085-.26123.25293.10889c.03418.01513,1.499.63818,1.70019.71631,1.26074.49072,4.9502-.772,6.89453-3.8584a9.23907,9.23907,0,0,0,.89453-7.19239,7.00648,7.00648,0,0,0-1.875-3.605,13.76272,13.76272,0,0,1-2.38964-1.564c-.041-.03467-.1045-.08984-.19141-.15381a4.05449,4.05449,0,0,0-.97559-.42529c-.11425-.02588-.22949-.04737-.34668-.06934l-.07812-.01465c-.51953-.09716-1.06934-.21924-1.63477-.36328-.06347-.01611-.13183-.03369-.2041-.05176-3.668-.65429-5.59082-.97851-7.7793-.67773-.03417.00586-.06835.01123-.10839.01562l-.13575.02a6.49649,6.49649,0,0,1-3.02734-.11865,6.06076,6.06076,0,0,1-1.9707-1.03125l-.07129-.05517.0166.06152c.251.92285-.26563,2.74756-.92188,4.499a4.74963,4.74963,0,0,1-.5,1.27686c-.01562.03174-.03125.06494-.04687.09912-.64355,1.53906-1.26074,2.78467-1.335,2.93262-.53125,1.21631-.84668,1.9834-1.05859,2.5625q-.28859.85839-.499,1.73388c-.10156.46289-.2207,1.09473-.30957,1.83448-.08691.71972-.15137,1.25341-.17187,1.6997-.00293.20313-.002.40137.00488.59424a3.39527,3.39527,0,0,0,.07324.50049l.04.17139a1.4026,1.4026,0,0,1,.05176.646Zm-13.90625-23.148c-2.59863.208-4.49072,1.10938-5.64941,2.69629-1.86084,2.54834-1.249,6.30957.10644,8.72559a9.62948,9.62948,0,0,0,4.99756,4.20654l.1831.06934-.02343.19433a9.33859,9.33859,0,0,0,2.0039,7.39307,7.60033,7.60033,0,0,0,6.19336,2.22217,9.90876,9.90876,0,0,0,4.02051-1.1587c.71289-.32226,1.38867-.69238,1.56152-1.2163l-.00195-.01026a8.54635,8.54635,0,0,1-.13867-1.27978,5.46067,5.46067,0,0,1-.00586-.70752,16.59615,16.59615,0,0,1,.35644-2.98438c.042-.20312.0879-.40576.13575-.60791.05273-.23681.09961-.43066.13672-.57324a12.428,12.428,0,0,1,.3789-1.21533,21.44043,21.44043,0,0,1,1.07617-2.606c.62793-1.43506,1.03711-2.30517,1.31641-2.89453.18262-.437.36328-.88867.5332-1.33984.00684-.05372.0127-.11182.01758-.17676.01074-.146.0166-.30176.02344-.46729a8.42482,8.42482,0,0,1,.90137-3.76367l.02832-.05713-.01661-.1084-.1455.02832a7.63178,7.63178,0,0,1-1.34864.13916c-.0332.00049-.0664.00049-.10058.00049a8.91338,8.91338,0,0,1-5.6211-2.20166c-.07031-.03857-.31347-.1709-.63281-.33349a20.83136,20.83136,0,0,0-6.00488-1.78467,18.66353,18.66353,0,0,0-3.81445-.1792,1.80049,1.80049,0,0,1-.41407-.001Zm37.70508,8.53028c1.10156.46875,3.43554-.86817,4.72461-2.70655a8.62253,8.62253,0,0,0-.9668-10.38965,8.379,8.379,0,0,0-4.28027-2.35595l-.25293-.05664.06543-.25049a7.72241,7.72241,0,0,0-.17188-4.61817,8.21223,8.21223,0,0,0-7.55957-5.0581c-.02539,0-.05078,0-.07519.00049-2.38965.02588-5.37793,1.24853-5.72657,2.79736a9.08088,9.08088,0,0,1-.08007,1.58105c-.02344.19288-.05958.40723-.11329.64747-.01464.06543-.03027.12939-.04687.1914-.01563.06738-.03125.12744-.0459.1792l-.00586.01318a7.86,7.86,0,0,1-.58008,1.44043c-.29.75-.57226,1.523-.8457,2.29541-.09766.293-.21.63184-.34082,1.02539-.3457,1.03956-.81641,2.4585-1.46973,4.41456a8.12383,8.12383,0,0,0-.292,1.05029,7.44978,7.44978,0,0,0-.12988,1.84717,8.48238,8.48238,0,0,1-.0166,1.0039,5.912,5.912,0,0,1-.88086,2.53809l.14843-.01953a4.899,4.899,0,0,1,3.31543.48633l.11426.07421a2.38725,2.38725,0,0,0,1.52051.51807c.03223-.00488.06348-.00928.0957-.01367.02246-.00391.04492-.0083.06934-.01318.08008-.01563.18262-.03614.37012-.0625a10.12307,10.12307,0,0,1,1.38281-.09229,17.84781,17.84781,0,0,1,2.00586.09131,30.89015,30.89015,0,0,1,4.13183.75928q.1421.02564.28711.05127a16.96248,16.96248,0,0,1,1.99317.45166,3.01217,3.01217,0,0,1,.98242.394c.06152.03857.11719.07666.165.11182.084.05322.16308.10937.23828.168l.06348.04932a15.43088,15.43088,0,0,0,1.59765,1.10791c.2959.17773.52442.30176.59864.34229Zm-19.63965-2.54249a7.4638,7.4638,0,0,0-.22168.937C435.94531,430.17188,436.02051,429.85693,436.07422,429.56689Zm1.43652-1.45459a5.407,5.407,0,0,0,1.25586.565,5.23992,5.23992,0,0,0,1.52344.2207h.02246c-.15234-.08545-.28223-.17139-.38672-.24024l-.10644-.06933A3.8737,3.8737,0,0,0,437.51074,428.1123ZM431.793,427.041a7.25621,7.25621,0,0,0,2.85058.54589q.30617-.00366.61426-.03515a4.6686,4.6686,0,0,0-.86718-.376,4.7993,4.7993,0,0,0-1.9375-.16308C432.23828,427.02734,432.02246,427.03418,431.793,427.041Zm1.32226-.55762a4.60542,4.60542,0,0,1,1.42579.21582,5.29743,5.29743,0,0,1,1.54492.79248c-.09375-1.34668.63086-4.31055,2.1582-8.82031.32715-.9668.67383-1.99073,1.03613-3.01416a15.571,15.571,0,0,1,.80957-2.23535l.03809-.07422c.00488-.01026.00977-.021.01562-.03125.18262-.47266.36915-.93506.55762-1.38086.02832-.10059.05567-.20508.08106-.314.041-.18847.08691-.44092.124-.74365a6.87691,6.87691,0,0,0,.02539-.7666,3.66314,3.66314,0,0,1,.03027-.63867,7.42115,7.42115,0,0,0-1.30371-3.981,7.611,7.611,0,0,0-4.873-3.07422,8.39022,8.39022,0,0,0-8.04395,2.73193,8.12138,8.12138,0,0,0-1.74414,3.83985l-.043.251-.25-.04785c-7.65967-1.46631-9.1831,5.18946-9.24365,5.47364a11.694,11.694,0,0,0,.50488,5.40527c.31738.90625.96875,2.76709,2.07276,3.00488a20.18519,20.18519,0,0,1,4.3164.19531,20.464,20.464,0,0,1,5.19727,1.36866c.32715.1455.65918.3081.93847.4497.417.20264.65918.34473.70411.37159a10.7492,10.7492,0,0,1,.9414.57177,2.47613,2.47613,0,0,0,.38867.22852,3.42121,3.42121,0,0,0,1.89454.25195C432.63867,426.499,432.86816,426.4834,433.11523,426.4834Zm3.91114-2.03272a17.38578,17.38578,0,0,0-.41309,2.18262,5.02878,5.02878,0,0,0,.39258-1.51758A6.14232,6.14232,0,0,0,437.02637,424.45068Z"/></svg>