<svg id="Layer_1" data-name="Layer 1" xmlns="http://www.w3.org/2000/svg" viewBox="0 0 1190.55115 841.88983"><defs><style>.cls-1{fill:#020304;}</style></defs><path class="cls-1" d="M593.75968,298.17751a164.13861,164.13861,0,0,1-23.89941,30.72782c-13.35449,13.4405-20.22748,15.5205-40.97041,34.142-12.17794,10.93246-18.26694,16.39875-23.89941,23.89941-7.22564,9.62234-20.08563,26.74784-20.48521,51.213-.10982,6.72473-.45079,29.84134,17.071,47.79882,3.86723,3.9634,15.69727,14.92807,34.142,17.071,29.06171,3.37648,49.07049-18.1069,51.213-20.48521,0,0,6.8284,23.89941-23.89941,61.45562h64.86982s-30.72781-40.97041-27.31361-61.45562c18.19864,17.59781,43.26491,24.30118,64.86982,17.071,30.49994-10.20686,42.9-44.43358,40.97042-68.284-2.43244-30.06577-28.301-51.85839-47.79882-68.284-14.24143-11.99743-24.49221-16.66434-40.97041-34.142A205.95316,205.95316,0,0,1,593.75968,298.17751Z"/></svg>