<svg id="Layer_1" data-name="Layer 1" xmlns="http://www.w3.org/2000/svg" viewBox="0 0 841.88983 1190.55115"><defs><style>.cls-1{fill:#020202;}.cls-2{fill:#e51d2a;}.cls-3{fill:#020304;}.cls-4{fill:#105277;}.cls-5{fill:#fcf3e7;}.cls-6{fill:#111110;}.cls-7{fill:#c2212e;}.cls-8{fill:#060707;}</style></defs><path class="cls-1" d="M341.91135,490.099s-29.89948-65.77886-11.95979-77.73865c0,0,23.91958-35.87938,95.67834-23.91959s77.73865,17.93969,95.67834,59.799l-5.9799,41.85927Z"/><path d="M515.76172,490.59912H341.58936l-.13331-.293c-1.22656-2.69775-29.78417-66.11816-11.86132-78.3081.66357-.9419,6.93847-9.46729,21.063-16.52979,13.70655-6.85254,37.85547-13.72021,75.0542-7.52051,71.49414,11.91553,78.00684,17.98145,96.05664,60.09522l.05469.12891-.01953.13867Zm-173.52686-1H514.89453l5.89942-41.291c-17.81641-41.55127-24.335-47.55567-95.2461-59.374-36.89258-6.14844-60.80908.62842-74.37646,7.39551-14.688,7.32666-20.74463,16.21924-20.80371,16.30811l-.13868.13867C313.44434,423.96582,340.10547,484.81934,342.23486,489.59912Z"/><path class="cls-2" d="M173.02164,101.81657c6.8507-13.90825,20.15171-23.21318,34.773-23.84886,20.47212-.89,33.05521,15.67121,35.582,18.99679a48.13881,48.13881,0,0,1,9.70414,24.26035c2.84264,30.70836-28.08868,58.01888-55.79881,82.48521-9.76495,8.62187-18.35047,15.13659-24.26036,19.40828a353.72335,353.72335,0,0,1-63.07692-58.22485C100.8933,154.151,94.80486,145.51356,92.96247,133.355c-2.32342-15.333,1.8633-37.86638,19.40829-48.52071,12.46928-7.57211,25.62525-5.46369,29.11242-4.85207C161.31864,83.46138,171.39109,99.17783,173.02164,101.81657Z"/><path class="cls-3" d="M695.51277,63.32544a116.63253,116.63253,0,0,1-16.98225,21.83432c-9.48933,9.55045-14.37308,11.02844-29.11243,24.26036-8.6533,7.7683-12.98,11.65249-16.98225,16.98225-5.13433,6.83736-14.27228,19.00626-14.55621,36.39053-.078,4.7784-.32032,21.20441,12.13018,33.9645a41.13039,41.13039,0,0,0,24.26035,12.13017c20.65044,2.39924,34.86812-12.86625,36.39054-14.55621,0,0,4.85207,16.98225-16.98225,43.66864h46.09467s-21.83432-29.11243-19.40828-43.66864c12.93144,12.50451,30.74282,17.26774,46.09467,12.13018,21.6724-7.25271,30.48355-31.57326,29.11243-48.52071-1.72843-21.36389-20.10989-36.84912-33.9645-48.52071-10.11956-8.525-17.40348-11.84121-29.11242-24.26036A146.34359,146.34359,0,0,1,695.51277,63.32544Z"/><path class="cls-3" d="M141.48318,1027.68047c-1.0101-1.71706-11.1943-19.72294-2.426-38.81656,6.14516-13.38163,20.47981-24.85969,37.78882-23.70627,14.69833.97943,27.11905,10.77264,32.56621,23.70627,8.50818,20.20166-4.23916,37.99224-4.85208,38.81656a48.59984,48.59984,0,0,1,31.53847,4.85207c4.03988,2.19712,18.69542,10.16769,21.83432,26.68639,3.80559,20.02724-12.70537,34.78912-14.55622,36.39054-15.067,13.03661-33.49079,10.20063-36.39053,9.70414-20.25549-3.46825-30.13833-19.47766-31.53846-21.83432,0,0-2.426,19.40828,16.98225,48.52071H151.18732s19.40829-21.83432,16.98225-48.52071a50.77126,50.77126,0,0,1-24.26035,19.40828c-4.2086,1.55618-22.42465,8.29175-38.81657-2.426-14.11943-9.23194-16.6934-24.7493-16.98225-26.68639-3.43817-23.05689,16.10378-38.16112,16.98225-38.81657C120.81709,1023.22576,138.76964,1027.05442,141.48318,1027.68047Z"/><polygon class="cls-2" points="654.862 1050.811 717.939 953.769 776.164 1050.811 717.939 1143 654.862 1050.811"/><path class="cls-4" d="M363.08679,629.82233c-13.54074,7.58494-23.76842,18.29136-45.095,21.7339-10.37977,1.67544-18.15307.78506-29.89948,5.97985-11.64627,5.15051-18.83959,12.586-23.91962,17.93972-5.01663,5.287-18.36691,19.6896-23.91952,41.85929-5.57841,22.27219,2.2873,30.12738-5.98,47.83914-1.87164,4.00989-5.02468,9.49892-5.97985,17.93971-.85118,7.52285-.003,17.80225,0,17.93967,0,0,197.33652,35.87938,412.61281,0a89.61588,89.61588,0,0,0-5.97985-29.89948c-4.38116-11.25956-7.867-13.22334-11.95992-23.91957-6.16712-16.11787-2.06431-21.62311-5.97985-35.87938-4.47822-16.3042-14.62969-26.5256-23.91963-35.87938-16.09758-16.20842-32.85554-23.43653-47.839-29.89948-20.68883-8.92368-46.03984-15.75305-46.03951-15.754C499.1782,629.82217,416.07865,600.13874,363.08679,629.82233Z"/><path class="cls-1" d="M341.80507,487.98846s-47.73294,32.01-17.83335,67.88941c29.89947,35.87938-41.85929,11.95978-17.93978,41.85928,23.91963,29.89945,29.89948-17.93969,47.83925,17.9397,17.93967,35.87938,89.69843,89.69842,143.51742,17.93966.0257-1.19686.92132-25.42926,19.566-35.14687a34.33722,34.33722,0,0,1,18.069-3.61381c1.65637,9.98506,6.79772,16.49935,10.84142,16.26213,4.85914-.28509,9.49793-10.39948,7.22761-18.069-1.32187-4.4654-4.6893-7.10106-7.22761-9.03452-9.22432-7.02625-17.25954-4.50573-19.81726-8.99635-1.535-2.69514-1.01341-7.76875,7.16894-18.10719a15.05293,15.05293,0,0,1,27.10354-12.64832,49.14093,49.14093,0,0,0-3.61381-25.29663c-9.51315-21.75687-32.11189-28.01419-35.39826-28.86691Z"/><path d="M435.61133,669.48242q-3.0293.00147-6.09863-.27637c-35.708-3.21972-65.99073-33.10937-76.08887-53.30566-3.96533-7.93066-7.66113-12.332-11.29981-13.457-3.38476-1.04688-6.59326.7373-9.98828,2.626-6.772,3.76757-14.44824,8.03613-26.49463-7.01954-4.28173-5.35253-5.833-9.40039-4.74316-12.376,1.54834-4.227,7.92139-5.478,14.668-6.80176,6.627-1.30078,13.479-2.64551,15.001-6.93164,1.23389-3.47656-1.04882-8.626-6.97949-15.74219-7.86474-9.438-11.09765-19.47851-9.60888-29.84326,3.1914-22.21582,27.30517-38.61865,27.54834-38.78223l.1289-.08642,59.98975.70556L521.375,489.6001l.05957.01513c4.3291,1.123,26.39746,7.80713,35.72949,29.1504a49.57985,49.57985,0,0,1,3.65332,25.55468l-.16113,1.3877-.75684-1.17481a14.5525,14.5525,0,0,0-26.20507,12.228l.0791.25244-.165.207c-6.60645,8.34815-9.00391,14.25244-7.126,17.54981,1.09766,1.92724,3.36328,2.44922,6.5,3.17236,3.66406.84424,8.22559,1.89551,13.18555,5.67383,2.39258,1.82226,6.00879,4.57617,7.4043,9.29,1.64062,5.54053-.22168,11.77978-2.64551,15.231-1.50293,2.1416-3.291,3.37695-5.03223,3.47949-4.05957.24707-9.4668-5.91309-11.29687-16.28516a33.70683,33.70683,0,0,0-17.41114,3.58106c-18.55566,9.67089-19.27636,33.69531-19.29785,34.71386l-.0039.16016-.09571.12891C480.2627,657.28418,458.87305,669.48242,435.61133,669.48242ZM340.03467,601.126a8.00893,8.00893,0,0,1,2.38476.3623c3.96729,1.22656,7.74805,5.66309,11.89893,13.96485,9.99463,19.98925,39.959,49.57226,75.28418,52.75781,25.56934,2.29883,48.21289-9.3916,67.291-34.76758.08008-2.38281,1.34375-25.78223,19.83008-35.417a34.82674,34.82674,0,0,1,18.332-3.66944l.39649.02539.06445.39161c1.61719,9.74755,6.64453,16.07568,10.31934,15.84521,1.43066-.084,2.94824-1.16894,4.27246-3.05566,2.29-3.26172,4.05078-9.15039,2.50488-14.37256-1.30273-4.40039-4.76172-7.03516-7.05078-8.77832-4.78906-3.648-9.2334-4.67237-12.80469-5.49561-3.25683-.75049-5.83008-1.34326-7.14453-3.65136-2.1123-3.709.19336-9.749,7.04883-18.45948A15.53482,15.53482,0,0,1,559.96,542.88428a48.39982,48.39982,0,0,0-3.71191-23.71826c-9.10547-20.82471-30.61914-27.42041-35.00684-28.56788l-179.28369-2.10791c-1.88428,1.30713-23.98291,17.063-26.98975,38.01123-1.44531,10.07081,1.71338,19.84668,9.38819,29.05616,6.17578,7.41113,8.51562,12.87939,7.15332,16.71728-1.7124,4.82324-8.84912,6.22364-15.75049,7.57813-6.17871,1.21289-12.56738,2.46631-13.92188,6.165-.95947,2.61963.54053,6.35058,4.58545,11.40673,11.51807,14.39747,18.4878,10.51954,25.22754,6.77051C334.46924,602.627,337.166,601.126,340.03467,601.126Z"/><path class="cls-5" d="M341.91135,490.099s-5.97989,131.55772,71.75876,149.49741S533.268,537.93818,515.32834,490.099Z"/><path d="M390.22461,603.875l-.94824-.31641c.06054-.18261,6.46533-18.293,36.45117-12.2915l-.19531.98047C396.398,586.41992,390.28271,603.69922,390.22461,603.875Z"/><path d="M472.99414,603.875c-5.77051-17.31348-35.01074-11.68652-35.30664-11.62744l-.19531-.98047c.30176-.062,30.40136-5.85791,36.45117,12.2915Z"/><ellipse class="cls-6" cx="389.75052" cy="534.94823" rx="11.95979" ry="8.96984"/><ellipse class="cls-6" cx="467.48917" cy="534.94823" rx="11.95979" ry="8.96984"/><path d="M431.25586,580.15088c-11.99463-11.99463-6.36719-58.251-6.12207-60.21436l.99219.124c-.05957.47607-5.81348,47.73291,5.83691,59.3833Z"/><polygon class="cls-7" points="419.65 415.384 429.306 434.949 450.897 438.087 435.274 453.316 438.962 474.82 419.65 464.668 400.338 474.82 404.026 453.316 388.403 438.087 409.994 434.949 419.65 415.384"/><rect x="309.88552" y="652.88653" width="4.00045" height="158.63612" transform="translate(-97.02448 49.42446) rotate(-7.84518)"/><rect x="471.81245" y="731.98678" width="158.94639" height="4.00104" transform="translate(-256.1694 1170.64457) rotate(-81.49413)"/><path d="M457.30566,794.8877c-18.33691,0-32.70117-21.56543-32.70117-49.09668s14.36426-49.09668,32.70117-49.09668c18.33789,0,32.70215,21.56543,32.70215,49.09668S475.64355,794.8877,457.30566,794.8877Zm0-78.19336c-5.05664,0-12.70117,11.60449-12.70117,29.09668s7.64453,29.09668,12.70117,29.09668,12.70215-11.6045,12.70215-29.09668S462.3623,716.69434,457.30566,716.69434Z"/><path class="cls-8" d="M416.26866,700H402.49254s-5.43284,15.32836-26,22.31343v15.91045s13-3.10448,22.70149-13.194V791h17.07463Z"/><path d="M416.76855,791.5h-18.0747V726.24512a53.19246,53.19246,0,0,1-22.085,12.46484l-.61621.14746V721.95508l.33935-.11524c20.10449-6.82812,25.63574-21.85546,25.68945-22.00683l.11817-.333h14.6289Zm-17.0747-1h16.0747v-90H402.832c-.94971,2.28613-7.2251,15.71289-25.83935,22.1709v14.90039c2.68066-.7627,13.54785-4.26367,21.84082-12.8877l.86035-.89453Z"/></svg>